<svg xmlns="http://www.w3.org/2000/svg" viewBox="0 0 357.89 108.01"><defs><style>.cls-1{fill:#fff;}.cls-2{fill:#00ff97;opacity:0.3;}</style></defs><g id="Layer_2" data-name="Layer 2"><g id="Layer_1-2" data-name="Layer 1"><path class="cls-1" d="M52.09,54.44,50,49.59C45.74,39.43,37,33.36,26.56,33.36a26.57,26.57,0,0,0,0,53.13c11.5,0,21.12-7.51,24.5-19.12l-6.72-2C41.81,74.09,35,79.49,26.56,79.49a19.57,19.57,0,0,1-18.79-25ZM26.56,40.36A17.42,17.42,0,0,1,40.8,47.45l-29.32,0A19.55,19.55,0,0,1,26.56,40.36Z"/><path class="cls-1" d="M350.89,65c0,1.47-.72,14.39-18.92,14.39s-18.9-13.91-18.92-15.5V40.18h28.53v-7H313.05V11.47H299.21v7h6.84V63.93c0,.22.29,22.48,25.92,22.48,13.18,0,19.56-5.75,22.59-10.57A21.82,21.82,0,0,0,357.89,65Z"/><path class="cls-1" d="M269.67,33.08a23,23,0,0,0-17.25,8.08V33H238.58v7h6.84V86.49h7V60.2c0-11.09,7.74-20.12,17.25-20.12s17.24,9,17.24,20.12h7C293.91,45.25,283,33.08,269.67,33.08Z"/><path class="cls-1" d="M208.21,33.19a26.56,26.56,0,1,0,26.56,26.56A26.59,26.59,0,0,0,208.21,33.19Zm0,46.12a19.56,19.56,0,1,1,19.56-19.56A19.59,19.59,0,0,1,208.21,79.31Z"/><path class="cls-1" d="M151.09,33.19a26.49,26.49,0,0,0-20,9.15V33H105.34L85,55,65.87,33H56.58L80.27,60.16,56.18,86.28H65.7L84.9,65.47l18.34,21h9.28L89.67,60.29,108.41,40h15.64v68h7V77.15a26.55,26.55,0,1,0,20-44Zm0,46.12a19.56,19.56,0,1,1,19.56-19.56A19.58,19.58,0,0,1,151.09,79.31Z"/><circle class="cls-2" cx="113.15" cy="38.21" r="38.21"/><circle class="cls-2" cx="113.15" cy="38.21" r="28.6"/><circle class="cls-2" cx="113.15" cy="38.21" r="18.38"/></g></g></svg>