<svg xmlns="http://www.w3.org/2000/svg" viewBox="0 0 117.05 124.6"><defs><style>.cls-1{fill:#fff;}</style></defs><g id="Layer_2" data-name="Layer 2"><g id="Layer_1-2" data-name="Layer 1"><path class="cls-1" d="M26.4,42.3a7.41,7.41,0,1,0,0-14.8c-9.9,0-9.1,14.8,0,14.8M12,0H41V10.5H12ZM47.1,25.8c5,12.9-2,30.5-20.7,30.5S.7,38.8,5.7,25.8H2.5V12.1h48V25.8Z"/><polygon class="cls-1" points="26.5 69.1 52.9 118.5 37.4 124.6 26.5 99.9 15.8 124.6 0 118.5 26.5 69.1"/><path class="cls-1" d="M91.4,16.1c-13.8,0-13.4,20.6,0,20.6s13.8-20.6,0-20.6m0-14.9c34.2,0,34.2,50.6,0,50.6S57.2,1.2,91.4,1.2"/><polygon class="cls-1" points="114 87.8 88.4 87.8 88.4 105.7 114 105.7 114 122.7 71.2 122.7 71.2 70.8 114 70.8 114 87.8"/></g></g></svg>