<svg xmlns="http://www.w3.org/2000/svg" viewBox="0 0 2647.08 582"><defs><style>.cls-1{fill:#0062ff;}.cls-2{fill:#00ff97;}.cls-3{fill:#edff00;}.cls-4{fill:#80b4ff;}.cls-5{fill:#fff;}.cls-6{fill:#ff6;}.cls-7{fill:#ff8103;}</style></defs><g id="Layer_2" data-name="Layer 2"><g id="Layer_1-2" data-name="Layer 1"><path class="cls-1" d="M211.46,43.19c-13.47,0-17.49-2.63-18.59-3.75a1.81,1.81,0,0,1-.53-.86l.07-.23v-.49c0-5,9.66-9.08,17.65-9.08,10.18,0,20.45,2.81,20.45,9.08h7c0-9.92-10.52-16.08-27.45-16.08a35.57,35.57,0,0,0-15.62,3.7c-5.69,2.95-8.88,7.21-9,12A7.66,7.66,0,0,0,187,43.36c3.46,4.59,11.45,6.83,24.43,6.83,11.95,0,16.3,3,17.83,4.72a4.75,4.75,0,0,1,1.29,3.44h0l-.07.25v.46c0,6.27-10.27,9.07-20.45,9.07-16.42,0-17.34-6.92-17.68-9.53l-.4-3h-13.4v7h7.5c2.51,8.35,10.56,12.57,24,12.57,16.78,0,27.26-6,27.45-15.8a11.61,11.61,0,0,0-2.68-8.7C230.8,45.69,222.94,43.19,211.46,43.19Z"/><path class="cls-1" d="M270.69,75.13c16.77,0,27.25-6,27.45-15.8a11.59,11.59,0,0,0-2.69-8.7c-4-4.94-11.89-7.44-23.36-7.44-13.48,0-17.49-2.63-18.59-3.75a1.72,1.72,0,0,1-.53-.86l.07-.23v-.49c0-5,9.65-9.08,17.65-9.08,10.18,0,20.45,2.81,20.45,9.08h7c0-9.92-10.52-16.08-27.45-16.08a35.64,35.64,0,0,0-15.63,3.7c-5.68,2.95-8.87,7.21-9,12a7.73,7.73,0,0,0,1.62,5.85c3.46,4.59,11.45,6.83,24.43,6.83,12,0,16.3,3,17.82,4.72a4.78,4.78,0,0,1,1.3,3.44h0l-.07.25v.46c0,6.27-10.27,9.07-20.45,9.07-16.42,0-17.34-6.92-17.68-9.53l-.41-3H239.21v7h7.5C249.21,70.91,257.26,75.13,270.69,75.13Z"/><path class="cls-1" d="M26.56,68a19.56,19.56,0,0,1,0-39.12c7.61,0,13.81,4.36,17,11.95L50,38.15C45.74,28,37,21.92,26.56,21.92a26.56,26.56,0,0,0,0,53.12c11.5,0,21.12-7.5,24.5-19.11l-6.72-2C41.81,62.65,35,68,26.56,68Z"/><path class="cls-1" d="M164.27,31.47a26.56,26.56,0,1,0,0,34.58v9.3h7V29.2h6.83v-7H164.27ZM144.13,68.32a19.56,19.56,0,1,1,19.56-19.56A19.58,19.58,0,0,1,144.13,68.32Z"/><polygon class="cls-1" points="91.19 0.58 77.35 0.58 77.35 7.58 84.19 7.58 84.19 68.25 56.78 68.25 56.78 75.25 117.4 75.25 117.4 68.25 91.19 68.25 91.19 0.58"/><path class="cls-1" d="M394.07,148.9a26.5,26.5,0,0,0-19.82,8.9V127.21H360.42v7h6.83v67.84h7v-8.92a26.56,26.56,0,1,0,19.82-44.23Zm0,46.12a19.56,19.56,0,1,1,19.56-19.56A19.58,19.58,0,0,1,394.07,195Z"/><path class="cls-1" d="M572.83,155.82c7.61,0,13.81,4.35,17,12L596.3,165c-4.3-10.16-13.07-16.22-23.47-16.22a26.56,26.56,0,0,0,0,53.12c11.5,0,21.12-7.5,24.5-19.12l-6.72-2c-2.53,8.69-9.34,14.08-17.78,14.08a19.56,19.56,0,0,1,0-39.12Z"/><polygon class="cls-1" points="515.99 148.65 502.15 148.65 502.15 155.65 508.99 155.65 508.99 194.96 481.79 194.96 481.79 201.96 542.42 201.96 542.42 194.96 515.99 194.96 515.99 148.65"/><path class="cls-1" d="M346.58,174.74h-.14c0,11.09-7.74,20.11-17.25,20.11s-17.24-9-17.24-20.11V148.52h-7v26.22c0,14.95,10.87,27.11,24.24,27.11a23,23,0,0,0,17.39-8.24v8.32h7V155.62h6.84v-7H346.58Z"/><polygon class="cls-1" points="455.45 127.28 441.62 127.28 441.62 134.28 448.45 134.28 448.45 194.96 421.04 194.96 421.04 201.96 481.67 201.96 481.67 194.96 455.45 194.96 455.45 127.28"/><rect class="cls-1" x="502.15" y="134.84" width="12.92" height="7"/><path class="cls-1" d="M272.72,148.63a26.49,26.49,0,0,0-20,9.15v-9.32H238.85v7h6.84v68h7V192.59a26.55,26.55,0,1,0,20-44Zm0,46.12a19.56,19.56,0,1,1,19.57-19.56A19.59,19.59,0,0,1,272.72,194.75Z"/><path class="cls-1" d="M695.63,202.17c16.77,0,27.25-6,27.45-15.8a11.61,11.61,0,0,0-2.69-8.71c-4-4.94-11.89-7.44-23.36-7.44-13.48,0-17.49-2.62-18.59-3.75a1.64,1.64,0,0,1-.53-.86l.07-.22v-.5c0-5,9.65-9.07,17.65-9.07,10.18,0,20.45,2.81,20.45,9.07h7c0-9.91-10.52-16.07-27.45-16.07a35.51,35.51,0,0,0-15.63,3.7c-5.68,2.95-8.87,7.21-9,12a7.75,7.75,0,0,0,1.62,5.86c3.46,4.59,11.45,6.82,24.43,6.82,12,0,16.3,3,17.82,4.73a4.77,4.77,0,0,1,1.3,3.44l-.07.25v.45c0,6.27-10.27,9.08-20.45,9.08-16.42,0-17.34-6.93-17.68-9.54l-.41-3H664.15v7h7.5C674.15,197.94,682.2,202.17,695.63,202.17Z"/><path class="cls-1" d="M997.26,201.8c11.5,0,21.12-7.51,24.5-19.12l-6.72-2c-2.53,8.69-9.34,14.08-17.78,14.08a19.56,19.56,0,1,1,0-39.12c7.61,0,13.81,4.35,17,11.95l6.44-2.73c-4.29-10.16-13.07-16.22-23.47-16.22a26.56,26.56,0,1,0,0,53.12Z"/><polygon class="cls-1" points="940.42 148.56 926.58 148.56 926.58 155.56 933.42 155.56 933.42 194.87 906.22 194.87 906.22 201.87 966.85 201.87 966.85 194.87 940.42 194.87 940.42 148.56"/><path class="cls-1" d="M811.58,202.33a26.49,26.49,0,0,0,20.13-9.27v9.29h7V156.21h6.84v-7H831.71v9.27a26.55,26.55,0,1,0-20.13,43.85Zm0-46.12A19.56,19.56,0,1,1,792,175.77,19.58,19.58,0,0,1,811.58,156.21Z"/><path class="cls-1" d="M757.47,195.05c-18.21,0-18.9-13.92-18.92-15.51V155.81h28.53v-7H738.55V127.1H724.71v7h6.84v45.46c0,.22.3,22.49,25.92,22.49,13.19,0,19.56-5.76,22.59-10.58a21.88,21.88,0,0,0,3.34-10.8l-7,0C776.38,182.12,775.67,195.05,757.47,195.05Z"/><rect class="cls-1" x="926.58" y="134.75" width="12.92" height="7"/><path class="cls-1" d="M878.73,195.05c-18.22,0-18.91-13.92-18.92-15.51V155.81h28.52v-7H859.81V127.1H846v7h6.84v45.46c0,.22.29,22.49,25.92,22.49,13.18,0,19.56-5.76,22.58-10.58a21.77,21.77,0,0,0,3.34-10.8l-7,0C897.63,182.12,896.92,195.05,878.73,195.05Z"/><path class="cls-2" d="M1296.83,201.93a26.49,26.49,0,0,0,20-9.15V202h7V134.13h6.84v-7h-13.84V158a26.55,26.55,0,1,0-20,44Zm0-46.12a19.56,19.56,0,1,1-19.56,19.56A19.59,19.59,0,0,1,1296.83,155.81Z"/><polygon class="cls-2" points="1243.65 148.56 1229.81 148.56 1229.81 155.56 1236.65 155.56 1236.65 194.87 1209.45 194.87 1209.45 201.87 1270.07 201.87 1270.07 194.87 1243.65 194.87 1243.65 148.56"/><rect class="cls-2" x="1229.81" y="134.75" width="12.92" height="7"/><path class="cls-2" d="M1179,201.94a26.56,26.56,0,1,0-26.56-26.56A26.59,26.59,0,0,0,1179,201.94Zm0-46.12a19.56,19.56,0,1,1-19.56,19.56A19.58,19.58,0,0,1,1179,155.82Z"/><polygon class="cls-2" points="1115.98 194.29 1095.89 148.43 1088.25 148.43 1111.65 201.84 1112.65 201.84 1119.29 201.84 1120.31 201.84 1140.72 155.54 1148.78 155.54 1148.78 148.54 1136.16 148.54 1115.98 194.29"/><path class="cls-3" d="M1604.36,148.71a23,23,0,0,0-17.25,8.08v-8.15h-13.83v7h6.83v46.47h7V175.83c0-11.1,7.74-20.12,17.25-20.12s17.24,9,17.24,20.12v26.22h7V175.83C1628.6,160.87,1617.73,148.71,1604.36,148.71Z"/><polygon class="cls-3" points="1546.85 148.84 1533.01 148.84 1533.01 155.84 1539.85 155.84 1539.85 195.14 1512.65 195.14 1512.65 202.14 1573.28 202.14 1573.28 195.14 1546.85 195.14 1546.85 148.84"/><path class="cls-3" d="M1478.61,202.21a26.49,26.49,0,0,0,20.13-9.27v9.3h7V156.09h6.84v-7h-13.84v9.27a26.55,26.55,0,1,0-20.13,43.85Zm0-46.12A19.56,19.56,0,1,1,1459,175.65,19.58,19.58,0,0,1,1478.61,156.09Z"/><path class="cls-3" d="M1398.53,202h7V175.78c0-12.3,4.8-20.14,8.1-20.14s8.09,7.84,8.09,20.14V202h7V175.78c0-12.3,4.79-20.14,8.09-20.14s8.09,7.84,8.09,20.14V202h7V175.78c0-15.47-6.49-27.14-15.09-27.14-4.76,0-8.87,3.57-11.59,9.38-2.73-5.81-6.84-9.38-11.59-9.38a10.93,10.93,0,0,0-8.1,4v-4H1391.7v7h6.83Z"/><rect class="cls-3" x="1533.01" y="135.03" width="12.92" height="7"/><path class="cls-4" d="M2455.84,170.49c-13.48,0-17.49-2.62-18.59-3.75a1.67,1.67,0,0,1-.53-.85l.07-.23v-.49c0-5,9.65-9.08,17.65-9.08,10.18,0,20.45,2.81,20.45,9.08h7c0-9.92-10.52-16.08-27.45-16.08a35.51,35.51,0,0,0-15.63,3.7c-5.68,3-8.87,7.21-9,12a7.75,7.75,0,0,0,1.62,5.86c3.46,4.59,11.45,6.82,24.43,6.82,11.95,0,16.3,3,17.82,4.73a4.77,4.77,0,0,1,1.3,3.44l-.07.25v.45c0,6.27-10.27,9.08-20.45,9.08-16.43,0-17.34-6.93-17.68-9.53l-.41-3H2423v7h7.5c2.5,8.35,10.55,12.58,24,12.58,16.77,0,27.25-6.05,27.45-15.8a11.62,11.62,0,0,0-2.69-8.71C2475.18,173,2467.31,170.49,2455.84,170.49Z"/><polygon class="cls-2" points="1911.4 149.11 1897.56 149.11 1897.56 156.11 1904.4 156.11 1904.4 195.42 1877.2 195.42 1877.2 202.42 1937.83 202.42 1937.83 195.42 1911.4 195.42 1911.4 149.11"/><path class="cls-2" d="M2044.81,158.4a26.56,26.56,0,1,0,0,34.67v8.25c0,1.59-.71,15.5-18.92,15.5S2007,203.9,2007,202.45h-7a21.88,21.88,0,0,0,3.34,10.8c3,4.82,9.4,10.57,22.59,10.57,25.62,0,25.92-22.26,25.92-22.48V155.88h6.84v-7h-13.84Zm-20.1,36.89a19.56,19.56,0,1,1,19.56-19.56A19.58,19.58,0,0,1,2024.71,195.29Z"/><path class="cls-4" d="M2408.69,158.74a26.56,26.56,0,1,0,0,34.66v8.26c0,1.58-.71,15.5-18.92,15.5s-18.9-12.92-18.93-14.37h-7a21.91,21.91,0,0,0,3.34,10.8c3,4.82,9.4,10.57,22.59,10.57,25.62,0,25.92-22.26,25.92-22.48V156.22h6.84v-7h-13.84Zm-20.1,36.89a19.56,19.56,0,1,1,19.56-19.56A19.58,19.58,0,0,1,2388.59,195.63Z"/><path class="cls-2" d="M1788.39,195.77c-18.21,0-18.9-13.92-18.92-15.51V156.53H1798v-7h-28.53v-21.7h-13.84v7h6.84v45.45c0,.23.3,22.49,25.92,22.49,13.19,0,19.56-5.75,22.59-10.58a21.79,21.79,0,0,0,3.33-10.79l-7,0C1807.29,182.85,1806.59,195.77,1788.39,195.77Z"/><rect class="cls-2" x="1897.56" y="135.3" width="12.92" height="7"/><path class="cls-2" d="M1944.19,202.39h7V176.1c0-11.09,7.73-20.11,17.24-20.11s17.24,9,17.24,20.11v26.23h7V176.1c0-14.95-10.87-27.11-24.24-27.11a22.94,22.94,0,0,0-17.24,8.08v-8.15h-13.84v7h6.84Z"/><path class="cls-2" d="M1823.37,202.84h7V176.56c0-11.1,7.73-20.12,17.24-20.12s17.25,9,17.25,20.12h7c0-15-10.88-27.12-24.25-27.12a23,23,0,0,0-17.24,8.08v-8.14h-13.84v7h6.84Z"/><path class="cls-4" d="M2332.31,149.44a23,23,0,0,0-17.25,8.08v-8.14h-27.67v9.27a26.56,26.56,0,1,0,0,34.58v9.29h7V156.37h13.67v46.46h7V176.56c0-11.1,7.74-20.12,17.25-20.12s17.24,9,17.24,20.12h7C2356.55,161.6,2345.68,149.44,2332.31,149.44Zm-65.06,46.05a19.56,19.56,0,1,1,19.56-19.56A19.59,19.59,0,0,1,2267.25,195.49Z"/><path class="cls-2" d="M1746,155.61c-8-6.32-17.53-6.33-26.78-6.35-1.18,0-2.36,0-3.53,0-2.68,0-4.58-.67-5.63-1.9a6.15,6.15,0,0,1-1.14-4.32l0-.55c0-2.77,0-7.92,17.66-7.92,14.13,0,20.44,2.1,20.44,14.52h7c0-21.52-17.18-21.52-27.44-21.52-6.71,0-24.47,0-24.66,14.68a13,13,0,0,0,2.72,9.59c2.41,2.87,6.09,4.36,10.92,4.42,1.2,0,2.4,0,3.61,0,8.42,0,16.38,0,22.44,4.83,5.7,4.52,5.62,8.51,5.46,15.76,0,1.17,0,2.39,0,3.67,0,7.75-2.47,14.92-20.44,14.92-5.92,0-10.45-1.54-13.46-4.57a16.18,16.18,0,0,1-4.27-10.42V165.38h-14.31v7h7.31v8a23,23,0,0,0,6.22,15.33c4.39,4.46,10.61,6.72,18.51,6.72,18.46,0,27.44-7.17,27.44-21.92,0-1.22,0-2.4,0-3.52C1754.27,169.43,1754.42,162.28,1746,155.61Z"/><path class="cls-5" d="M1673.67,202.29l0-7c-.63,0-15.36-.84-15.36-31.75,0-28.61,14.73-29.33,15.35-29.35l0-7c-.91,0-22.31.41-22.31,36.35C1651.36,201.84,1672.76,202.29,1673.67,202.29Z"/><path class="cls-5" d="M1614.89,260.31l0-7c-.91,0-22.31.41-22.31,36.34,0,38.31,21.4,38.75,22.31,38.75v-7c-.15,0-15.31-.36-15.31-31.75C1599.54,261,1614.27,260.32,1614.89,260.31Z"/><path class="cls-5" d="M2500.5,127.19v7c.15,0,15.31.34,15.31,29.35,0,30.92-14.74,31.73-15.31,31.75v7h0c.63,0,6.25-.15,11.8-5.35,7-6.54,10.51-17.77,10.51-33.4C2522.81,127.61,2501.41,127.19,2500.5,127.19Z"/><path class="cls-5" d="M2199.19,253.6l0,7c.63,0,15.36.74,15.36,29.35,0,30.92-14.74,31.73-15.31,31.74v7h0c.63,0,6.25-.15,11.8-5.35,7-6.53,10.52-17.77,10.52-33.39C2221.51,254,2200.11,253.6,2199.19,253.6Z"/><polygon class="cls-5" points="2082.62 202.37 2096.46 202.37 2096.46 195.37 2089.62 195.37 2089.62 134.19 2096.46 134.19 2096.46 127.19 2082.62 127.19 2082.62 202.37"/><polygon class="cls-5" points="2140.49 134.19 2147.33 134.19 2147.33 195.37 2140.49 195.37 2140.49 202.37 2154.33 202.37 2154.33 127.19 2140.49 127.19 2140.49 134.19"/><path class="cls-5" d="M2631.68,160.37l.07-.35v-.37c0-19.59,6.45-25.21,9.89-25.46h5.44v-7h-5.51c-.48,0-4.63.13-8.71,4.2-5.28,5.27-8,14.52-8.11,27.5-.67.88-3.19,2.5-9.4,2.5v7c6.21,0,8.73,1.62,9.4,2.5.11,13,2.83,22.23,8.11,27.5,4.08,4.07,8.23,4.2,8.71,4.2h5.51v-7h-5.44c-3.44-.25-9.89-5.87-9.89-25.46v-.37l-.07-.35a8.33,8.33,0,0,0-3.15-4.52A8.33,8.33,0,0,0,2631.68,160.37Z"/><path class="cls-5" d="M744.93,43.69c.11,13,2.83,22.24,8.11,27.51,4.08,4.07,8.22,4.19,8.7,4.19h5.52v-7h-5.44c-3.44-.24-9.89-5.87-9.89-25.46v-.36l-.07-.36a8.35,8.35,0,0,0-3.15-4.51,8.36,8.36,0,0,0,3.15-4.52l.07-.36v-.36c0-19.59,6.45-25.21,9.89-25.46h5.44V0h-5.51c-.49,0-4.63.12-8.71,4.19-5.28,5.27-8,14.52-8.11,27.51-.67.87-3.2,2.5-9.4,2.5v7C741.73,41.2,744.26,42.82,744.93,43.69Z"/><path class="cls-5" d="M276.36,411.78c-.1-13-2.82-22.23-8.1-27.5-4.08-4.07-8.23-4.19-8.71-4.19H254v7h5.44c3.44.24,9.89,5.87,9.89,25.46v.36l.07.36a8.35,8.35,0,0,0,3.15,4.51,8.33,8.33,0,0,0-3.15,4.52l-.07.35V423c0,19.59-6.45,25.21-9.89,25.46H254v7h5.51c.48,0,4.63-.13,8.71-4.2,5.28-5.26,8-14.52,8.1-27.5.68-.87,3.2-2.5,9.41-2.5v-7C279.56,414.28,277,412.66,276.36,411.78Z"/><path class="cls-5" d="M35.87,538.31c-.1-13-2.83-22.24-8.11-27.5-4.09-4.09-8.24-4.21-8.71-4.2H13.54v7H19c3.44.25,9.89,5.87,9.89,25.46v.36l.08.36a8.28,8.28,0,0,0,3.14,4.52A8.31,8.31,0,0,0,29,548.82l-.08.36v.36c0,19.59-6.45,25.22-9.89,25.46H13.54v7H19c.47,0,4.63-.11,8.72-4.19,5.28-5.27,8-14.52,8.11-27.5.67-.88,3.2-2.5,9.4-2.5v-7C39.07,540.81,36.54,539.18,35.87,538.31Z"/><path class="cls-2" d="M508.28,75.1a26.47,26.47,0,0,0,20.1-9.23v8.25c0,1.59-.7,15.51-18.92,15.51s-18.9-12.92-18.92-14.37h-7a21.74,21.74,0,0,0,3.34,10.79c3,4.83,9.4,10.58,22.58,10.58,25.63,0,25.92-22.26,25.92-22.49V28.69h6.84v-7H528.38v9.52a26.55,26.55,0,1,0-20.1,43.89Zm0-46.12a19.56,19.56,0,1,1-19.56,19.56A19.58,19.58,0,0,1,508.28,29Z"/><polygon class="cls-2" points="569.42 68.22 542.22 68.22 542.22 75.22 602.85 75.22 602.85 68.22 576.42 68.22 576.42 21.92 562.58 21.92 562.58 28.92 569.42 28.92 569.42 68.22"/><rect class="cls-2" x="562.58" y="8.11" width="12.92" height="7"/><path class="cls-2" d="M609.64,75.2h7V48.91c0-11.09,7.74-20.12,17.24-20.12s17.25,9,17.25,20.12V75.13h7V48.91c0-14.95-10.88-27.12-24.25-27.12a23,23,0,0,0-17.24,8.08V21.73H602.8v7h6.84Z"/><path class="cls-2" d="M450.75,75a26.56,26.56,0,1,0-26.56-26.56A26.6,26.6,0,0,0,450.75,75Zm0-46.12a19.56,19.56,0,1,1-19.56,19.56A19.58,19.58,0,0,1,450.75,28.9Z"/><polygon class="cls-2" points="366.65 75.32 373.65 75.32 373.65 75.29 420.5 75.29 420.5 68.29 373.65 68.29 373.65 0.48 359.81 0.48 359.81 7.48 366.65 7.48 366.65 75.32"/><path class="cls-4" d="M637.37,296.61c-13.47,0-17.49-2.62-18.59-3.75a1.81,1.81,0,0,1-.53-.86l.07-.23v-.49c0-5,9.66-9.08,17.65-9.08,10.18,0,20.45,2.81,20.45,9.08h7c0-9.92-10.52-16.08-27.45-16.08a35.57,35.57,0,0,0-15.62,3.7c-5.69,3-8.88,7.21-9,12a7.73,7.73,0,0,0,1.62,5.85c3.46,4.59,11.45,6.83,24.43,6.83,12,0,16.3,3,17.83,4.72a4.76,4.76,0,0,1,1.29,3.45h0l-.07.25v.45c0,6.27-10.27,9.07-20.45,9.07-16.42,0-17.34-6.92-17.68-9.53l-.4-3h-13.4v7H612c2.51,8.35,10.55,12.57,24,12.57,16.78,0,27.25-6,27.45-15.8a11.61,11.61,0,0,0-2.68-8.7C656.71,299.11,648.84,296.61,637.37,296.61Z"/><path class="cls-3" d="M1363.63,275.1a23,23,0,0,0-17.24,8.08V275h-13.84v7h6.84V328.5h7V302.22c0-11.09,7.73-20.12,17.24-20.12s17.24,9,17.24,20.12v26.22h7V302.22C1387.87,287.27,1377,275.1,1363.63,275.1Z"/><path class="cls-3" d="M1242.38,275.35a23,23,0,0,0-17.25,8.08v-8.14h-13.84v7h6.84v46.47h7V302.47c0-11.09,7.74-20.12,17.25-20.12s17.24,9,17.24,20.12h7C1266.62,287.52,1255.75,275.35,1242.38,275.35Z"/><path class="cls-4" d="M831.74,275.3c-4.76,0-8.87,3.58-11.59,9.39-2.72-5.81-6.83-9.39-11.59-9.39a10.93,10.93,0,0,0-8.09,4v-4H786.63v7h6.84v46.4h7V302.45c0-12.3,4.79-20.15,8.09-20.15s8.09,7.85,8.09,20.15V328.7h7V302.45c0-12.3,4.79-20.15,8.09-20.15s8.09,7.85,8.09,20.15V328.7h7V302.45C846.83,287,840.35,275.3,831.74,275.3Z"/><path class="cls-4" d="M781.4,296.54l-2.06-4.86c-4.29-10.16-13.07-16.22-23.47-16.22a26.56,26.56,0,0,0,0,53.12c11.5,0,21.12-7.51,24.5-19.12l-6.72-2c-2.53,8.68-9.34,14.08-17.78,14.08a19.57,19.57,0,0,1-18.79-25Zm-25.53-14.08a17.42,17.42,0,0,1,14.24,7.09l-29.32,0A19.54,19.54,0,0,1,755.87,282.46Z"/><polygon class="cls-3" points="1306.16 275.48 1292.33 275.48 1292.33 282.48 1299.16 282.48 1299.16 321.79 1271.97 321.79 1271.97 328.79 1332.59 328.79 1332.59 321.79 1306.16 321.79 1306.16 275.48"/><path class="cls-4" d="M1015.24,301.57h-.14c0,11.09-7.73,20.11-17.24,20.11s-17.25-9-17.25-20.11V275.35h-7v26.22c0,14.95,10.88,27.11,24.25,27.11a23,23,0,0,0,17.38-8.24v8.32h7V282.45h6.84v-7h-13.84Z"/><path class="cls-4" d="M590.17,301.31H590a20,20,0,1,1-40,0V275.09h-7v26.22a26.93,26.93,0,0,0,47.1,18V328c0,1.58-.7,15.5-18.92,15.5s-18.9-12.92-18.92-14.37h-7a21.79,21.79,0,0,0,3.34,10.8c3,4.82,9.4,10.57,22.58,10.57,23.45,0,25.69-18.62,25.9-22h0V282.19H604v-7H590.17Z"/><path class="cls-4" d="M697.82,321.43c-18.22,0-18.91-13.92-18.93-15.5V282.19h28.53v-7H678.89v-21.7H665.06v7h6.83v45.45c0,.23.3,22.49,25.93,22.49,13.18,0,19.55-5.75,22.58-10.58a21.86,21.86,0,0,0,3.34-10.79l-7,0C716.72,308.51,716,321.43,697.82,321.43Z"/><polygon class="cls-3" points="1488.21 253.86 1474.37 253.86 1474.37 260.86 1481.21 260.86 1481.21 321.53 1453.8 321.53 1453.8 328.53 1514.43 328.53 1514.43 321.53 1488.21 321.53 1488.21 253.86"/><rect class="cls-6" x="1292.33" y="261.67" width="12.92" height="7"/><path class="cls-4" d="M1078.6,314.14c-3,4.84-8.64,7.29-16.66,7.29-18.21,0-18.9-13.92-18.92-15.5V282.19h28.53v-7H1043v-21.7h-13.84v7H1036v45.45c0,.23.3,22.49,25.92,22.49,13.19,0,19.56-5.75,22.59-10.58a21.86,21.86,0,0,0,3.34-10.79h-7A15.26,15.26,0,0,1,1078.6,314.14Z"/><path class="cls-3" d="M1426.35,321.43c-18.22,0-18.9-13.92-18.92-15.5V282.19H1436v-7h-28.53v-21.7h-13.84v7h6.84v45.45c0,.23.3,22.49,25.92,22.49,13.18,0,19.56-5.75,22.59-10.58a21.79,21.79,0,0,0,3.33-10.79l-7,0C1445.25,308.51,1444.55,321.43,1426.35,321.43Z"/><path class="cls-3" d="M1545.58,275.1a23,23,0,0,0-17.24,8.08V275H1514.5v7h6.84V328.5h7V302.22c0-11.09,7.74-20.12,17.24-20.12s17.25,9,17.25,20.12v26.22h7V302.22C1569.83,287.27,1559,275.1,1545.58,275.1Z"/><path class="cls-4" d="M937.77,275.46A26.56,26.56,0,1,0,964.33,302,26.58,26.58,0,0,0,937.77,275.46Zm0,46.12A19.56,19.56,0,1,1,957.33,302,19.58,19.58,0,0,1,937.77,321.58Z"/><path class="cls-3" d="M1184.54,275.46a26.52,26.52,0,0,0-20,9.15v-9.32h-13.83v7h6.83v68h7V319.42a26.55,26.55,0,1,0,20-44Zm0,46.12A19.56,19.56,0,1,1,1204.1,302,19.59,19.59,0,0,1,1184.54,321.58Z"/><path class="cls-4" d="M533.17,281.72c-8-6.32-17.53-6.33-26.78-6.34l-3.53,0c-2.68,0-4.58-.68-5.63-1.9a6.18,6.18,0,0,1-1.14-4.33l0-.55c0-2.76,0-7.91,17.65-7.91,14.14,0,20.45,2.09,20.45,14.51h7c0-21.51-17.18-21.51-27.45-21.51-6.7,0-24.46,0-24.65,14.68a13,13,0,0,0,2.72,9.58c2.41,2.88,6.09,4.36,10.92,4.43l3.61,0c8.42,0,16.38,0,22.44,4.82,5.7,4.52,5.62,8.52,5.46,15.77,0,1.17,0,2.39,0,3.66,0,7.75-2.47,14.92-20.45,14.92-5.91,0-10.44-1.54-13.45-4.57a16.08,16.08,0,0,1-4.27-10.41V291.49H481.75v7h7.31v8a23.06,23.06,0,0,0,6.22,15.33c4.39,4.45,10.61,6.71,18.5,6.71,18.47,0,27.45-7.17,27.45-21.92,0-1.22,0-2.39,0-3.52C541.44,295.54,541.59,288.4,533.17,281.72Z"/><rect class="cls-7" x="2087.14" y="315.88" width="7" height="12.92"/><rect class="cls-5" x="873.7" y="315.84" width="7" height="12.92"/><rect class="cls-5" x="1116.85" y="315.84" width="7" height="12.92"/><rect class="cls-5" x="2269.25" y="275.47" width="7" height="12.92"/><path class="cls-5" d="M2266.25,308.79h5.9c-.48,8.94-2.7,16.84-4.94,16.84v7c5.48,0,9.16-5,10.91-14.81a80.51,80.51,0,0,0,1.13-12.53v-3.5h-13Z"/><rect class="cls-7" x="2087.14" y="253.8" width="7" height="56.66"/><rect class="cls-7" x="1658.05" y="253.42" width="7" height="31.01"/><rect class="cls-7" x="1670.65" y="253.42" width="7" height="31.01"/><rect class="cls-7" x="2143.47" y="253.72" width="7" height="31.01"/><rect class="cls-7" x="2156.07" y="253.72" width="7" height="31.01"/><path class="cls-7" d="M1702.53,272.87v7h4.82v8.67c0,4.4,0,6.82,1.73,8.73,1.87,2.07,4.45,2.07,8.35,2.07h32.21v-7h-32.21c-1.07,0-2.25,0-3,0-.07-.88-.07-2.33-.07-3.75v-8.67h35.16v-26h-46.86v7h39.86v12Z"/><polygon class="cls-7" points="2033.83 269.18 2026.83 269.18 2026.83 288.08 2004.1 288.08 2004.1 295.08 2056.44 295.08 2056.44 288.08 2033.83 288.08 2033.83 269.18"/><polygon class="cls-7" points="1730.2 304.48 1723.2 304.48 1723.2 321.92 1700.53 321.92 1700.53 328.92 1752.87 328.92 1752.87 321.92 1730.2 321.92 1730.2 304.48"/><rect class="cls-7" x="1761.15" y="321.92" width="52.34" height="7"/><path class="cls-7" d="M2030.32,296.89c-13.92,0-24.82,7.06-24.82,16.08s10.9,16.08,24.82,16.08,24.83-7.06,24.83-16.08S2044.24,296.89,2030.32,296.89Zm0,25.16c-10.5,0-17.82-4.78-17.82-9.08s7.32-9.08,17.82-9.08,17.83,4.78,17.83,9.08S2040.83,322.05,2030.32,322.05Z"/><polygon class="cls-7" points="1995.83 297.55 1995.83 253.79 1984.01 253.79 1984.01 260.79 1988.83 260.79 1988.83 272.12 1978.29 272.12 1978.29 279.12 1988.83 279.12 1988.83 297.55 1995.83 297.55"/><polygon class="cls-7" points="1874.26 297.55 1874.26 253.79 1862.43 253.79 1862.43 260.79 1867.26 260.79 1867.26 297.55 1874.26 297.55"/><path class="cls-7" d="M1840.27,298.18c9.8,0,17.78-10,17.78-22.19s-8-22.2-17.78-22.2-17.79,10-17.79,22.2S1830.46,298.18,1840.27,298.18Zm0-37.39c5.84,0,10.78,7,10.78,15.2s-4.94,15.19-10.78,15.19-10.79-7-10.79-15.19S1834.42,260.79,1840.27,260.79Z"/><path class="cls-7" d="M1835.35,322c-.07-.88-.07-2.33-.07-3.74V301h-11.83v7h4.83v10.28c0,4.39,0,6.81,1.73,8.73s4.44,2.06,8.35,2.06h36v-7h-36C1837.28,322.05,1836.11,322.05,1835.35,322Z"/><polygon class="cls-7" points="1810.07 301.15 1810.07 253.84 1765.06 253.84 1765.06 260.84 1803.07 260.84 1803.07 301.15 1810.07 301.15"/><polygon class="cls-7" points="2052.03 281.02 2052.03 253.84 2007.02 253.84 2007.02 260.84 2045.03 260.84 2045.03 281.02 2052.03 281.02"/><path class="cls-7" d="M1972,296.89c-13.92,0-24.83,7.06-24.83,16.08s10.91,16.08,24.83,16.08S1996.8,322,1996.8,313,1985.9,296.89,1972,296.89Zm0,25.16c-10.51,0-17.83-4.78-17.83-9.08s7.32-9.08,17.83-9.08,17.82,4.78,17.82,9.08S1982.48,322.05,1972,322.05Z"/><path class="cls-7" d="M1962.26,281.37c3,5.48,8.74,11.38,19.86,11.38v-7c-6.76,0-11.38-2.8-14.15-8.57a25.66,25.66,0,0,1-2.3-9.49h0V253.84h-11.83v7h4.83v7a24.92,24.92,0,0,1-2.2,9.46c-2.72,5.75-7.38,8.55-14.26,8.55v7c6.67,0,12.11-2.09,16.19-6.19A22.67,22.67,0,0,0,1962.26,281.37Z"/></g></g></svg>