<svg xmlns="http://www.w3.org/2000/svg" viewBox="0 0 545.36 193.05"><defs><style>.cls-1{fill:#fff;filter: drop-shadow(0px 0px 5px rgba(0, 0, 0, 1));}.cls-2{fill:#00ff97;filter: drop-shadow(0px 0px 5px rgba(0, 0, 0, 1));}</style></defs><g id="Layer_2" data-name="Layer 2"><g id="Layer_1-2" data-name="Layer 1"><rect class="cls-1" x="60.63" width="60.63" height="96.53"/><rect class="cls-1" x="181.88" width="60.63" height="96.53"/><rect class="cls-2" x="242.51" width="60.63" height="96.53"/><rect class="cls-2" width="60.63" height="96.53"/><rect class="cls-2" x="121.25" width="60.63" height="96.53"/><rect class="cls-1" x="424.11" width="60.63" height="96.53"/><rect class="cls-2" x="363.73" width="60.63" height="96.53"/><rect class="cls-2" x="484.74" width="60.63" height="96.53"/><rect class="cls-1" x="303.13" width="60.63" height="96.53"/><rect class="cls-2" x="60.63" y="96.53" width="60.63" height="96.53"/><rect class="cls-2" x="181.88" y="96.53" width="60.63" height="96.53"/><rect class="cls-1" x="242.51" y="96.53" width="60.63" height="96.53"/><rect class="cls-1" y="96.53" width="60.63" height="96.53"/><rect class="cls-1" x="121.25" y="96.53" width="60.63" height="96.53"/><rect class="cls-1" x="484.74" y="96.53" width="60.63" height="96.53"/><rect class="cls-2" x="303.13" y="96.53" width="60.63" height="96.53"/><path d="M455.19,21.6A23,23,0,0,0,438,29.68V21.53H424.11v7H431V75h7V48.71c0-11.09,7.73-20.11,17.24-20.11s17.25,9,17.25,20.11V74.94h7V48.71C479.44,33.76,468.56,21.6,455.19,21.6Z"/><path d="M152,21.35a23,23,0,0,0-17.24,8.08v-8H107.07V47.56c0,11.09-7.73,20.12-17.24,20.12s-17.25-9-17.25-20.12V21.34h-7V47.56c0,14.95,10.88,27.12,24.25,27.12a23,23,0,0,0,17.24-8.08v8.15h7V28.44h13.68V74.75h7V48.46c0-11.09,7.73-20.11,17.24-20.11s17.25,9,17.25,20.11h7C176.24,33.51,165.36,21.35,152,21.35Z"/><path d="M394,21.7A26.56,26.56,0,1,0,420.6,48.26,26.6,26.6,0,0,0,394,21.7Zm0,46.12A19.56,19.56,0,1,1,413.6,48.26,19.58,19.58,0,0,1,394,67.82Z"/><path d="M515,21.7a26.56,26.56,0,1,0,26.56,26.56A26.59,26.59,0,0,0,515,21.7Zm0,46.12a19.56,19.56,0,1,1,19.56-19.56A19.58,19.58,0,0,1,515,67.82Z"/><path d="M227.91,47.56c0,11.09-7.74,20.12-17.24,20.12s-17.25-9-17.25-20.12V21.34h-7V47.56c0,14.95,10.88,27.12,24.25,27.12a23,23,0,0,0,17.24-8.08v8.15h7V28.44h6.84v-7H227.91Z"/><path d="M31.49,0H0V7H6.84V74.87h7v0H31.49c13.69,0,24.42-16.43,24.42-37.41S45.18,0,31.49,0Zm0,67.81H13.84V7H31.49C40.93,7,48.91,21,48.91,37.44S40.93,67.85,31.49,67.85Z"/><polygon points="336.75 21.4 316.97 0.04 316.97 0.02 316.95 0.02 316.93 0 308 0 307.97 0.02 303.13 0.02 303.13 7.02 309.97 7.02 309.97 75.13 316.97 75.13 316.97 10.35 336.89 31.84 356.72 9.28 356.72 75.13 363.72 75.13 363.72 0 355.56 0 336.75 21.4"/><path d="M10,123.23c0,4.39,0,6.81,1.73,8.72C13.64,134,16.21,134,20.12,134H52.33v-7H20.12c-1.08,0-2.25,0-3,0-.07-.9-.07-2.39-.07-3.74V103.52H52.33v-7H5.2v7H10Z"/><path d="M71.65,125.23c0,4.39,0,6.81,1.73,8.72C75.25,136,77.83,136,81.73,136h32.21v-7H81.73c-1.07,0-2.25,0-3-.05-.07-.88-.07-2.33-.07-3.74v-5.67h35.16v-23H67v7h39.86v9h-40v7h4.82Z"/><polygon points="4.2 145.55 26.98 145.55 26.98 171.65 33.98 171.65 33.98 145.55 56.54 145.55 56.54 138.55 4.2 138.55 4.2 145.55"/><polygon points="64.83 147.55 87.61 147.55 87.61 171.65 94.61 171.65 94.61 147.55 117.17 147.55 117.17 140.55 64.83 140.55 64.83 147.55"/><path d="M189.86,125.1c0,9.7.93,12,10.08,12h35.71V96.52H185v7h4.84Zm7-21.58h31.79v26.55H199.94c-1.07,0-2.23,0-3-.06-.12-1-.12-3-.12-4.91Z"/><path d="M253.47,125.27c0,4.4,0,6.82,1.73,8.73,1.87,2.07,4.45,2.07,8.35,2.07h32.21v-7H263.55c-1.07,0-2.24,0-3-.06-.08-.89-.08-2.38-.08-3.74V96.52H248.65v7h4.82Z"/><polygon points="215.75 142.1 208.75 142.1 208.75 164.91 186.02 164.91 186.02 171.91 208.75 171.91 208.75 171.92 215.75 171.92 215.75 171.91 238.36 171.91 238.36 164.91 215.75 164.91 215.75 142.1"/><polygon points="276.41 142.1 269.41 142.1 269.41 164.91 246.68 164.91 246.68 171.91 269.41 171.91 269.41 171.92 276.41 171.92 276.41 171.91 299.02 171.91 299.02 164.91 276.41 164.91 276.41 142.1"/><rect x="307.28" y="164.91" width="52.34" height="7"/><path d="M333.48,126.45a24.88,24.88,0,0,0,4.56,6.42c4.6,4.64,10.78,7,18.36,7v-7c-5.63,0-10.12-1.65-13.35-4.89-6.07-6.09-6.1-16-6.1-16.1V96.52H325.12v7H330V112c0,.1,0,9.91-6.07,16.06-3.24,3.26-7.74,4.92-13.39,4.92v7c7.59,0,13.76-2.35,18.36-7A25.72,25.72,0,0,0,333.48,126.45Z"/><rect x="489.16" y="164.91" width="52.34" height="7"/><path d="M515.36,126.45a24.88,24.88,0,0,0,4.56,6.42c4.6,4.64,10.78,7,18.36,7v-7c-5.63,0-10.12-1.65-13.35-4.89-6.07-6.09-6.1-16-6.1-16.1V96.52H507v7h4.83V112c0,.1,0,9.91-6.07,16.06-3.24,3.26-7.74,4.92-13.39,4.92v7c7.59,0,13.76-2.35,18.36-7A25.72,25.72,0,0,0,515.36,126.45Z"/><rect class="cls-1" x="363.73" y="96.53" width="60.63" height="96.53"/><rect class="cls-2" x="424.36" y="96.53" width="60.63" height="96.53"/><path d="M392,103.53h5.29v-7H365.87v7h5.38v60.8h-5.38v7h31.44v-7H392Zm-13.77,0H385v60.8h-6.77Z"/><polygon points="400.76 103.53 405.58 103.53 405.58 127.85 395.04 127.85 395.04 134.85 405.58 134.85 405.58 171.93 412.58 171.93 412.58 96.53 400.76 96.53 400.76 103.53"/><polygon points="469.15 96.53 469.15 103.53 473.98 103.53 473.98 171.93 480.98 171.93 480.98 96.53 469.15 96.53"/><rect x="415.67" y="96.53" width="7" height="75.4"/><path d="M447,96.53c-11.55,0-17.79,19.27-17.79,37.4s6.24,37.4,17.79,37.4,17.78-19.27,17.78-37.4S458.54,96.53,447,96.53Zm0,67.8c-4.4,0-10.79-11.84-10.79-30.4s6.39-30.4,10.79-30.4,10.78,11.84,10.78,30.4S451.38,164.33,447,164.33Z"/></g></g></svg>