<svg xmlns="http://www.w3.org/2000/svg" viewBox="0 0 434.41 220.7"><defs><style>.cls-1{fill:#fff;}.cls-2{fill:#00ff97;opacity:0.3;}.cls-3{fill:none;stroke:#fff;stroke-miterlimit:10;stroke-width:7px;}</style></defs><g id="Layer_2" data-name="Layer 2"><g id="Layer_1-2" data-name="Layer 1"><path class="cls-1" d="M128.66,58l-2.06-4.86c-4.29-10.16-13.07-16.22-23.47-16.22a26.56,26.56,0,0,0,0,53.12c11.5,0,21.12-7.5,24.5-19.12l-6.72-2C118.38,77.6,111.57,83,103.13,83A19.57,19.57,0,0,1,84.34,58ZM103.13,43.87A17.42,17.42,0,0,1,117.37,51L88.05,51A19.54,19.54,0,0,1,103.13,43.87Z"/><path class="cls-1" d="M315.1,36.86H301.58V63h-.15c0,11.09-7.73,20.11-17.24,20.11S267,74.07,267,63V36.76h-7V63c0,15,10.87,27.11,24.24,27.11a23,23,0,0,0,17.39-8.24v8.32h7V43.86h6.52Z"/><path class="cls-1" d="M240.64,46.41a26.56,26.56,0,1,0,0,34.58v9.3h7V44.14h6.83v-7H240.64ZM220.5,83.26A19.56,19.56,0,1,1,240.06,63.7,19.58,19.58,0,0,1,220.5,83.26Z"/><path class="cls-1" d="M58.69,45.88a26.56,26.56,0,1,0,0,34.82v9.18h7V22.05h6.84v-7H58.69Zm-20,37A19.56,19.56,0,1,1,58.21,63.29,19.58,19.58,0,0,1,38.65,82.85Z"/><path class="cls-1" d="M427.41,68.72a15.09,15.09,0,0,1-2.27,7.08c-3,4.84-8.64,7.29-16.65,7.29-18.22,0-18.91-13.91-18.93-15.5V43.86h28.53v-7H389.56V15.15H375.73v7h6.83V67.61c0,.22.3,22.48,25.93,22.48,13.18,0,19.56-5.75,22.58-10.57a21.77,21.77,0,0,0,3.34-10.8Z"/><polygon class="cls-1" points="349.43 15.52 335.6 15.52 335.6 22.52 342.43 22.52 342.43 83.19 315.1 83.19 315.1 90.19 375.65 90.19 375.65 83.19 349.43 83.19 349.43 15.52"/><path class="cls-1" d="M166.18,15.46a28.05,28.05,0,0,0-16.09,5.39c-5.52,4.07-8.56,9.75-8.56,16v.3h-8.38v7h8.38v46h7v-46h35v-7h-35v-.3c0-9.26,10.44-14.38,17.65-14.38,9.89,0,20.45,3.78,20.45,14.38h7C193.63,23.85,182.85,15.46,166.18,15.46Z"/><circle class="cls-2" cx="65.77" cy="18.38" r="18.38"/><circle class="cls-2" cx="245.2" cy="41.15" r="18.38"/><circle class="cls-2" cx="307.38" cy="41.15" r="18.38"/><circle class="cls-2" cx="342.03" cy="19.86" r="18.38"/><circle class="cls-2" cx="382.87" cy="19.86" r="18.38"/><line class="cls-3" x1="74.78" y1="180.21" x2="130.51" y2="180.21"/><line class="cls-3" x1="102.7" y1="168.82" x2="102.7" y2="183.72"/><line class="cls-3" x1="137.07" y1="214.78" x2="189.41" y2="214.78"/><line class="cls-3" x1="145.41" y1="165.3" x2="184.2" y2="165.3"/><path class="cls-3" d="M145.41,148.31V177c0,7.29,0,7.29,6.58,7.29H184.2"/><line class="cls-3" x1="137.07" y1="146.74" x2="184.2" y2="146.74"/><polyline class="cls-3" points="56.47 146.7 64.79 146.7 64.79 218.6"/><path class="cls-3" d="M23.36,146.75v61c0,7.3,0,7.3,6.58,7.3H50.15"/><line class="cls-3" x1="15.02" y1="146.7" x2="50.15" y2="146.7"/><path class="cls-3" d="M86.79,204.86v2.63c0,7.29,0,7.29,6.58,7.29h32.21"/><polyline class="cls-3" points="78.59 190.28 121.95 190.28 121.95 202.32 78.47 202.32"/><line class="cls-3" x1="78.57" y1="146.75" x2="126.66" y2="146.75"/><line class="cls-3" x1="78.57" y1="166.2" x2="126.66" y2="166.2"/><line class="cls-3" x1="90.18" y1="167.2" x2="90.18" y2="147.2"/><line class="cls-3" x1="115.95" y1="167.2" x2="115.95" y2="147.2"/><circle class="cls-2" cx="62.62" cy="146.7" r="18.38"/><circle class="cls-2" cx="140.33" cy="146.7" r="18.38"/><circle class="cls-2" cx="18.38" cy="146.7" r="18.38"/><circle class="cls-2" cx="84.15" cy="202.32" r="18.38"/></g></g></svg>