<svg xmlns="http://www.w3.org/2000/svg" viewBox="0 0 686.2 212.53"><defs><style>.cls-1{fill:#fff;}</style></defs><g id="Layer_2" data-name="Layer 2"><g id="_π_ÃæÓ_1" data-name="∑π¿ÃæÓ 1"><path class="cls-1" d="M431.35,61.09c-19.12,0-36.43,8.78-48.9,22.91V61.36H343.21V81.21H362.6V212.53h19.85V138c0-31.46,21.93-57.05,48.9-57.05s48.9,25.59,48.9,57.05H500.1C500.1,95.59,469.25,61.09,431.35,61.09Z"/><path class="cls-1" d="M304,61.36v74.07c0,31.45-21.94,57-48.9,57s-48.9-25.59-48.9-57V61.07H186.32v74.36c0,42.4,30.84,76.89,68.75,76.89,19.11,0,36.42-8.78,48.9-22.91v23.12h19.85V81.21h19.39V61.36Z"/><path class="cls-1" d="M647,61.36v74.07c0,31.45-21.93,57-48.9,57s-48.9-25.59-48.9-57V61.07H529.31v74.36c0,42.4,30.84,76.89,68.75,76.89,19.12,0,36.43-8.78,48.9-22.91v23.12h19.85V81.21H686.2V61.36Z"/><path class="cls-1" d="M89.29,0H0V19.85H19.39V212.22H39.24v-.08H89.29c38.84,0,69.26-46.59,69.26-106.07S128.13,0,89.29,0Zm0,192.29H39.24V19.85H89.29c26.79,0,49.41,39.48,49.41,86.22S116.08,192.29,89.29,192.29Z"/></g></g></svg>