<?xml version="1.0" encoding="utf-8"?>
<!-- Generator: Adobe Illustrator 26.0.1, SVG Export Plug-In . SVG Version: 6.00 Build 0)  -->
<svg version="1.1" id="Layer_1" xmlns="http://www.w3.org/2000/svg" xmlns:xlink="http://www.w3.org/1999/xlink" x="0px" y="0px"
	 viewBox="0 0 181.8 75.4" style="enable-background:new 0 0 181.8 75.4;" xml:space="preserve">
<style type="text/css">
	.st0{fill:#FFFFFF;}
</style>
<g id="Layer_2_00000129176377285888957080000000131790290728573346_">
	<g id="Layer_1-2">
		<path class="st0" d="M60.8,31.7h-7.5V0H40.4v8h4.9v42.4C38.4,52,24.4,55.1,17.5,56c-1.2,0.2-2.8,0.2-3.8-0.6
			c-0.7-0.8-1.2-1.8-1.2-2.9V39.7h23.6v-8H12.5V20.3h23.6v-8H0v8h4.5v32.1C4.6,55.8,6,59,8.5,61.3c2.2,1.8,5,2.8,7.8,2.7
			c0.8,0,1.5-0.1,2.3-0.2c6.7-0.9,19.3-3.6,26.6-5.3v16.8h8V39.7h7.5V31.7z"/>
		<polygon class="st0" points="120.9,75.4 112.9,75.4 112.9,8 108,8 108,0 120.9,0 		"/>
		<path class="st0" d="M85.8,60.8c-9.7,0-17.6-7.9-17.7-17.7V28.8c0-9.8,7.9-17.7,17.7-17.7s17.7,7.9,17.7,17.7v14.4
			C103.4,52.9,95.5,60.8,85.8,60.8z M85.8,19.1c-5.3,0-9.7,4.3-9.7,9.7v14.4c0,5.3,4.3,9.7,9.7,9.7c5.3,0,9.7-4.3,9.7-9.7V28.8
			C95.4,23.4,91.1,19.1,85.8,19.1z"/>
		<path class="st0" d="M166.5,34.6l-7.5,0.7V19.3h7.8v-8h-40.5v8h6.5v18.2l-6,0.5l0.7,8l39.6-3.4L166.5,34.6z M140.9,19.3h10.2V36
			l-10.2,0.9V19.3z"/>
		<path class="st0" d="M169,0v8h4.9v41.2c-1.8-0.8-3.8-1.2-5.8-1.2h-13c-7.6-0.2-13.9,5.8-14.1,13.4c-0.2,7.6,5.8,13.9,13.4,14.1
			c0.2,0,0.5,0,0.7,0h13c7.6,0,13.7-6.2,13.7-13.7V0H169z M168.1,67.4h-13c-3.2,0.1-5.9-2.3-6-5.5c-0.1-3.2,2.3-5.9,5.5-6
			c0.2,0,0.3,0,0.5,0h13c3.2,0.1,5.6,2.8,5.5,6C173.5,64.9,171.1,67.3,168.1,67.4z"/>
	</g>
</g>
</svg>
