<svg xmlns="http://www.w3.org/2000/svg" viewBox="0 0 1116.69 236.73"><defs><style>.cls-1{fill:#1A2033;filter: drop-shadow(0px 0px 5px rgba(0, 0, 0, 1));}.cls-2{fill:#fff;}</style></defs><g id="Layer_2" data-name="Layer 2"><g id="Layer_1-2" data-name="Layer 1"><rect class="cls-1" y="140.21" width="60.63" height="96.53"/><rect class="cls-1" y="0.01" width="60.63" height="96.53"/><polygon class="cls-2" points="60.39 215.19 60.39 140.21 53.39 140.21 53.39 203.92 14.01 140.54 13.91 140.6 13.91 140.37 0.07 140.37 0.07 147.37 6.91 147.37 6.91 215.21 13.91 215.21 13.91 153.64 52.16 215.21 53.39 215.21 53.39 215.21 60.39 215.21 60.39 215.21 60.4 215.21 60.39 215.19"/><path class="cls-2" d="M32.53,0H18.65V7h5.48L.07,75H7.5l6.28-17.75H46.83L53.1,75h7.43L34,0ZM16.25,50.26,30.31,10.51,44.36,50.26Z"/><rect class="cls-1" x="88.01" y="140.21" width="60.63" height="96.53"/><rect class="cls-1" x="88.01" y="0.01" width="60.63" height="96.53"/><path class="cls-2" d="M118.15,140.37c-16.51,0-29.95,16.67-29.95,37.15s13.44,37.15,30,37.15,29.94-16.66,29.94-37.15S134.66,140.37,118.15,140.37Zm0,67.3c-12.65,0-23-13.52-23-30.15s10.3-30.15,23-30.15,22.94,13.53,22.94,30.15S130.8,207.67,118.15,207.67Z"/><path class="cls-2" d="M132.66,23.24a13.38,13.38,0,0,0,3-8.6C135.67,7.71,130.84.3,117.29.3H87.89v7h6.83V75.13h3.5v0h26.14c14.73,0,23.89-10.19,23.89-26.58C148.25,35.52,142.45,26.42,132.66,23.24ZM117.29,7.3c4.25,0,11.38,1,11.38,7.34S121.54,22,117.29,22H101.72V7.3Zm7.07,60.85H101.72V29h22.64c6.3,0,16.89,2.54,16.89,19.58S130.66,68.15,124.36,68.15Z"/><rect class="cls-1" x="264.02" y="140.21" width="60.63" height="96.53"/><rect class="cls-1" x="264.02" y="0.01" width="60.63" height="96.53"/><path class="cls-2" d="M294.33,140.37c-16.51,0-29.95,16.67-29.95,37.15,0,19,11.59,34.74,26.47,36.89V228h13.83v-7h-6.83v-6.63c14.86-2.17,26.42-17.88,26.42-36.89C324.27,157,310.84,140.37,294.33,140.37Zm3.52,66.95V197.8h-7v9.53c-11-2.22-19.47-14.74-19.47-29.81,0-16.62,10.3-30.15,22.95-30.15s22.94,13.53,22.94,30.15C317.27,192.57,308.83,205.09,297.85,207.32Z"/><path class="cls-2" d="M297.73.3H264.08v7h6.84V75.13h7v0h19.81c14.64,0,26.56-16.78,26.56-37.41S312.37.3,297.73.3Zm0,67.81H277.92V7.3h19.81c10.6,0,19.56,13.92,19.56,30.4S308.33,68.11,297.73,68.11Z"/><rect class="cls-1" x="351.9" y="140.21" width="60.63" height="96.53"/><rect class="cls-1" x="351.9" y="0.01" width="60.63" height="96.53"/><path class="cls-2" d="M401.53,167.27c9.11-3.26,10-10,10-12.55,0-3.37-1.6-14.35-22.27-14.35H351.9v7h6.84v67.84h7V169.06h22.14a19.58,19.58,0,0,1,17.23,19.41v26.74h7V188.47A26.54,26.54,0,0,0,401.53,167.27Zm-12.26-19.9c9.56,0,15.27,2.75,15.27,7.35s-5.71,7.34-15.27,7.34h-.89a26.55,26.55,0,0,0-2.83-.15H365.74V147.37Z"/><polygon class="cls-2" points="365.83 28.77 412.53 28.77 412.53 21.77 365.83 21.77 365.83 7.29 412.53 7.29 412.53 0.29 365.83 0.29 362.33 0.29 351.99 0.29 351.99 7.29 358.83 7.29 358.83 75.13 365.83 75.13 365.83 75.11 412.65 75.11 412.65 68.11 365.83 68.11 365.83 28.77"/><rect class="cls-1" x="968.06" y="140.21" width="60.63" height="96.53"/><rect class="cls-1" x="968.06" y="0.01" width="60.63" height="96.53"/><polygon class="cls-2" points="1018.77 140.21 999.36 162.1 979.96 140.37 968.05 140.37 968.05 147.37 976.83 147.37 995.97 168.81 995.97 215.21 1002.97 215.21 1002.97 168.58 1028.13 140.21 1018.77 140.21"/><polygon class="cls-2" points="981.83 0.29 968 0.29 968 7.29 974.83 7.29 974.83 75.13 981.83 75.13 981.83 75.11 1028.68 75.11 1028.68 68.11 981.83 68.11 981.83 0.29"/><rect class="cls-1" x="616.04" y="140.21" width="60.63" height="96.53"/><rect class="cls-1" x="616" y="0.01" width="60.63" height="96.53"/><path class="cls-2" d="M669.12,192.26c0,.63-.22,15.48-18.92,15.48-18.2,0-18.91-12.92-18.93-14.37v-53H616v7h8.23v46c0,.21.3,21.37,25.93,21.37s25.92-22.26,25.92-22.48v-52h-7Z"/><polygon class="cls-2" points="669.45 21.77 629.87 21.77 629.87 0.29 616.03 0.29 616.03 7.29 622.87 7.29 622.87 75.13 629.87 75.13 629.87 28.77 669.45 28.77 669.45 75.13 676.45 75.13 676.45 0.01 669.45 0.01 669.45 21.77"/><rect class="cls-1" x="440.03" y="140.21" width="60.63" height="96.53"/><rect class="cls-1" x="440.03" y="0.01" width="60.63" height="96.53"/><path class="cls-2" d="M491.44,168.42c-8-6.31-17.53-6.33-26.78-6.34-1.18,0-2.36,0-3.54,0-2.68,0-4.57-.67-5.63-1.9a6.2,6.2,0,0,1-1.14-4.32l0-.55c0-2.77,0-7.92,17.65-7.92,14.14,0,20.45,2.1,20.45,14.51h7c0-21.51-17.18-21.51-27.45-21.51-6.71,0-24.46,0-24.65,14.68a13,13,0,0,0,2.71,9.59c2.42,2.87,6.09,4.36,10.92,4.42,1.21,0,2.41,0,3.62,0,8.42,0,16.38,0,22.44,4.83,5.7,4.52,5.61,8.51,5.46,15.76,0,1.17-.05,2.39-.05,3.67,0,7.75-2.48,14.92-20.45,14.92-5.91,0-10.44-1.54-13.46-4.57a16.18,16.18,0,0,1-4.27-10.42V178.2H440v7h7.31v8a23.16,23.16,0,0,0,6.23,15.33c4.38,4.46,10.61,6.72,18.5,6.72,18.47,0,27.45-7.17,27.45-21.92,0-1.23,0-2.4.05-3.52C499.71,182.25,499.86,175.1,491.44,168.42Z"/><polygon class="cls-2" points="450.35 0.29 440.01 0.29 440.01 7.29 446.85 7.29 446.85 75.13 453.85 75.13 453.85 28.77 500.65 28.77 500.65 21.77 453.85 21.77 453.85 7.29 500.65 7.29 500.65 0.29 453.85 0.29 450.35 0.29"/><rect class="cls-1" x="704.04" y="140.21" width="60.63" height="96.53"/><rect class="cls-1" x="704.04" y="0.01" width="60.63" height="96.53"/><polygon class="cls-2" points="735.69 203.55 716.98 140.37 704.03 140.37 704.03 147.37 711.75 147.37 731.84 215.21 739.18 215.21 764.17 140.21 756.79 140.21 735.69 203.55"/><polygon class="cls-2" points="724.02 0.29 709.26 0.29 709.26 7.29 724.02 7.29 730.85 7.29 730.85 68.11 709.2 68.11 709.2 75.11 730.85 75.11 730.85 75.13 737.85 75.13 737.85 75.11 759.51 75.11 759.51 68.11 737.85 68.11 737.85 7.29 759.57 7.29 759.57 0.29 737.85 0.29 724.02 0.29"/><rect class="cls-1" x="792.05" y="140.21" width="60.63" height="96.53"/><rect class="cls-1" x="792.05" y="0.01" width="60.63" height="96.53"/><polygon class="cls-2" points="838.57 203.41 829.68 161.88 822.53 161.88 814.15 204.05 805.44 140.37 792.04 140.37 792.04 147.37 799.33 147.37 808.61 215.21 819.07 215.21 826.23 179.19 833.94 215.21 844.3 215.21 852.67 140.21 845.63 140.21 838.57 203.41"/><path class="cls-2" d="M841.22.6H797.15v7h44.07v45c0,1.59-.7,15.51-18.92,15.51s-18.9-12.93-18.92-14.4l-3.5,0h-3.5c0,.22.29,21.38,25.92,21.38s25.92-22.27,25.92-22.49V.57h-7Z"/><rect class="cls-1" x="880.05" y="140.21" width="60.63" height="96.53"/><rect class="cls-1" x="880.05" y="0.01" width="60.63" height="96.53"/><polygon class="cls-2" points="932.3 140.21 912.25 171.31 892.29 140.37 880.05 140.37 880.05 147.37 888.48 147.37 908.08 177.76 883.93 215.21 892.26 215.21 912.25 184.22 932.23 215.21 940.56 215.21 916.41 177.76 940.63 140.21 932.3 140.21"/><path class="cls-2" d="M939.61,0H924L893.89,15.07V.3H880.05v7h6.84V75.13h7V28.77c10.2,0,29.37.13,36.07,6.8a7.32,7.32,0,0,1,2.28,5.51V75.13h7v-34a14.31,14.31,0,0,0-4.34-10.47c-8.24-8.2-26.25-8.84-38.77-8.84l.22-.1Z"/><rect class="cls-1" x="1056.06" y="140.21" width="60.63" height="96.53"/><rect class="cls-1" x="1056.06" y="0.01" width="60.63" height="96.53"/><polygon class="cls-2" points="1070.87 208.08 1116.68 140.15 1059.41 140.15 1059.41 147.15 1103.52 147.15 1057.7 215.08 1116.69 215.08 1116.69 208.08 1070.87 208.08"/><polygon class="cls-2" points="1108.49 0.01 1089.68 21.4 1069.9 0.05 1069.9 0.03 1069.88 0.03 1069.86 0.01 1060.92 0.01 1060.9 0.03 1056.06 0.03 1056.06 7.03 1062.9 7.03 1062.9 75.13 1069.9 75.13 1069.9 10.35 1089.82 31.85 1109.65 9.29 1109.65 75.13 1116.65 75.13 1116.65 0.01 1108.49 0.01"/><rect class="cls-1" x="528.03" y="140.21" width="60.63" height="96.53"/><rect class="cls-1" x="528.03" y="0.01" width="60.63" height="96.53"/><polygon class="cls-2" points="548.02 140.37 528.19 140.37 528.19 147.37 548.02 147.37 554.86 147.37 554.86 215.21 561.86 215.21 561.86 147.37 588.66 147.37 588.66 140.37 561.86 140.37 548.02 140.37"/><path class="cls-2" d="M548.86,50.53h30.71C575.83,61.26,568.25,68,559.47,68,546.51,68,536,54.31,536,37.51S546.51,7.05,559.47,7.05c8.16,0,15.66,5.63,19.88,14.64h7.57C581.94,8.5,571.32.05,559.47.05,542.65.05,529,16.86,529,37.51S542.65,75,559.47,75c13.28,0,24.33-10.66,28.15-27.15l1-4.29H548.86Z"/><rect class="cls-1" x="176.01" y="140.21" width="60.63" height="96.53"/><rect class="cls-1" x="176.01" y="0.01" width="60.63" height="96.53"/><path class="cls-2" d="M213.41,140.37H176.05v7h6.83v67.84h7V169.06h23.53c20.67,0,22.28-11,22.28-14.34S234.08,140.37,213.41,140.37Zm0,21.69H189.88V147.37h23.53c9.57,0,15.28,2.75,15.28,7.35S223,162.06,213.41,162.06Z"/><path class="cls-2" d="M207.45,68C194.49,68,184,54.31,184,37.51S194.49,7.05,207.45,7.05c8.16,0,15.66,5.63,19.88,14.64h7.57C229.92,8.5,219.3.05,207.45.05,190.63.05,177,16.86,177,37.51S190.63,75,207.45,75C220,75,230.63,65.38,235,50.32H227.6C223.89,61.17,216.28,68,207.45,68Z"/></g></g></svg>