<svg xmlns="http://www.w3.org/2000/svg" viewBox="0 0 331.61 97.03"><defs><style>.cls-1{fill:#fff;}.cls-2,.cls-3,.cls-4,.cls-5{fill:none;stroke-miterlimit:10;stroke-width:0.5px;}.cls-2,.cls-3{stroke:#939393;}.cls-3,.cls-5{stroke-dasharray:5.91 5.91;}.cls-4,.cls-5{stroke:#00ff97;}</style></defs><g id="Layer_2" data-name="Layer 2"><g id="Layer_1-2" data-name="Layer 1"><path class="cls-1" d="M109,22.23a26.52,26.52,0,0,0-19.81,8.89V.54H75.39v7h6.83V75.37h7V66.45A26.55,26.55,0,1,0,109,22.23Zm0,46.12a19.56,19.56,0,1,1,19.56-19.56A19.59,19.59,0,0,1,109,68.35Z"/><path class="cls-1" d="M166.42,68.21a19.56,19.56,0,1,1,0-39.12c7.61,0,13.82,4.36,17,12l6.45-2.73c-4.3-10.15-13.08-16.22-23.48-16.22a26.56,26.56,0,1,0,0,53.12c11.5,0,21.12-7.5,24.51-19.11l-6.72-2C181.68,62.82,174.86,68.21,166.42,68.21Z"/><path class="cls-1" d="M288,68.21a19.57,19.57,0,0,1-18.79-25l44.32,0-2.06-4.86C307.17,28.16,298.39,22.09,288,22.09a26.56,26.56,0,0,0,0,53.12c11.5,0,21.12-7.5,24.5-19.11l-6.72-2C303.24,62.82,296.43,68.21,288,68.21Zm0-39.12a17.42,17.42,0,0,1,14.24,7.09l-29.32,0A19.51,19.51,0,0,1,288,29.09Z"/><path class="cls-1" d="M61.43,31.5a26.56,26.56,0,1,0,0,34.58v9.29h7V29.23h6.84v-7H61.43ZM41.29,68.35A19.56,19.56,0,1,1,60.85,48.79,19.58,19.58,0,0,1,41.29,68.35Z"/><path class="cls-1" d="M243.55,31.38a26.56,26.56,0,1,0,0,34.82v9.18h7V7.54h6.84v-7H243.55Zm-20,37a19.56,19.56,0,1,1,19.56-19.56A19.59,19.59,0,0,1,223.51,68.35Z"/><line class="cls-2" y1="96.78" x2="3" y2="96.78"/><line class="cls-3" x1="8.91" y1="96.78" x2="325.3" y2="96.78"/><line class="cls-2" x1="328.26" y1="96.78" x2="331.26" y2="96.78"/><line class="cls-2" x1="0.36" y1="0.25" x2="3.36" y2="0.25"/><line class="cls-3" x1="9.27" y1="0.25" x2="325.66" y2="0.25"/><line class="cls-2" x1="328.61" y1="0.25" x2="331.61" y2="0.25"/><line class="cls-4" x1="0.36" y1="21.72" x2="3.36" y2="21.72"/><line class="cls-5" x1="9.27" y1="21.72" x2="325.66" y2="21.72"/><line class="cls-4" x1="328.61" y1="21.72" x2="331.61" y2="21.72"/><line class="cls-4" y1="75.55" x2="331.26" y2="75.55"/></g></g></svg>