<svg xmlns="http://www.w3.org/2000/svg" viewBox="0 0 1190.45 189.14"><defs><style>.cls-1{fill:#fff;}.cls-2{fill:#00ff97;opacity:0.3;}</style></defs><g id="Layer_2" data-name="Layer 2"><g id="Layer_1-2" data-name="Layer 1"><path class="cls-1" d="M26.56,126a19.56,19.56,0,0,1,0-39.12c7.61,0,13.81,4.35,17,12L50,96.06C45.74,85.9,37,79.84,26.56,79.84a26.56,26.56,0,0,0,0,53.12c11.5,0,21.12-7.5,24.5-19.12l-6.72-2C41.81,120.57,35,126,26.56,126Z"/><path class="cls-1" d="M588.85,105.81h-.14c0,11.09-7.74,20.12-17.25,20.12s-17.24-9-17.24-20.12V79.59h-7v26.22c0,15,10.87,27.12,24.24,27.12a23,23,0,0,0,17.39-8.25V133h7V86.69h6.84v-7H588.85Z"/><path class="cls-1" d="M406.66,89.13a26.57,26.57,0,1,0,0,34.81v9.19h7V65.29h6.83v-7H406.66Zm-20,37a19.57,19.57,0,1,1,19.56-19.56A19.59,19.59,0,0,1,386.62,126.1Z"/><path class="cls-1" d="M211.39,101.1c-13.48,0-17.49-2.62-18.59-3.75a1.67,1.67,0,0,1-.53-.85l.07-.23v-.5c0-5,9.65-9.07,17.65-9.07,10.18,0,20.45,2.81,20.45,9.07h7c0-9.91-10.52-16.07-27.45-16.07a35.51,35.51,0,0,0-15.63,3.7c-5.68,2.95-8.87,7.21-9,12a7.75,7.75,0,0,0,1.62,5.86c3.46,4.59,11.45,6.82,24.43,6.82,12,0,16.3,3,17.82,4.73a4.83,4.83,0,0,1,1.3,3.44l-.07.25V117c0,6.27-10.27,9.08-20.45,9.08-16.43,0-17.34-6.93-17.68-9.54l-.41-3H178.51v7H186c2.5,8.35,10.55,12.58,24,12.58,16.77,0,27.25-6.05,27.44-15.8a11.59,11.59,0,0,0-2.68-8.71C230.72,103.6,222.86,101.1,211.39,101.1Z"/><path class="cls-1" d="M271.42,125.93c-18.22,0-18.91-13.92-18.93-15.51V86.69h28.95v-7H252.49V58H238.66v7h6.83v45.46c0,.23.3,22.49,25.93,22.49,13.18,0,19.55-5.75,22.58-10.58a21.88,21.88,0,0,0,3.34-10.8l-7,0C290.32,113,289.61,125.93,271.42,125.93Z"/><path class="cls-1" d="M512.2,79.6A23,23,0,0,0,495,87.68v-8H467.6v26.12h-.15c0,11.09-7.73,20.12-17.24,20.12S433,116.9,433,105.81V79.59h-7v26.22c0,15,10.88,27.12,24.25,27.12a23,23,0,0,0,17.39-8.25V133h7V86.69H488V133h7V106.71c0-11.09,7.73-20.11,17.24-20.11s17.25,9,17.25,20.11h7C536.45,91.76,525.57,79.6,512.2,79.6Z"/><path class="cls-1" d="M148.48,79.71a23,23,0,0,0-17.24,8.08V79.64H117.4v7h6.84v46.47h7V106.83c0-11.1,7.74-20.12,17.24-20.12s17.25,9,17.25,20.12v26.22h7V106.83C172.73,91.87,161.85,79.71,148.48,79.71Z"/><path class="cls-1" d="M87,79.7a26.56,26.56,0,1,0,26.56,26.56A26.59,26.59,0,0,0,87,79.7Zm0,46.12a19.56,19.56,0,1,1,19.56-19.56A19.58,19.58,0,0,1,87,125.82Z"/><path class="cls-1" d="M808.66,94.15c0-28.61,14.73-29.33,15.36-29.35l0-7c-.91,0-22.31.42-22.31,36.35,0,38.31,21.4,38.75,22.31,38.75l0-7C823.4,125.88,808.66,125.07,808.66,94.15Z"/><path class="cls-1" d="M862.39,57.8v7c.15,0,15.31.34,15.31,29.35,0,30.92-14.73,31.73-15.31,31.75v7h0c.63,0,6.25-.16,11.8-5.35,7-6.54,10.51-17.77,10.51-33.4C884.7,58.22,863.3,57.8,862.39,57.8Z"/><rect class="cls-1" x="667.94" y="79.93" width="50.88" height="7"/><rect class="cls-1" x="667.94" y="108.31" width="50.88" height="7"/><polygon class="cls-1" points="1046.86 69.16 1055.18 79.93 970.79 79.93 970.79 86.93 1060.48 86.93 1060.48 86.79 1067.59 95.99 1057.77 108.31 970.79 108.31 970.79 115.31 1052.18 115.31 1046.86 121.99 1046.86 133.22 1076.49 96.06 1046.86 57.71 1046.86 69.16"/><path class="cls-1" d="M1175,91l.08-.36v-.36c0-19.59,6.45-25.21,9.89-25.46h5.44v-7h-5.51c-.49,0-4.64.13-8.71,4.2-5.28,5.26-8,14.51-8.11,27.5-.67.87-3.2,2.5-9.4,2.5v7c6.2,0,8.73,1.62,9.4,2.5.1,13,2.83,22.23,8.11,27.5,4.07,4.07,8.22,4.19,8.7,4.19h5.52v-7H1185c-3.44-.24-9.89-5.87-9.89-25.46v-.36L1175,100a8.31,8.31,0,0,0-3.14-4.51A8.28,8.28,0,0,0,1175,91Z"/><circle class="cls-2" cx="1043.99" cy="94.57" r="94.57"/><circle class="cls-2" cx="1043.99" cy="94.57" r="70.8"/><circle class="cls-2" cx="1043.99" cy="94.57" r="45.49"/></g></g></svg>