<svg xmlns="http://www.w3.org/2000/svg" viewBox="0 0 244.84 122.41"><defs><style>.cls-1,.cls-2{fill:none;stroke:#939393;stroke-miterlimit:10;stroke-width:0.5px;}.cls-2{stroke-dasharray:6.12 6.12;}.cls-3{fill:#fff;}.cls-4{fill:#00ff97;opacity:0.3;}</style></defs><g id="Layer_2" data-name="Layer 2"><g id="Layer_1-2" data-name="Layer 1"><line class="cls-1" x1="60.8" y1="0.05" x2="60.8" y2="3.05"/><line class="cls-2" x1="60.8" y1="9.17" x2="60.8" y2="116.35"/><line class="cls-1" x1="60.8" y1="119.41" x2="60.8" y2="122.41"/><line class="cls-1" x1="0.25" y1="0.05" x2="0.25" y2="3.05"/><line class="cls-2" x1="0.25" y1="9.17" x2="0.25" y2="116.35"/><line class="cls-1" x1="0.25" y1="119.41" x2="0.25" y2="122.41"/><line class="cls-1" x1="121.29" y1="0.05" x2="121.29" y2="3.05"/><line class="cls-2" x1="121.29" y1="9.17" x2="121.29" y2="116.35"/><line class="cls-1" x1="121.29" y1="119.41" x2="121.29" y2="122.41"/><line class="cls-1" x1="181.6" x2="181.6" y2="3"/><line class="cls-2" x1="181.6" y1="9.12" x2="181.6" y2="116.3"/><line class="cls-1" x1="181.6" y1="119.37" x2="181.6" y2="122.37"/><line class="cls-1" x1="244.59" y1="0.05" x2="244.59" y2="3.05"/><line class="cls-2" x1="244.59" y1="9.17" x2="244.59" y2="116.35"/><line class="cls-1" x1="244.59" y1="119.41" x2="244.59" y2="122.41"/><polygon class="cls-3" points="14.11 51.18 60.81 51.18 60.81 44.18 14.11 44.18 14.11 29.71 60.81 29.71 60.81 22.71 14.11 22.71 10.61 22.71 0.28 22.71 0.28 29.71 7.11 29.71 7.11 97.55 14.11 97.55 14.11 97.52 60.93 97.52 60.93 90.52 14.11 90.52 14.11 51.18"/><polygon class="cls-3" points="114.23 22.72 114.23 44.19 74.65 44.19 74.65 22.72 60.81 22.72 60.81 29.72 67.65 29.72 67.65 97.55 74.65 97.55 74.65 51.19 114.23 51.19 114.23 97.55 121.23 97.55 121.23 22.72 114.23 22.72"/><path class="cls-3" d="M197.64,44l.22-.09,43.26-21.67H227.49L195.4,37.32V22.54H181.56v7h6.84V97.38h7V51c10.2,0,29.37.14,36.07,6.81a7.32,7.32,0,0,1,2.29,5.51V97.38h7v-34a14.25,14.25,0,0,0-4.35-10.47C228.18,44.66,210.16,44,197.64,44Z"/><polygon class="cls-3" points="135.07 22.72 121.23 22.72 121.23 29.72 128.07 29.72 128.07 97.56 135.07 97.56 135.07 35.99 173.32 97.56 174.55 97.56 174.55 97.56 181.55 97.56 181.55 97.56 181.56 97.56 181.55 97.53 181.55 22.55 174.55 22.55 174.55 86.27 135.17 22.89 135.07 22.72"/><rect class="cls-4" x="109.86" y="15.01" width="29.08" height="90.24"/><rect class="cls-4" x="169.85" y="15.01" width="29.08" height="90.24"/><rect class="cls-4" x="51.02" y="15.01" width="29.08" height="90.24"/></g></g></svg>