<svg xmlns="http://www.w3.org/2000/svg" viewBox="0 0 606.84 289.27"><defs><style>.cls-1{fill:#fff;}.cls-2{fill:#939393;}</style></defs><g id="Layer_2" data-name="Layer 2"><g id="Layer_1-2" data-name="Layer 1"><path class="cls-1" d="M303,250a26.56,26.56,0,1,1,26.56-26.56A26.6,26.6,0,0,1,303,250Zm0-46.12a19.56,19.56,0,1,0,19.56,19.56A19.58,19.58,0,0,0,303,203.9Z"/><path class="cls-1" d="M166.33,249.66c-16.51,0-30-16.67-30-37.15s13.44-37.15,30-37.15,29.94,16.66,29.94,37.15S182.84,249.66,166.33,249.66Zm0-67.3c-12.65,0-23,13.52-23,30.15s10.3,30.15,23,30.15,22.94-13.53,22.94-30.15S179,182.36,166.33,182.36Z"/><path class="cls-1" d="M30,175.84C13.43,175.84,0,192.5,0,213s13.43,37.15,30,37.15S59.89,233.47,59.89,213,46.46,175.84,30,175.84Zm0,67.3C17.29,243.14,7,229.61,7,213s10.29-30.15,23-30.15S52.89,196.36,52.89,213,42.6,243.14,30,243.14Z"/><rect class="cls-1" x="26.45" y="206.23" width="7" height="12.92"/><polygon class="cls-1" points="171.59 0.52 157.75 0.52 157.75 7.51 164.59 7.51 164.59 68.19 137.19 68.19 137.19 75.19 197.81 75.19 197.81 68.19 171.59 68.19 171.59 0.52"/><polygon class="cls-1" points="287.56 0.45 273.72 0.45 273.72 7.45 280.56 7.45 280.56 75.28 287.56 75.28 287.56 75.26 334.41 75.26 334.41 68.26 287.56 68.26 287.56 0.45"/><polygon class="cls-1" points="430.28 0.45 415.52 0.45 415.52 7.45 430.28 7.45 437.11 7.45 437.11 68.26 415.45 68.26 415.45 75.26 437.11 75.26 437.11 75.28 444.11 75.28 444.11 75.26 465.77 75.26 465.77 68.26 444.11 68.26 444.11 7.45 465.82 7.45 465.82 0.45 444.11 0.45 430.28 0.45"/><rect class="cls-1" x="574.8" y="41.45" width="7" height="33.71"/><rect class="cls-1" x="574.8" width="7" height="33.71"/><polygon class="cls-1" points="34.55 0.16 25.71 0.16 0.75 21.84 11.42 21.84 27.55 7.83 27.55 68.12 0.96 68.12 0.96 75.12 61.14 75.12 61.14 68.12 34.55 68.12 34.55 0.16"/><path class="cls-2" d="M8.33,105.67h1v.87h0a1.91,1.91,0,0,1,.71-.7,2.19,2.19,0,0,1,1.16-.28,2,2,0,0,1,1.56.6,2.37,2.37,0,0,1,.55,1.65v4h-1V108a1.67,1.67,0,0,0-.35-1.14,1.3,1.3,0,0,0-1.05-.4,1.64,1.64,0,0,0-.84.21,1.51,1.51,0,0,0-.55.6,2,2,0,0,0-.2.91v3.59h-1Z"/><path class="cls-2" d="M15.59,111.61a1.82,1.82,0,0,1-.72-.78,2.79,2.79,0,0,1-.24-1.2v-4h1v3.78a1.71,1.71,0,0,0,.35,1.14,1.37,1.37,0,0,0,1.06.39,1.6,1.6,0,0,0,.83-.21,1.41,1.41,0,0,0,.56-.6,2,2,0,0,0,.19-.91v-3.59h1v6.1h-1v-.87h0a1.93,1.93,0,0,1-.71.71,2.52,2.52,0,0,1-2.31,0Z"/><path class="cls-2" d="M21,105.67h1v.9h0a1.62,1.62,0,0,1,.64-.73,1.87,1.87,0,0,1,1-.28,1.79,1.79,0,0,1,.75.14,1.69,1.69,0,0,1,.59.39,1.92,1.92,0,0,1,.37.64h0a2,2,0,0,1,.46-.63,2.08,2.08,0,0,1,.65-.4,2.14,2.14,0,0,1,.8-.14,2,2,0,0,1,1.05.25,1.7,1.7,0,0,1,.69.69,2.13,2.13,0,0,1,.25,1.06v4.21h-1v-4a1.41,1.41,0,0,0-.33-1,1.23,1.23,0,0,0-.93-.35,1.43,1.43,0,0,0-.72.18,1.41,1.41,0,0,0-.49.51,1.66,1.66,0,0,0-.17.75v3.87h-1v-4.09a1.19,1.19,0,0,0-.34-.89,1.26,1.26,0,0,0-.91-.33,1.34,1.34,0,0,0-.72.2,1.32,1.32,0,0,0-.49.53A1.55,1.55,0,0,0,22,108v3.82H21Z"/><path class="cls-2" d="M32.49,111.58a2.25,2.25,0,0,1-.78-.84h0v1h-1v-8.46h1v3.38h0a2.16,2.16,0,0,1,1.95-1.13A2.38,2.38,0,0,1,35,106a2.6,2.6,0,0,1,.9,1.1,3.92,3.92,0,0,1,.32,1.67h0a3.92,3.92,0,0,1-.32,1.67,2.5,2.5,0,0,1-.9,1.11,2.42,2.42,0,0,1-1.37.39A2.2,2.2,0,0,1,32.49,111.58Zm1.89-.87a1.71,1.71,0,0,0,.6-.78,3.16,3.16,0,0,0,.21-1.21h0a3.16,3.16,0,0,0-.21-1.21,1.73,1.73,0,0,0-.6-.77,1.67,1.67,0,0,0-1.85,0,1.91,1.91,0,0,0-.62.79,2.9,2.9,0,0,0-.23,1.19h0a2.94,2.94,0,0,0,.23,1.19,1.91,1.91,0,0,0,.62.79,1.54,1.54,0,0,0,.92.28A1.62,1.62,0,0,0,34.38,110.71Z"/><path class="cls-2" d="M38.26,111.5a2.49,2.49,0,0,1-1-1.09,3.76,3.76,0,0,1-.34-1.66h0a3.79,3.79,0,0,1,.34-1.66,2.7,2.7,0,0,1,1-1.12,2.56,2.56,0,0,1,1.44-.4,2.66,2.66,0,0,1,1.44.38,2.56,2.56,0,0,1,.92,1.08,3.81,3.81,0,0,1,.32,1.6V109H37.47v-.8h4.41l-.52.74v-.39a2.87,2.87,0,0,0-.21-1.18,1.52,1.52,0,0,0-.59-.68,1.73,1.73,0,0,0-1.74,0,1.6,1.6,0,0,0-.6.7,2.62,2.62,0,0,0-.23,1.15v.39a2.6,2.6,0,0,0,.22,1.1,1.65,1.65,0,0,0,.63.7,1.81,1.81,0,0,0,.95.24,2.08,2.08,0,0,0,.69-.11,1.33,1.33,0,0,0,.51-.33,1.15,1.15,0,0,0,.3-.46V110h1v.06a1.8,1.8,0,0,1-.29.7,2.12,2.12,0,0,1-.54.58,2.54,2.54,0,0,1-.77.39,3,3,0,0,1-.92.14A2.83,2.83,0,0,1,38.26,111.5Z"/><path class="cls-2" d="M43.41,105.67h1v1h0a1.63,1.63,0,0,1,.53-.84,1.32,1.32,0,0,1,.89-.31h.24l.17,0v1a.7.7,0,0,0-.21,0l-.34,0a1.31,1.31,0,0,0-.69.18,1.1,1.1,0,0,0-.45.5,1.78,1.78,0,0,0-.16.8v3.76h-1Z"/><path class="cls-2" d="M51.74,104.43h0L49.48,106v-1.06l2.25-1.62h1v8.46h-1Z"/><path class="cls-2" d="M138.48,103.31h1v8.46h-1Z"/><path class="cls-2" d="M141.92,111.5a2.71,2.71,0,0,1-1-1.1,3.65,3.65,0,0,1-.36-1.68h0a3.65,3.65,0,0,1,.36-1.68,2.68,2.68,0,0,1,1-1.09,3.05,3.05,0,0,1,3,0,2.55,2.55,0,0,1,1,1.09,3.65,3.65,0,0,1,.36,1.68h0a3.65,3.65,0,0,1-.36,1.68,2.56,2.56,0,0,1-1,1.1,3,3,0,0,1-3,0Zm2.42-.78a1.73,1.73,0,0,0,.61-.78,3,3,0,0,0,.22-1.22h0a3,3,0,0,0-.22-1.22,1.6,1.6,0,0,0-1.56-1,1.64,1.64,0,0,0-.93.27,1.75,1.75,0,0,0-.62.76,3,3,0,0,0-.22,1.22h0a3,3,0,0,0,.22,1.22,1.81,1.81,0,0,0,.62.78,1.75,1.75,0,0,0,.94.26A1.7,1.7,0,0,0,144.34,110.72Z"/><path class="cls-2" d="M146.74,105.67h1l1.22,5h0l1.38-5h1l1.38,5h0l1.22-5h1l-1.69,6.1h-1l-1.38-4.72h0l-1.37,4.72h-1Z"/><path class="cls-2" d="M156.83,111.5a2.57,2.57,0,0,1-1-1.09,3.9,3.9,0,0,1-.33-1.66h0a3.79,3.79,0,0,1,.34-1.66,2.52,2.52,0,0,1,2.4-1.52,2.65,2.65,0,0,1,1.43.38,2.59,2.59,0,0,1,.93,1.08,3.81,3.81,0,0,1,.32,1.6V109H156v-.8h4.4l-.51.74v-.39a2.7,2.7,0,0,0-.22-1.18,1.5,1.5,0,0,0-.58-.68,1.66,1.66,0,0,0-.87-.23,1.59,1.59,0,0,0-1.48.94,2.62,2.62,0,0,0-.22,1.15v.39a2.45,2.45,0,0,0,.22,1.1,1.63,1.63,0,0,0,.62.7,1.85,1.85,0,0,0,1,.24,2.08,2.08,0,0,0,.69-.11,1.5,1.5,0,0,0,.51-.33,1.12,1.12,0,0,0,.29-.46l0-.06h1v.06a2,2,0,0,1-.29.7,2.16,2.16,0,0,1-.55.58,2.38,2.38,0,0,1-.76.39,3.07,3.07,0,0,1-.93.14A2.79,2.79,0,0,1,156.83,111.5Z"/><path class="cls-2" d="M162,105.67h1v1h0a1.61,1.61,0,0,1,.52-.84,1.34,1.34,0,0,1,.89-.31h.25l.16,0v1a.62.62,0,0,0-.2,0l-.34,0a1.31,1.31,0,0,0-.69.18,1.12,1.12,0,0,0-.46.5,1.93,1.93,0,0,0-.16.8v3.76h-1Z"/><path class="cls-2" d="M166.41,111.5a2.55,2.55,0,0,1-1-1.11,3.77,3.77,0,0,1-.34-1.67h0a3.77,3.77,0,0,1,.35-1.67,2.62,2.62,0,0,1,1-1.1,2.88,2.88,0,0,1,1.48-.38,2.81,2.81,0,0,1,1.31.29,2.47,2.47,0,0,1,.86.77,2.3,2.3,0,0,1,.37,1v0h-1v0a1.54,1.54,0,0,0-.49-.8,1.5,1.5,0,0,0-1.05-.35,1.52,1.52,0,0,0-.92.28,1.82,1.82,0,0,0-.63.78,3.13,3.13,0,0,0-.22,1.2h0a3,3,0,0,0,.23,1.21,1.78,1.78,0,0,0,.62.77,1.64,1.64,0,0,0,.93.27,1.52,1.52,0,0,0,1-.32,1.54,1.54,0,0,0,.52-.83v0h1v0a2.28,2.28,0,0,1-.43,1,2.35,2.35,0,0,1-.88.74,3,3,0,0,1-2.73-.11Z"/><path class="cls-2" d="M172.11,111.66a1.72,1.72,0,0,1-.71-.65,1.79,1.79,0,0,1-.26-1v0a1.52,1.52,0,0,1,.58-1.24,2.82,2.82,0,0,1,1.63-.53l2.26-.12v.79l-2.14.13a1.7,1.7,0,0,0-.95.29.82.82,0,0,0-.33.68v0a.83.83,0,0,0,.33.69,1.4,1.4,0,0,0,.88.26,1.85,1.85,0,0,0,.86-.2,1.63,1.63,0,0,0,.61-.55,1.47,1.47,0,0,0,.23-.8v-1.79a1.13,1.13,0,0,0-.35-.88,1.42,1.42,0,0,0-1-.32,1.58,1.58,0,0,0-.94.25,1.1,1.1,0,0,0-.45.67v.05h-1v-.06a1.81,1.81,0,0,1,.34-.92,2.07,2.07,0,0,1,.82-.65,2.9,2.9,0,0,1,1.23-.24,3,3,0,0,1,1.25.24,1.86,1.86,0,0,1,1.1,1.76v4.21h-1v-1h0a1.85,1.85,0,0,1-.46.58,2.21,2.21,0,0,1-.66.39,2.29,2.29,0,0,1-.78.14A2.36,2.36,0,0,1,172.11,111.66Z"/><path class="cls-2" d="M178.34,111.66a2.15,2.15,0,0,1-.83-.64,1.93,1.93,0,0,1-.36-1v0h1v.06a1.18,1.18,0,0,0,.44.71,1.62,1.62,0,0,0,1,.26,2.12,2.12,0,0,0,.71-.11,1.07,1.07,0,0,0,.45-.31.75.75,0,0,0,.16-.48h0a.7.7,0,0,0-.2-.52,1.42,1.42,0,0,0-.72-.33l-1-.24a2.69,2.69,0,0,1-1.28-.61,1.45,1.45,0,0,1-.42-1.07h0a1.57,1.57,0,0,1,.28-.93,1.85,1.85,0,0,1,.79-.63,2.72,2.72,0,0,1,1.17-.23,2.79,2.79,0,0,1,1.16.23,2,2,0,0,1,.78.65,1.85,1.85,0,0,1,.32.92v.07h-1v0a1,1,0,0,0-.39-.71,1.37,1.37,0,0,0-.89-.27,1.56,1.56,0,0,0-.64.11,1,1,0,0,0-.42.31.84.84,0,0,0-.14.47h0a.71.71,0,0,0,.22.53,1.71,1.71,0,0,0,.73.34l1,.23a2.71,2.71,0,0,1,1.3.61,1.44,1.44,0,0,1,.37,1h0a1.5,1.5,0,0,1-.31.94,1.89,1.89,0,0,1-.84.64,3,3,0,0,1-1.22.24A3.1,3.1,0,0,1,178.34,111.66Z"/><path class="cls-2" d="M184,111.5a2.57,2.57,0,0,1-1-1.09,3.9,3.9,0,0,1-.33-1.66h0a3.79,3.79,0,0,1,.34-1.66,2.61,2.61,0,0,1,1-1.12,2.57,2.57,0,0,1,1.45-.4,2.65,2.65,0,0,1,1.43.38,2.59,2.59,0,0,1,.93,1.08,3.81,3.81,0,0,1,.32,1.6V109h-4.91v-.8h4.4l-.51.74v-.39a2.7,2.7,0,0,0-.22-1.18,1.5,1.5,0,0,0-.58-.68,1.66,1.66,0,0,0-.87-.23,1.59,1.59,0,0,0-1.48.94,2.62,2.62,0,0,0-.22,1.15v.39A2.45,2.45,0,0,0,184,110a1.57,1.57,0,0,0,.62.7,1.85,1.85,0,0,0,1,.24,2.08,2.08,0,0,0,.69-.11,1.5,1.5,0,0,0,.51-.33,1.12,1.12,0,0,0,.29-.46l0-.06h1v.06a2,2,0,0,1-.29.7,2.16,2.16,0,0,1-.55.58,2.38,2.38,0,0,1-.76.39,3.07,3.07,0,0,1-.93.14A2.79,2.79,0,0,1,184,111.5Z"/><path class="cls-2" d="M191.76,103.31h1.06v7.51h4.07v1h-5.13Z"/><path class="cls-2" d="M274.87,111.61a1.7,1.7,0,0,1-.72-.78,2.65,2.65,0,0,1-.25-1.2v-4h1v3.78a1.71,1.71,0,0,0,.34,1.14,1.37,1.37,0,0,0,1.06.39,1.57,1.57,0,0,0,.83-.21,1.41,1.41,0,0,0,.56-.6,2,2,0,0,0,.19-.91v-3.59h1v6.1h-1v-.87h0a1.93,1.93,0,0,1-.71.71,2.29,2.29,0,0,1-1.16.28A2.24,2.24,0,0,1,274.87,111.61Z"/><path class="cls-2" d="M280.25,105.67h1v1h0a2.29,2.29,0,0,1,.48-.62,2,2,0,0,1,.65-.39,2.14,2.14,0,0,1,.8-.14,2.42,2.42,0,0,1,1.37.39,2.47,2.47,0,0,1,.9,1.1,3.92,3.92,0,0,1,.32,1.67h0a4,4,0,0,1-.32,1.67,2.67,2.67,0,0,1-.9,1.1,2.47,2.47,0,0,1-2.15.25,2.14,2.14,0,0,1-.67-.39,2.4,2.4,0,0,1-.48-.61h0v3.07h-1Zm3.71,5a1.82,1.82,0,0,0,.6-.78,3.14,3.14,0,0,0,.21-1.2h0a3.16,3.16,0,0,0-.21-1.21,1.71,1.71,0,0,0-.6-.78,1.62,1.62,0,0,0-.93-.27,1.54,1.54,0,0,0-.92.28,1.91,1.91,0,0,0-.62.79,2.9,2.9,0,0,0-.23,1.19h0a2.85,2.85,0,0,0,.23,1.18,1.91,1.91,0,0,0,.62.79,1.54,1.54,0,0,0,.92.28A1.62,1.62,0,0,0,284,110.71Z"/><path class="cls-2" d="M286.84,105.67h1v1h0a2.29,2.29,0,0,1,.48-.62,2,2,0,0,1,.65-.39,2.16,2.16,0,0,1,.81-.14,2.39,2.39,0,0,1,1.36.39,2.47,2.47,0,0,1,.9,1.1,3.92,3.92,0,0,1,.33,1.67h0a4,4,0,0,1-.33,1.67,2.67,2.67,0,0,1-.9,1.1,2.47,2.47,0,0,1-2.15.25,2,2,0,0,1-.66-.39,2.23,2.23,0,0,1-.49-.61h0v3.07h-1Zm3.71,5a1.82,1.82,0,0,0,.6-.78,3.14,3.14,0,0,0,.21-1.2h0a3.16,3.16,0,0,0-.21-1.21,1.71,1.71,0,0,0-.6-.78,1.59,1.59,0,0,0-.93-.27,1.54,1.54,0,0,0-.92.28,1.91,1.91,0,0,0-.62.79,2.9,2.9,0,0,0-.23,1.19h0a2.85,2.85,0,0,0,.23,1.18,1.85,1.85,0,0,0,.63.79,1.49,1.49,0,0,0,.91.28A1.59,1.59,0,0,0,290.55,110.71Z"/><path class="cls-2" d="M294.44,111.5a2.51,2.51,0,0,1-1-1.09,3.9,3.9,0,0,1-.34-1.66h0a3.93,3.93,0,0,1,.34-1.66,2.7,2.7,0,0,1,1-1.12,2.57,2.57,0,0,1,1.45-.4,2.65,2.65,0,0,1,1.43.38,2.5,2.5,0,0,1,.92,1.08,3.66,3.66,0,0,1,.32,1.6V109h-4.91v-.8h4.41l-.52.74v-.39a2.87,2.87,0,0,0-.21-1.18,1.52,1.52,0,0,0-.59-.68,1.65,1.65,0,0,0-.86-.23,1.59,1.59,0,0,0-1.48.94,2.62,2.62,0,0,0-.23,1.15v.39a2.6,2.6,0,0,0,.22,1.1,1.65,1.65,0,0,0,.63.7,1.84,1.84,0,0,0,.95.24,2.08,2.08,0,0,0,.69-.11,1.33,1.33,0,0,0,.51-.33,1.15,1.15,0,0,0,.3-.46V110h1v.06a2.16,2.16,0,0,1-.29.7,2.33,2.33,0,0,1-.55.58,2.6,2.6,0,0,1-.76.39,3.12,3.12,0,0,1-.93.14A2.79,2.79,0,0,1,294.44,111.5Z"/><path class="cls-2" d="M299.58,105.67h1v1h0a1.63,1.63,0,0,1,.53-.84,1.34,1.34,0,0,1,.89-.31h.24l.17,0v1a.7.7,0,0,0-.21,0l-.34,0a1.25,1.25,0,0,0-.68.18,1.12,1.12,0,0,0-.46.5,1.78,1.78,0,0,0-.16.8v3.76h-1Z"/><path class="cls-2" d="M304,111.5a2.59,2.59,0,0,1-1-1.11,3.77,3.77,0,0,1-.35-1.67h0A3.64,3.64,0,0,1,303,107a2.62,2.62,0,0,1,1-1.1,2.83,2.83,0,0,1,1.48-.38,2.77,2.77,0,0,1,1.3.29,2.39,2.39,0,0,1,.86.77,2.2,2.2,0,0,1,.38,1v0h-1v0a1.61,1.61,0,0,0-.49-.8,1.5,1.5,0,0,0-1.05-.35,1.55,1.55,0,0,0-.93.28,1.8,1.8,0,0,0-.62.78,3,3,0,0,0-.22,1.2h0a3,3,0,0,0,.22,1.21,1.73,1.73,0,0,0,.63.77,1.64,1.64,0,0,0,.93.27,1.48,1.48,0,0,0,1.53-1.15v0h1v0a2.27,2.27,0,0,1-.42,1,2.38,2.38,0,0,1-.89.74,2.72,2.72,0,0,1-1.23.28A2.79,2.79,0,0,1,304,111.5Z"/><path class="cls-2" d="M309.72,111.66A1.75,1.75,0,0,1,309,111a1.79,1.79,0,0,1-.25-1v0a1.5,1.5,0,0,1,.58-1.24,2.82,2.82,0,0,1,1.63-.53l2.25-.12v.79l-2.14.13a1.66,1.66,0,0,0-.94.29.8.8,0,0,0-.34.68v0a.83.83,0,0,0,.33.69,1.42,1.42,0,0,0,.88.26,1.92,1.92,0,0,0,.87-.2,1.71,1.71,0,0,0,.61-.55,1.46,1.46,0,0,0,.22-.8v-1.79a1.1,1.1,0,0,0-.35-.88,1.41,1.41,0,0,0-1-.32,1.62,1.62,0,0,0-.95.25,1.1,1.1,0,0,0-.45.67v.05h-1v-.06a1.83,1.83,0,0,1,.35-.92,2,2,0,0,1,.81-.65,3.32,3.32,0,0,1,2.48,0,2,2,0,0,1,.82.7,1.93,1.93,0,0,1,.28,1.06v4.21h-1v-1h0a1.88,1.88,0,0,1-.47.58,2,2,0,0,1-.66.39,2.19,2.19,0,0,1-.77.14A2.33,2.33,0,0,1,309.72,111.66Z"/><path class="cls-2" d="M315.94,111.66a2.12,2.12,0,0,1-.82-.64,2,2,0,0,1-.37-1v0h1v.06a1.13,1.13,0,0,0,.44.71,1.6,1.6,0,0,0,1,.26,2.06,2.06,0,0,0,.7-.11,1,1,0,0,0,.46-.31.81.81,0,0,0,.15-.48h0a.66.66,0,0,0-.2-.52,1.42,1.42,0,0,0-.72-.33l-1-.24a2.73,2.73,0,0,1-1.29-.61,1.45,1.45,0,0,1-.42-1.07h0a1.58,1.58,0,0,1,.29-.93,1.85,1.85,0,0,1,.79-.63,2.67,2.67,0,0,1,1.16-.23,2.76,2.76,0,0,1,1.16.23,2,2,0,0,1,.78.65,1.76,1.76,0,0,1,.32.92v.07h-1v0a1.05,1.05,0,0,0-.39-.71,1.38,1.38,0,0,0-.9-.27,1.56,1.56,0,0,0-.64.11.88.88,0,0,0-.41.31.77.77,0,0,0-.14.47h0a.71.71,0,0,0,.22.53,1.72,1.72,0,0,0,.72.34l1,.23a2.67,2.67,0,0,1,1.3.61,1.45,1.45,0,0,1,.38,1h0a1.56,1.56,0,0,1-.31.94,2,2,0,0,1-.84.64,3,3,0,0,1-1.22.24A3.12,3.12,0,0,1,315.94,111.66Z"/><path class="cls-2" d="M321.61,111.5a2.51,2.51,0,0,1-1-1.09,3.9,3.9,0,0,1-.34-1.66h0a3.93,3.93,0,0,1,.34-1.66,2.7,2.7,0,0,1,1-1.12,2.57,2.57,0,0,1,1.45-.4,2.65,2.65,0,0,1,1.43.38,2.5,2.5,0,0,1,.92,1.08,3.66,3.66,0,0,1,.32,1.6V109h-4.91v-.8h4.41l-.52.74v-.39a2.87,2.87,0,0,0-.21-1.18,1.52,1.52,0,0,0-.59-.68,1.65,1.65,0,0,0-.86-.23,1.59,1.59,0,0,0-1.48.94,2.62,2.62,0,0,0-.23,1.15v.39a2.6,2.6,0,0,0,.22,1.1,1.65,1.65,0,0,0,.63.7,1.84,1.84,0,0,0,.95.24,2.08,2.08,0,0,0,.69-.11,1.33,1.33,0,0,0,.51-.33,1.15,1.15,0,0,0,.3-.46V110h1l0,.06a1.8,1.8,0,0,1-.29.7,2.12,2.12,0,0,1-.54.58,2.6,2.6,0,0,1-.76.39,3.12,3.12,0,0,1-.93.14A2.79,2.79,0,0,1,321.61,111.5Z"/><path class="cls-2" d="M329.37,103.31h1.05v7.51h4.08v1h-5.13Z"/><path class="cls-2" d="M413.22,111.61a1.7,1.7,0,0,1-.72-.78,2.65,2.65,0,0,1-.25-1.2v-4h1v3.78a1.66,1.66,0,0,0,.35,1.14,1.33,1.33,0,0,0,1.05.39,1.64,1.64,0,0,0,.84-.21,1.46,1.46,0,0,0,.55-.6,2,2,0,0,0,.2-.91v-3.59h1v6.1h-1v-.87h0a1.93,1.93,0,0,1-.71.71,2.29,2.29,0,0,1-1.16.28A2.24,2.24,0,0,1,413.22,111.61Z"/><path class="cls-2" d="M418.6,105.67h1v1h0a2.29,2.29,0,0,1,.48-.62,2,2,0,0,1,.65-.39,2.16,2.16,0,0,1,.81-.14,2.39,2.39,0,0,1,1.36.39,2.47,2.47,0,0,1,.9,1.1,3.92,3.92,0,0,1,.33,1.67h0a4,4,0,0,1-.33,1.67,2.67,2.67,0,0,1-.9,1.1,2.47,2.47,0,0,1-2.15.25,2,2,0,0,1-.66-.39,2.23,2.23,0,0,1-.49-.61h0v3.07h-1Zm3.71,5a1.82,1.82,0,0,0,.6-.78,3.14,3.14,0,0,0,.21-1.2h0a3.16,3.16,0,0,0-.21-1.21,1.71,1.71,0,0,0-.6-.78,1.59,1.59,0,0,0-.93-.27,1.54,1.54,0,0,0-.92.28,1.91,1.91,0,0,0-.62.79,2.9,2.9,0,0,0-.23,1.19h0a2.85,2.85,0,0,0,.23,1.18,1.85,1.85,0,0,0,.63.79,1.49,1.49,0,0,0,.91.28A1.59,1.59,0,0,0,422.31,110.71Z"/><path class="cls-2" d="M425.19,105.67h1v1h0a2.29,2.29,0,0,1,.48-.62,2,2,0,0,1,.66-.39,2.07,2.07,0,0,1,.8-.14,2.39,2.39,0,0,1,1.36.39,2.55,2.55,0,0,1,.91,1.1,4.08,4.08,0,0,1,.32,1.67h0a4,4,0,0,1-.33,1.67,2.52,2.52,0,0,1-.9,1.1,2.32,2.32,0,0,1-1.34.39,2.38,2.38,0,0,1-.81-.14,2,2,0,0,1-.66-.39,2.23,2.23,0,0,1-.49-.61h0v3.07h-1Zm3.71,5a1.82,1.82,0,0,0,.6-.78,3.13,3.13,0,0,0,.22-1.2h0a3.15,3.15,0,0,0-.22-1.21,1.71,1.71,0,0,0-.6-.78,1.59,1.59,0,0,0-.93-.27,1.56,1.56,0,0,0-.92.28,1.91,1.91,0,0,0-.62.79,2.91,2.91,0,0,0-.22,1.19h0a2.86,2.86,0,0,0,.22,1.18,1.93,1.93,0,0,0,.63.79,1.51,1.51,0,0,0,.91.28A1.59,1.59,0,0,0,428.9,110.71Z"/><path class="cls-2" d="M432.79,111.5a2.57,2.57,0,0,1-1-1.09,3.9,3.9,0,0,1-.34-1.66h0a3.93,3.93,0,0,1,.34-1.66,2.7,2.7,0,0,1,1-1.12,2.57,2.57,0,0,1,1.45-.4,2.65,2.65,0,0,1,1.43.38,2.5,2.5,0,0,1,.92,1.08,3.66,3.66,0,0,1,.32,1.6V109H432v-.8h4.41l-.52.74v-.39a2.87,2.87,0,0,0-.21-1.18,1.52,1.52,0,0,0-.59-.68,1.63,1.63,0,0,0-2.34.71,2.62,2.62,0,0,0-.22,1.15v.39a2.45,2.45,0,0,0,.22,1.1,1.57,1.57,0,0,0,.62.7,1.84,1.84,0,0,0,.95.24,2.19,2.19,0,0,0,.7-.11,1.5,1.5,0,0,0,.51-.33,1.24,1.24,0,0,0,.29-.46l0-.06h1v.06a2,2,0,0,1-.29.7,2.33,2.33,0,0,1-.55.58,2.49,2.49,0,0,1-.76.39,3.12,3.12,0,0,1-.93.14A2.79,2.79,0,0,1,432.79,111.5Z"/><path class="cls-2" d="M437.93,105.67h1v1h0a1.63,1.63,0,0,1,.53-.84,1.34,1.34,0,0,1,.89-.31h.24l.17,0v1a.7.7,0,0,0-.21,0l-.33,0a1.27,1.27,0,0,0-.69.18,1.12,1.12,0,0,0-.46.5,1.78,1.78,0,0,0-.16.8v3.76h-1Z"/><path class="cls-2" d="M442.36,111.5a2.59,2.59,0,0,1-1-1.11,3.77,3.77,0,0,1-.34-1.67h0a3.64,3.64,0,0,1,.35-1.67,2.62,2.62,0,0,1,1-1.1,2.86,2.86,0,0,1,1.48-.38,2.74,2.74,0,0,1,1.3.29,2.39,2.39,0,0,1,.86.77,2.2,2.2,0,0,1,.38,1v0h-1v0a1.61,1.61,0,0,0-.49-.8,1.5,1.5,0,0,0-1-.35,1.57,1.57,0,0,0-.93.28,1.88,1.88,0,0,0-.62.78,3,3,0,0,0-.22,1.2h0a3,3,0,0,0,.22,1.21,1.73,1.73,0,0,0,.63.77,1.64,1.64,0,0,0,.93.27,1.52,1.52,0,0,0,1-.32,1.47,1.47,0,0,0,.51-.83l0,0h1v0a2.17,2.17,0,0,1-.42,1,2.38,2.38,0,0,1-.89.74,2.72,2.72,0,0,1-1.23.28A2.84,2.84,0,0,1,442.36,111.5Z"/><path class="cls-2" d="M448.07,111.66a1.75,1.75,0,0,1-.72-.65,1.79,1.79,0,0,1-.25-1v0a1.5,1.5,0,0,1,.58-1.24,2.82,2.82,0,0,1,1.63-.53l2.25-.12v.79l-2.13.13a1.67,1.67,0,0,0-.95.29.83.83,0,0,0-.34.68v0a.83.83,0,0,0,.33.69,1.43,1.43,0,0,0,.89.26,1.88,1.88,0,0,0,.86-.2,1.63,1.63,0,0,0,.61-.55,1.46,1.46,0,0,0,.22-.8v-1.79a1.12,1.12,0,0,0-.34-.88,1.45,1.45,0,0,0-1-.32,1.62,1.62,0,0,0-1,.25,1.1,1.1,0,0,0-.45.67v.05h-1v-.06a1.92,1.92,0,0,1,.35-.92,2,2,0,0,1,.81-.65,3,3,0,0,1,1.24-.24,3,3,0,0,1,1.25.24,1.83,1.83,0,0,1,1.09,1.76v4.21h-1v-1h0a1.88,1.88,0,0,1-.47.58,2,2,0,0,1-.66.39,2.19,2.19,0,0,1-.77.14A2.33,2.33,0,0,1,448.07,111.66Z"/><path class="cls-2" d="M454.3,111.66a2.08,2.08,0,0,1-.83-.64,1.93,1.93,0,0,1-.36-1v0h1v.06a1.13,1.13,0,0,0,.44.71,1.6,1.6,0,0,0,1,.26,2.16,2.16,0,0,0,.71-.11,1.07,1.07,0,0,0,.45-.31.81.81,0,0,0,.16-.48h0a.7.7,0,0,0-.2-.52,1.51,1.51,0,0,0-.72-.33l-1-.24a2.64,2.64,0,0,1-1.28-.61,1.42,1.42,0,0,1-.43-1.07h0a1.58,1.58,0,0,1,.29-.93,1.85,1.85,0,0,1,.79-.63,2.67,2.67,0,0,1,1.16-.23,2.81,2.81,0,0,1,1.17.23,1.9,1.9,0,0,1,.77.65,1.76,1.76,0,0,1,.32.92v.07h-1v0a1.05,1.05,0,0,0-.39-.71,1.38,1.38,0,0,0-.9-.27,1.59,1.59,0,0,0-.64.11.93.93,0,0,0-.41.31.77.77,0,0,0-.14.47h0a.71.71,0,0,0,.22.53,1.71,1.71,0,0,0,.73.34l1,.23a2.67,2.67,0,0,1,1.3.61,1.45,1.45,0,0,1,.38,1h0a1.5,1.5,0,0,1-.31.94,2,2,0,0,1-.84.64,3,3,0,0,1-1.22.24A3,3,0,0,1,454.3,111.66Z"/><path class="cls-2" d="M460,111.5a2.57,2.57,0,0,1-1-1.09,3.9,3.9,0,0,1-.34-1.66h0a3.93,3.93,0,0,1,.34-1.66,2.7,2.7,0,0,1,1-1.12,2.57,2.57,0,0,1,1.45-.4,2.65,2.65,0,0,1,1.43.38,2.5,2.5,0,0,1,.92,1.08,3.66,3.66,0,0,1,.32,1.6V109h-4.91v-.8h4.41l-.52.74v-.39a2.87,2.87,0,0,0-.21-1.18,1.52,1.52,0,0,0-.59-.68,1.63,1.63,0,0,0-2.34.71,2.62,2.62,0,0,0-.22,1.15v.39a2.45,2.45,0,0,0,.22,1.1,1.57,1.57,0,0,0,.62.7,1.84,1.84,0,0,0,1,.24,2.19,2.19,0,0,0,.7-.11,1.5,1.5,0,0,0,.51-.33,1.24,1.24,0,0,0,.29-.46l0-.06h1v.06a2,2,0,0,1-.29.7,2.33,2.33,0,0,1-.55.58,2.49,2.49,0,0,1-.76.39,3.12,3.12,0,0,1-.93.14A2.79,2.79,0,0,1,460,111.5Z"/><path class="cls-2" d="M467.72,103.31h1v8.46h-1Z"/><path class="cls-2" d="M547.43,105.67h1v1h0a2.29,2.29,0,0,1,.48-.62,1.94,1.94,0,0,1,.65-.39,2.1,2.1,0,0,1,.8-.14,2.42,2.42,0,0,1,1.37.39,2.53,2.53,0,0,1,.9,1.1,3.92,3.92,0,0,1,.32,1.67h0a4.11,4.11,0,0,1-.32,1.67,2.67,2.67,0,0,1-.9,1.1,2.47,2.47,0,0,1-2.15.25,2.14,2.14,0,0,1-.67-.39,2.4,2.4,0,0,1-.48-.61h0v3.07h-1Zm3.71,5a1.82,1.82,0,0,0,.6-.78,3.14,3.14,0,0,0,.21-1.2h0a3.16,3.16,0,0,0-.21-1.21,1.71,1.71,0,0,0-.6-.78,1.65,1.65,0,0,0-.94-.27,1.53,1.53,0,0,0-.91.28,1.83,1.83,0,0,0-.62.79,2.9,2.9,0,0,0-.23,1.19h0a2.85,2.85,0,0,0,.23,1.18,1.91,1.91,0,0,0,.62.79,1.53,1.53,0,0,0,.91.28A1.65,1.65,0,0,0,551.14,110.71Z"/><path class="cls-2" d="M554.14,104.46A.66.66,0,0,1,554,104a.64.64,0,0,1,.19-.45.67.67,0,0,1,.91,0,.63.63,0,0,1,.18.45.64.64,0,0,1-1.09.46Zm-.06,1.21h1v6.1h-1Z"/><path class="cls-2" d="M556.49,105.67h1v1h0a2.29,2.29,0,0,1,.48-.62,2,2,0,0,1,.66-.39,2.07,2.07,0,0,1,.8-.14,2.39,2.39,0,0,1,1.36.39,2.55,2.55,0,0,1,.91,1.1,4.08,4.08,0,0,1,.32,1.67h0a4,4,0,0,1-.33,1.67,2.52,2.52,0,0,1-.9,1.1,2.32,2.32,0,0,1-1.34.39,2.38,2.38,0,0,1-.81-.14,2,2,0,0,1-.66-.39,2.23,2.23,0,0,1-.49-.61h0v3.07h-1Zm3.71,5a1.82,1.82,0,0,0,.6-.78,3.14,3.14,0,0,0,.21-1.2h0a3.16,3.16,0,0,0-.21-1.21,1.71,1.71,0,0,0-.6-.78,1.59,1.59,0,0,0-.93-.27,1.56,1.56,0,0,0-.92.28,1.91,1.91,0,0,0-.62.79,2.91,2.91,0,0,0-.22,1.19h0a2.86,2.86,0,0,0,.22,1.18,1.93,1.93,0,0,0,.63.79,1.51,1.51,0,0,0,.91.28A1.59,1.59,0,0,0,560.2,110.71Z"/><path class="cls-2" d="M564.09,111.5a2.57,2.57,0,0,1-1-1.09,3.9,3.9,0,0,1-.34-1.66h0a3.93,3.93,0,0,1,.34-1.66,2.7,2.7,0,0,1,1-1.12,2.57,2.57,0,0,1,1.45-.4,2.65,2.65,0,0,1,1.43.38,2.5,2.5,0,0,1,.92,1.08,3.66,3.66,0,0,1,.32,1.6V109h-4.91v-.8h4.41l-.52.74v-.39a2.87,2.87,0,0,0-.21-1.18,1.52,1.52,0,0,0-.59-.68,1.65,1.65,0,0,0-.86-.23,1.59,1.59,0,0,0-1.48.94,2.62,2.62,0,0,0-.22,1.15v.39A2.45,2.45,0,0,0,564,110a1.57,1.57,0,0,0,.62.7,1.84,1.84,0,0,0,1,.24,2.19,2.19,0,0,0,.7-.11,1.5,1.5,0,0,0,.51-.33,1.24,1.24,0,0,0,.29-.46l0-.06h1v.06a2,2,0,0,1-.29.7,2.33,2.33,0,0,1-.55.58,2.49,2.49,0,0,1-.76.39,3.12,3.12,0,0,1-.93.14A2.79,2.79,0,0,1,564.09,111.5Z"/><path class="cls-2" d="M572.62,111.66a2.08,2.08,0,0,1-.83-.64,1.93,1.93,0,0,1-.36-1v0h1v.06a1.13,1.13,0,0,0,.44.71,1.6,1.6,0,0,0,1,.26,2.12,2.12,0,0,0,.71-.11,1.07,1.07,0,0,0,.45-.31.81.81,0,0,0,.16-.48h0a.7.7,0,0,0-.2-.52,1.51,1.51,0,0,0-.72-.33l-1-.24a2.69,2.69,0,0,1-1.28-.61,1.45,1.45,0,0,1-.42-1.07h0a1.57,1.57,0,0,1,.28-.93,1.85,1.85,0,0,1,.79-.63,2.7,2.7,0,0,1,1.16-.23,2.81,2.81,0,0,1,1.17.23,2,2,0,0,1,.78.65,1.85,1.85,0,0,1,.32.92v.07h-1v0a1.05,1.05,0,0,0-.39-.71,1.38,1.38,0,0,0-.9-.27,1.59,1.59,0,0,0-.64.11,1,1,0,0,0-.41.31.84.84,0,0,0-.14.47h0a.71.71,0,0,0,.22.53,1.71,1.71,0,0,0,.73.34l1,.23a2.67,2.67,0,0,1,1.3.61,1.45,1.45,0,0,1,.38,1h0a1.5,1.5,0,0,1-.31.94,1.89,1.89,0,0,1-.84.64,3,3,0,0,1-1.22.24A3.07,3.07,0,0,1,572.62,111.66Z"/><path class="cls-2" d="M577.56,113.8l-.24,0v-.83l.15,0,.17,0a1.56,1.56,0,0,0,.78-.17,1.29,1.29,0,0,0,.47-.69l.12-.35-2.26-6.1h1.09L579.6,111l-.22-.23h.31l-.22.23,1.77-5.31h1.07l-2.38,6.48a4.18,4.18,0,0,1-.49.95,1.6,1.6,0,0,1-.65.54,2.14,2.14,0,0,1-.93.18Z"/><path class="cls-2" d="M583.11,105.67h1v.9h0a1.64,1.64,0,0,1,.65-.73,1.82,1.82,0,0,1,1-.28,1.87,1.87,0,0,1,.76.14,1.65,1.65,0,0,1,.58.39,1.77,1.77,0,0,1,.37.64h0a1.81,1.81,0,0,1,.45-.63,2,2,0,0,1,.66-.4,2.34,2.34,0,0,1,1.85.11,1.83,1.83,0,0,1,.69.69,2.24,2.24,0,0,1,.24,1.06v4.21h-1v-4a1.41,1.41,0,0,0-.33-1,1.23,1.23,0,0,0-.93-.35,1.43,1.43,0,0,0-.72.18,1.47,1.47,0,0,0-.48.51,1.54,1.54,0,0,0-.18.75v3.87h-1v-4.09a1.19,1.19,0,0,0-.34-.89,1.24,1.24,0,0,0-.91-.33,1.37,1.37,0,0,0-1.21.73,1.55,1.55,0,0,0-.18.76v3.82h-1Z"/><path class="cls-2" d="M594.63,111.58a2.36,2.36,0,0,1-.79-.84h0v1h-1v-8.46h1v3.38h0a2.16,2.16,0,0,1,2-1.13,2.32,2.32,0,0,1,1.34.39,2.47,2.47,0,0,1,.9,1.1,3.92,3.92,0,0,1,.33,1.67h0a4.08,4.08,0,0,1-.32,1.67,2.58,2.58,0,0,1-.91,1.11,2.39,2.39,0,0,1-1.36.39A2.17,2.17,0,0,1,594.63,111.58Zm1.88-.87a1.71,1.71,0,0,0,.6-.78,3,3,0,0,0,.22-1.21h0a3,3,0,0,0-.22-1.21,1.73,1.73,0,0,0-.6-.77,1.53,1.53,0,0,0-.93-.28,1.51,1.51,0,0,0-.91.28,1.93,1.93,0,0,0-.63.79,2.91,2.91,0,0,0-.22,1.19h0a2.94,2.94,0,0,0,.22,1.19,1.85,1.85,0,0,0,.63.79,1.51,1.51,0,0,0,.91.28A1.59,1.59,0,0,0,596.51,110.71Z"/><path class="cls-2" d="M600.44,111.5a2.71,2.71,0,0,1-1-1.1,3.65,3.65,0,0,1-.36-1.68h0a3.65,3.65,0,0,1,.36-1.68,2.68,2.68,0,0,1,1-1.09,3.05,3.05,0,0,1,2.95,0,2.55,2.55,0,0,1,1,1.09,3.65,3.65,0,0,1,.36,1.68h0a3.65,3.65,0,0,1-.36,1.68,2.56,2.56,0,0,1-1,1.1,3,3,0,0,1-3,0Zm2.42-.78a1.73,1.73,0,0,0,.61-.78,3,3,0,0,0,.22-1.22h0a3,3,0,0,0-.22-1.22,1.6,1.6,0,0,0-1.56-1,1.64,1.64,0,0,0-.93.27,1.75,1.75,0,0,0-.62.76,3,3,0,0,0-.22,1.22h0a3,3,0,0,0,.22,1.22,1.81,1.81,0,0,0,.62.78,1.76,1.76,0,0,0,.95.26A1.69,1.69,0,0,0,602.86,110.72Z"/><path class="cls-2" d="M605.82,103.31h1v8.46h-1Z"/><path class="cls-2" d="M7.35,281.13h1V282h0a1.93,1.93,0,0,1,.71-.71,2.29,2.29,0,0,1,1.16-.28,2,2,0,0,1,1.56.61,2.33,2.33,0,0,1,.55,1.65v4h-1v-3.77a1.62,1.62,0,0,0-.35-1.14,1.33,1.33,0,0,0-1-.4,1.64,1.64,0,0,0-.84.22,1.39,1.39,0,0,0-.55.6,2,2,0,0,0-.2.91v3.58h-1Z"/><path class="cls-2" d="M14.62,287.07a1.78,1.78,0,0,1-.72-.79,2.6,2.6,0,0,1-.25-1.2v-3.95h1v3.77A1.67,1.67,0,0,0,15,286a1.34,1.34,0,0,0,1.06.4,1.49,1.49,0,0,0,.83-.22,1.41,1.41,0,0,0,.56-.6,2,2,0,0,0,.19-.9v-3.59h1v6.09h-1v-.86h0a1.91,1.91,0,0,1-.71.7,2.19,2.19,0,0,1-1.16.28A2.24,2.24,0,0,1,14.62,287.07Z"/><path class="cls-2" d="M20,281.13h1V282h0a1.69,1.69,0,0,1,.65-.73,1.9,1.9,0,0,1,1-.28,2,2,0,0,1,.75.14,1.59,1.59,0,0,1,.59.4,1.64,1.64,0,0,1,.37.63h0a2,2,0,0,1,.45-.63,2.2,2.2,0,0,1,.66-.4,2.28,2.28,0,0,1,.8-.14,2.13,2.13,0,0,1,1,.25,1.81,1.81,0,0,1,.7.7,2.21,2.21,0,0,1,.24,1.06v4.2h-1v-4a1.38,1.38,0,0,0-.33-1,1.2,1.2,0,0,0-.93-.36,1.43,1.43,0,0,0-.72.19,1.18,1.18,0,0,0-.48.51,1.5,1.5,0,0,0-.18.74v3.87h-1v-4.08a1.18,1.18,0,0,0-.34-.89,1.26,1.26,0,0,0-.91-.34,1.34,1.34,0,0,0-.72.2,1.47,1.47,0,0,0-.49.53,1.58,1.58,0,0,0-.18.76v3.82H20Z"/><path class="cls-2" d="M31.51,287a2.11,2.11,0,0,1-.78-.84h0v1h-1v-8.45h1v3.38h0A2.19,2.19,0,0,1,32.68,281a2.35,2.35,0,0,1,1.35.39,2.67,2.67,0,0,1,.9,1.1,3.92,3.92,0,0,1,.33,1.67h0a4,4,0,0,1-.33,1.67A2.52,2.52,0,0,1,34,287a2.39,2.39,0,0,1-1.36.39A2.12,2.12,0,0,1,31.51,287Zm1.89-.86a1.79,1.79,0,0,0,.6-.79,3.14,3.14,0,0,0,.21-1.2h0A3.14,3.14,0,0,0,34,283a1.71,1.71,0,0,0-.6-.78,1.6,1.6,0,0,0-.93-.28,1.5,1.5,0,0,0-.91.29,1.82,1.82,0,0,0-.63.78,2.94,2.94,0,0,0-.23,1.19h0a2.94,2.94,0,0,0,.23,1.19,1.91,1.91,0,0,0,.62.79,1.61,1.61,0,0,0,.92.28A1.59,1.59,0,0,0,33.4,286.17Z"/><path class="cls-2" d="M37.29,287a2.46,2.46,0,0,1-1-1.09A3.73,3.73,0,0,1,36,284.2h0a4,4,0,0,1,.34-1.66,2.7,2.7,0,0,1,1-1.12,2.64,2.64,0,0,1,1.44-.4,2.58,2.58,0,0,1,1.44.39,2.41,2.41,0,0,1,.92,1.07,3.7,3.7,0,0,1,.32,1.61v.37H36.49v-.79H40.9l-.52.73V284a2.85,2.85,0,0,0-.21-1.17,1.5,1.5,0,0,0-.59-.69,1.65,1.65,0,0,0-.86-.23,1.58,1.58,0,0,0-.87.24,1.53,1.53,0,0,0-.61.71A2.6,2.6,0,0,0,37,284v.39a2.68,2.68,0,0,0,.22,1.11,1.71,1.71,0,0,0,.63.7,2,2,0,0,0,1.64.12A1.31,1.31,0,0,0,40,286a1.18,1.18,0,0,0,.3-.47v0h1l0,.06a1.86,1.86,0,0,1-.29.7,2.28,2.28,0,0,1-.54.58,2.85,2.85,0,0,1-.76.38,3.12,3.12,0,0,1-.93.14A2.79,2.79,0,0,1,37.29,287Z"/><path class="cls-2" d="M42.43,281.13h1v1h0a1.67,1.67,0,0,1,.53-.84,1.4,1.4,0,0,1,.89-.31l.24,0,.17,0v1l-.21,0h-.34a1.25,1.25,0,0,0-.68.17,1.2,1.2,0,0,0-.46.51,1.74,1.74,0,0,0-.16.79v3.76h-1Z"/><path class="cls-2" d="M49.89,286.83a3.28,3.28,0,0,1-1.06-1.51,6.49,6.49,0,0,1-.37-2.32h0a6.45,6.45,0,0,1,.37-2.32,3.23,3.23,0,0,1,1.06-1.51,2.9,2.9,0,0,1,3.34,0,3.31,3.31,0,0,1,1.07,1.51,6.68,6.68,0,0,1,.37,2.32h0a6.72,6.72,0,0,1-.37,2.32,3.37,3.37,0,0,1-1.07,1.51,2.9,2.9,0,0,1-3.34,0Zm2.77-.8a2.6,2.6,0,0,0,.7-1.2,5.82,5.82,0,0,0,.25-1.83h0a5.82,5.82,0,0,0-.25-1.83,2.57,2.57,0,0,0-.7-1.19,1.58,1.58,0,0,0-1.1-.42,1.56,1.56,0,0,0-1.1.42,2.57,2.57,0,0,0-.7,1.19,6.15,6.15,0,0,0-.24,1.83h0a6.15,6.15,0,0,0,.24,1.83,2.6,2.6,0,0,0,.7,1.2,1.59,1.59,0,0,0,1.1.41A1.61,1.61,0,0,0,52.66,286Z"/><path class="cls-2" d="M137.07,287.07a1.9,1.9,0,0,1-.72-.79,2.6,2.6,0,0,1-.25-1.2v-3.95h1v3.77a1.67,1.67,0,0,0,.35,1.14,1.3,1.3,0,0,0,1.05.4,1.55,1.55,0,0,0,.84-.22,1.39,1.39,0,0,0,.55-.6,2,2,0,0,0,.2-.9v-3.59h1v6.09h-1v-.86h0a2,2,0,0,1-.72.7,2.17,2.17,0,0,1-1.16.28A2.29,2.29,0,0,1,137.07,287.07Z"/><path class="cls-2" d="M142.45,281.13h1v1h0a2.1,2.1,0,0,1,1.13-1,2.28,2.28,0,0,1,.8-.14,2.39,2.39,0,0,1,1.36.39,2.61,2.61,0,0,1,.91,1.1,4.16,4.16,0,0,1,.32,1.68h0a3.92,3.92,0,0,1-.33,1.67,2.47,2.47,0,0,1-.9,1.1,2.32,2.32,0,0,1-1.34.39,2.38,2.38,0,0,1-.81-.14,2,2,0,0,1-.66-.39,2.24,2.24,0,0,1-.48-.61h0v3.07h-1Zm3.71,5a1.73,1.73,0,0,0,.61-.78,3.14,3.14,0,0,0,.21-1.2h0a3.12,3.12,0,0,0-.21-1.21,1.73,1.73,0,0,0-.61-.78,1.6,1.6,0,0,0-.93-.28,1.52,1.52,0,0,0-.91.29,1.82,1.82,0,0,0-.63.78,3,3,0,0,0-.22,1.2h0a2.75,2.75,0,0,0,.23,1.19,1.91,1.91,0,0,0,.62.79,1.58,1.58,0,0,0,.91.28A1.53,1.53,0,0,0,146.16,286.16Z"/><path class="cls-2" d="M149.05,281.13h1v1h0a2.24,2.24,0,0,1,.48-.61,2.15,2.15,0,0,1,.65-.4,2.32,2.32,0,0,1,.8-.14,2.36,2.36,0,0,1,1.36.39,2.61,2.61,0,0,1,.91,1.1,4.16,4.16,0,0,1,.32,1.68h0a4.08,4.08,0,0,1-.32,1.67,2.55,2.55,0,0,1-.91,1.1,2.44,2.44,0,0,1-2.14.25,2,2,0,0,1-.67-.39,2.24,2.24,0,0,1-.48-.61h0v3.07h-1Zm3.7,5a1.66,1.66,0,0,0,.61-.78,3.14,3.14,0,0,0,.21-1.2h0a3.12,3.12,0,0,0-.21-1.21,1.66,1.66,0,0,0-.61-.78,1.6,1.6,0,0,0-.93-.28,1.52,1.52,0,0,0-.91.29,1.82,1.82,0,0,0-.63.78,3,3,0,0,0-.22,1.2h0a2.75,2.75,0,0,0,.23,1.19,1.91,1.91,0,0,0,.62.79,1.6,1.6,0,0,0,.91.28A1.53,1.53,0,0,0,152.75,286.16Z"/><path class="cls-2" d="M156.64,287a2.43,2.43,0,0,1-1-1.09,3.73,3.73,0,0,1-.34-1.66h0a3.82,3.82,0,0,1,.34-1.66,2.61,2.61,0,0,1,.95-1.12,2.67,2.67,0,0,1,1.45-.4,2.57,2.57,0,0,1,1.43.39,2.5,2.5,0,0,1,.93,1.07,3.85,3.85,0,0,1,.32,1.61v.37h-4.91v-.79h4.4l-.51.73V284a2.69,2.69,0,0,0-.22-1.17,1.48,1.48,0,0,0-.58-.69,1.66,1.66,0,0,0-.87-.23,1.63,1.63,0,0,0-.87.24,1.59,1.59,0,0,0-.61.71,2.61,2.61,0,0,0-.22,1.14v.39a2.53,2.53,0,0,0,.22,1.11,1.69,1.69,0,0,0,.62.7,2,2,0,0,0,1.65.12,1.48,1.48,0,0,0,.51-.32,1.16,1.16,0,0,0,.29-.47l0,0h1v.06a2,2,0,0,1-.29.7,2.32,2.32,0,0,1-.55.58,2.58,2.58,0,0,1-.76.38,3,3,0,0,1-.93.14A2.79,2.79,0,0,1,156.64,287Z"/><path class="cls-2" d="M161.78,281.13h1v1h0a1.65,1.65,0,0,1,.52-.84,1.4,1.4,0,0,1,.89-.31l.25,0,.16,0v1a1,1,0,0,0-.2,0h-.34a1.31,1.31,0,0,0-.69.17,1.2,1.2,0,0,0-.46.51,1.88,1.88,0,0,0-.16.79v3.76h-1Z"/><path class="cls-2" d="M166.22,287a2.64,2.64,0,0,1-1-1.1,3.82,3.82,0,0,1-.34-1.68h0a3.73,3.73,0,0,1,.35-1.66,2.56,2.56,0,0,1,1-1.1,2.8,2.8,0,0,1,1.48-.39,2.7,2.7,0,0,1,1.31.3,2.45,2.45,0,0,1,.86.76,2.27,2.27,0,0,1,.37,1v.05h-1v-.05a1.51,1.51,0,0,0-.49-.8,1.5,1.5,0,0,0-1.05-.35,1.59,1.59,0,0,0-.92.28,1.85,1.85,0,0,0-.63.79,3.13,3.13,0,0,0-.22,1.2h0a3,3,0,0,0,.23,1.22,1.84,1.84,0,0,0,.62.77,1.64,1.64,0,0,0,.93.27,1.58,1.58,0,0,0,1-.32,1.54,1.54,0,0,0,.52-.83v-.05h1v0a2.32,2.32,0,0,1-.43,1.05,2.44,2.44,0,0,1-.88.74,3,3,0,0,1-2.73-.12Z"/><path class="cls-2" d="M171.92,287.11a1.69,1.69,0,0,1-.71-.64,1.83,1.83,0,0,1-.26-1h0a1.54,1.54,0,0,1,.58-1.25,2.82,2.82,0,0,1,1.63-.52l2.26-.13v.79l-2.14.13a1.7,1.7,0,0,0-.95.29.84.84,0,0,0-.33.69h0a.84.84,0,0,0,.33.7,1.4,1.4,0,0,0,.88.26,1.74,1.74,0,0,0,.86-.21,1.55,1.55,0,0,0,.61-.55,1.43,1.43,0,0,0,.23-.79v-1.8a1.16,1.16,0,0,0-.35-.88,1.42,1.42,0,0,0-1-.32,1.59,1.59,0,0,0-.94.26,1.08,1.08,0,0,0-.45.66v.06h-1v-.07a1.78,1.78,0,0,1,.34-.91,2.07,2.07,0,0,1,.82-.65,2.79,2.79,0,0,1,1.23-.25,2.85,2.85,0,0,1,1.25.25,1.83,1.83,0,0,1,.81.69,1.93,1.93,0,0,1,.29,1.06v4.21h-1v-1h0a1.88,1.88,0,0,1-.46.59,2.41,2.41,0,0,1-.66.38,2.29,2.29,0,0,1-.78.14A2.36,2.36,0,0,1,171.92,287.11Z"/><path class="cls-2" d="M178.15,287.11a1.89,1.89,0,0,1-.82-.64,1.85,1.85,0,0,1-.37-1v0h1v0a1.17,1.17,0,0,0,.44.72,1.62,1.62,0,0,0,1,.25,1.89,1.89,0,0,0,.71-.11.89.89,0,0,0,.45-.31.71.71,0,0,0,.16-.48h0a.72.72,0,0,0-.2-.53,1.61,1.61,0,0,0-.72-.33l-1-.23a2.69,2.69,0,0,1-1.28-.62,1.42,1.42,0,0,1-.42-1.07h0a1.58,1.58,0,0,1,.28-.94,1.85,1.85,0,0,1,.79-.63,2.87,2.87,0,0,1,1.17-.23,2.64,2.64,0,0,1,1.16.24,2,2,0,0,1,.78.64,1.88,1.88,0,0,1,.32.92v.08h-1v0a1,1,0,0,0-.38-.72,1.42,1.42,0,0,0-.9-.27,1.75,1.75,0,0,0-.64.11,1,1,0,0,0-.42.32.82.82,0,0,0-.14.47h0a.69.69,0,0,0,.22.53,1.51,1.51,0,0,0,.73.34l1,.24a2.62,2.62,0,0,1,1.3.61,1.42,1.42,0,0,1,.37,1h0a1.52,1.52,0,0,1-.31,1,2,2,0,0,1-.84.64,3.38,3.38,0,0,1-2.45,0Z"/><path class="cls-2" d="M183.81,287a2.52,2.52,0,0,1-1-1.09,3.87,3.87,0,0,1-.33-1.66h0a3.82,3.82,0,0,1,.34-1.66,2.61,2.61,0,0,1,1-1.12,2.67,2.67,0,0,1,1.45-.4,2.57,2.57,0,0,1,1.43.39,2.5,2.5,0,0,1,.93,1.07,3.85,3.85,0,0,1,.32,1.61v.37H183v-.79h4.4l-.51.73V284a2.69,2.69,0,0,0-.22-1.17,1.48,1.48,0,0,0-.58-.69,1.66,1.66,0,0,0-.87-.23,1.63,1.63,0,0,0-.87.24,1.59,1.59,0,0,0-.61.71,2.61,2.61,0,0,0-.22,1.14v.39a2.53,2.53,0,0,0,.22,1.11,1.69,1.69,0,0,0,.62.7,2,2,0,0,0,1.65.12,1.48,1.48,0,0,0,.51-.32,1.16,1.16,0,0,0,.29-.47l0,0h1v.06a2,2,0,0,1-.29.7,2.32,2.32,0,0,1-.55.58,2.58,2.58,0,0,1-.76.38,3,3,0,0,1-.93.14A2.79,2.79,0,0,1,183.81,287Z"/><path class="cls-2" d="M193.07,286.83a3.55,3.55,0,0,1-1.35-1.51,5.22,5.22,0,0,1-.48-2.32h0a5.19,5.19,0,0,1,.48-2.32,3.56,3.56,0,0,1,1.36-1.51,3.93,3.93,0,0,1,2.07-.53,4,4,0,0,1,2.07.53,3.52,3.52,0,0,1,1.34,1.51A5.19,5.19,0,0,1,199,283h0a5.22,5.22,0,0,1-.48,2.32,3.46,3.46,0,0,1-1.34,1.51,4.33,4.33,0,0,1-4.15,0Zm3.58-.86a2.71,2.71,0,0,0,1-1.18A4.3,4.3,0,0,0,198,283h0a4.51,4.51,0,0,0-.34-1.8,2.69,2.69,0,0,0-5,0,4.28,4.28,0,0,0-.35,1.8h0a4.35,4.35,0,0,0,.35,1.8,2.66,2.66,0,0,0,1,1.18,2.72,2.72,0,0,0,1.5.41A2.64,2.64,0,0,0,196.65,286Z"/><path class="cls-2" d="M273.79,278.77h1v8.45h-1Z"/><path class="cls-2" d="M277.23,287a2.62,2.62,0,0,1-1-1.09,3.71,3.71,0,0,1-.36-1.68v0a3.64,3.64,0,0,1,.36-1.67,2.62,2.62,0,0,1,1-1.09,3,3,0,0,1,2.95,0,2.5,2.5,0,0,1,1,1.09,3.64,3.64,0,0,1,.36,1.67v0a3.65,3.65,0,0,1-.36,1.68,2.54,2.54,0,0,1-1,1.09,3,3,0,0,1-3,0Zm2.42-.78a1.7,1.7,0,0,0,.61-.77,3,3,0,0,0,.22-1.22v0a2.94,2.94,0,0,0-.22-1.21,1.6,1.6,0,0,0-.62-.77,1.75,1.75,0,0,0-1.87,0,1.84,1.84,0,0,0-.62.77,2.94,2.94,0,0,0-.22,1.21v0a3,3,0,0,0,.22,1.22,1.78,1.78,0,0,0,.62.77,1.68,1.68,0,0,0,1,.27A1.62,1.62,0,0,0,279.65,286.17Z"/><path class="cls-2" d="M282.05,281.13h1l1.22,5h0l1.38-5h1l1.38,5h0l1.22-5h1l-1.69,6.09h-1l-1.38-4.71h0l-1.37,4.71h-1Z"/><path class="cls-2" d="M292.14,287a2.43,2.43,0,0,1-1-1.09,3.73,3.73,0,0,1-.34-1.66h0a3.82,3.82,0,0,1,.34-1.66,2.61,2.61,0,0,1,.95-1.12,2.67,2.67,0,0,1,1.45-.4,2.57,2.57,0,0,1,1.43.39,2.5,2.5,0,0,1,.93,1.07,3.85,3.85,0,0,1,.32,1.61v.37h-4.91v-.79h4.4l-.51.73V284a2.69,2.69,0,0,0-.22-1.17,1.48,1.48,0,0,0-.58-.69,1.66,1.66,0,0,0-.87-.23,1.63,1.63,0,0,0-.87.24,1.59,1.59,0,0,0-.61.71,2.61,2.61,0,0,0-.22,1.14v.39a2.53,2.53,0,0,0,.22,1.11,1.69,1.69,0,0,0,.62.7,2,2,0,0,0,1.65.12,1.48,1.48,0,0,0,.51-.32,1.16,1.16,0,0,0,.29-.47l0,0h1v.06a2,2,0,0,1-.29.7,2.32,2.32,0,0,1-.55.58,2.58,2.58,0,0,1-.76.38,3,3,0,0,1-.93.14A2.79,2.79,0,0,1,292.14,287Z"/><path class="cls-2" d="M297.28,281.13h1v1h0a1.65,1.65,0,0,1,.52-.84,1.4,1.4,0,0,1,.89-.31l.25,0,.16,0v1a1,1,0,0,0-.2,0h-.34a1.31,1.31,0,0,0-.69.17,1.2,1.2,0,0,0-.46.51,1.88,1.88,0,0,0-.16.79v3.76h-1Z"/><path class="cls-2" d="M301.72,287a2.64,2.64,0,0,1-1-1.1,3.82,3.82,0,0,1-.34-1.68h0a3.73,3.73,0,0,1,.35-1.66,2.56,2.56,0,0,1,1-1.1,2.8,2.8,0,0,1,1.48-.39,2.7,2.7,0,0,1,1.31.3,2.45,2.45,0,0,1,.86.76,2.27,2.27,0,0,1,.37,1v.05h-1v-.05a1.51,1.51,0,0,0-.49-.8,1.5,1.5,0,0,0-1.05-.35,1.59,1.59,0,0,0-.92.28,1.85,1.85,0,0,0-.63.79,3.13,3.13,0,0,0-.22,1.2h0a3,3,0,0,0,.23,1.22,1.84,1.84,0,0,0,.62.77,1.64,1.64,0,0,0,.93.27,1.58,1.58,0,0,0,1-.32,1.54,1.54,0,0,0,.52-.83v-.05h1v0a2.32,2.32,0,0,1-.43,1.05,2.44,2.44,0,0,1-.88.74,3,3,0,0,1-2.73-.12Z"/><path class="cls-2" d="M307.42,287.11a1.69,1.69,0,0,1-.71-.64,1.83,1.83,0,0,1-.26-1h0a1.54,1.54,0,0,1,.58-1.25,2.82,2.82,0,0,1,1.63-.52l2.26-.13v.79l-2.14.13a1.7,1.7,0,0,0-.95.29.84.84,0,0,0-.33.69h0a.84.84,0,0,0,.33.7,1.4,1.4,0,0,0,.88.26,1.74,1.74,0,0,0,.86-.21,1.55,1.55,0,0,0,.61-.55,1.43,1.43,0,0,0,.23-.79v-1.8a1.16,1.16,0,0,0-.35-.88,1.42,1.42,0,0,0-1-.32,1.59,1.59,0,0,0-.94.26,1.08,1.08,0,0,0-.45.66v.06h-1v-.07a1.78,1.78,0,0,1,.34-.91,2.07,2.07,0,0,1,.82-.65,2.79,2.79,0,0,1,1.23-.25,2.85,2.85,0,0,1,1.25.25,1.83,1.83,0,0,1,.81.69,1.93,1.93,0,0,1,.29,1.06v4.21h-1v-1h0a1.88,1.88,0,0,1-.46.59,2.41,2.41,0,0,1-.66.38,2.29,2.29,0,0,1-.78.14A2.36,2.36,0,0,1,307.42,287.11Z"/><path class="cls-2" d="M313.65,287.11a1.89,1.89,0,0,1-.82-.64,1.85,1.85,0,0,1-.37-1v0h1v0a1.17,1.17,0,0,0,.44.72,1.62,1.62,0,0,0,1,.25,1.89,1.89,0,0,0,.71-.11.89.89,0,0,0,.45-.31.71.71,0,0,0,.16-.48h0a.72.72,0,0,0-.2-.53,1.61,1.61,0,0,0-.72-.33l-1-.23a2.69,2.69,0,0,1-1.28-.62,1.42,1.42,0,0,1-.42-1.07h0a1.58,1.58,0,0,1,.28-.94,1.85,1.85,0,0,1,.79-.63,2.87,2.87,0,0,1,1.17-.23,2.64,2.64,0,0,1,1.16.24,2,2,0,0,1,.78.64,1.88,1.88,0,0,1,.32.92v.08h-1v0a1,1,0,0,0-.38-.72,1.42,1.42,0,0,0-.9-.27,1.75,1.75,0,0,0-.64.11,1,1,0,0,0-.42.32.82.82,0,0,0-.14.47h0a.69.69,0,0,0,.22.53,1.51,1.51,0,0,0,.73.34l1,.24a2.62,2.62,0,0,1,1.3.61,1.42,1.42,0,0,1,.37,1h0a1.52,1.52,0,0,1-.31,1,2,2,0,0,1-.84.64,3.38,3.38,0,0,1-2.45,0Z"/><path class="cls-2" d="M319.31,287a2.52,2.52,0,0,1-1-1.09,3.87,3.87,0,0,1-.33-1.66h0a3.82,3.82,0,0,1,.34-1.66,2.61,2.61,0,0,1,.95-1.12,2.67,2.67,0,0,1,1.45-.4,2.57,2.57,0,0,1,1.43.39,2.5,2.5,0,0,1,.93,1.07,3.85,3.85,0,0,1,.32,1.61v.37h-4.91v-.79h4.4l-.51.73V284a2.69,2.69,0,0,0-.22-1.17,1.48,1.48,0,0,0-.58-.69,1.66,1.66,0,0,0-.87-.23,1.63,1.63,0,0,0-.87.24,1.59,1.59,0,0,0-.61.71A2.61,2.61,0,0,0,319,284v.39a2.53,2.53,0,0,0,.22,1.11,1.69,1.69,0,0,0,.62.7,2,2,0,0,0,1.65.12A1.48,1.48,0,0,0,322,286a1.16,1.16,0,0,0,.29-.47l0,0h1v.06a2,2,0,0,1-.29.7,2.32,2.32,0,0,1-.55.58,2.58,2.58,0,0,1-.76.38,3,3,0,0,1-.93.14A2.79,2.79,0,0,1,319.31,287Z"/><path class="cls-2" d="M328.57,286.83a3.55,3.55,0,0,1-1.35-1.51,5.22,5.22,0,0,1-.48-2.32h0a5.19,5.19,0,0,1,.48-2.32,3.56,3.56,0,0,1,1.36-1.51,3.93,3.93,0,0,1,2.07-.53,4,4,0,0,1,2.07.53,3.52,3.52,0,0,1,1.34,1.51,5.19,5.19,0,0,1,.48,2.32h0a5.22,5.22,0,0,1-.48,2.32,3.46,3.46,0,0,1-1.34,1.51,4.33,4.33,0,0,1-4.15,0Zm3.58-.86a2.71,2.71,0,0,0,1-1.18,4.3,4.3,0,0,0,.34-1.79h0a4.51,4.51,0,0,0-.34-1.8,2.69,2.69,0,0,0-4.95,0,4.28,4.28,0,0,0-.35,1.8h0a4.35,4.35,0,0,0,.35,1.8,2.66,2.66,0,0,0,1,1.18,2.72,2.72,0,0,0,1.5.41A2.64,2.64,0,0,0,332.15,286Z"/></g></g></svg>