<svg xmlns="http://www.w3.org/2000/svg" viewBox="0 0 1245.69 96.55"><defs><style>.cls-1{fill:#0062ff;}.cls-2{fill:#00ff97;}.cls-3{fill:#fff;}.cls-4{fill:#edff00;}</style></defs><g id="Layer_2" data-name="Layer 2"><g id="Layer_1-2" data-name="Layer 1"><path class="cls-1" d="M211.39,43.22c-13.48,0-17.49-2.62-18.59-3.75a1.68,1.68,0,0,1-.53-.86l.07-.23v-.49c0-5,9.65-9.07,17.65-9.07,10.18,0,20.45,2.8,20.45,9.07h7c0-9.91-10.52-16.07-27.45-16.07a35.51,35.51,0,0,0-15.63,3.7c-5.68,2.95-8.87,7.21-9,12A7.75,7.75,0,0,0,187,43.4c3.46,4.59,11.45,6.82,24.43,6.82,12,0,16.3,3,17.82,4.72a4.86,4.86,0,0,1,1.3,3.45h0l-.07.25v.45c0,6.27-10.27,9.07-20.45,9.07-16.43,0-17.34-6.92-17.68-9.53l-.41-3H178.51v7H186c2.5,8.35,10.55,12.57,24,12.57,16.77,0,27.25-6,27.44-15.8a11.57,11.57,0,0,0-2.68-8.7C230.72,45.72,222.86,43.22,211.39,43.22Z"/><path class="cls-1" d="M148.48,21.85a23,23,0,0,0-17.24,8.08V21.79H117.4v7h6.84V75.26h7V49c0-11.09,7.74-20.12,17.24-20.12s17.25,9,17.25,20.12V75.19h7V49C172.73,34,161.85,21.85,148.48,21.85Z"/><path class="cls-1" d="M26.56,68.08a19.56,19.56,0,0,1,0-39.12c7.61,0,13.81,4.35,17,11.94L50,38.18C45.74,28,37,22,26.56,22a26.56,26.56,0,0,0,0,53.12c11.5,0,21.12-7.51,24.5-19.12l-6.72-2C41.81,62.68,35,68.08,26.56,68.08Z"/><path class="cls-1" d="M416.11,43l-2.05-4.86C409.76,28,401,22,390.59,22a26.56,26.56,0,0,0,0,53.12c11.5,0,21.12-7.51,24.5-19.12l-6.72-2c-2.53,8.68-9.34,14.08-17.78,14.08a19.57,19.57,0,0,1-18.79-25ZM390.59,29a17.41,17.41,0,0,1,14.24,7.09l-29.32,0A19.54,19.54,0,0,1,390.59,29Z"/><polygon class="cls-1" points="333.69 0.47 319.85 0.47 319.85 7.47 326.69 7.47 326.69 68.14 299.28 68.14 299.28 75.14 359.91 75.14 359.91 68.14 333.69 68.14 333.69 0.47"/><polygon class="cls-2" points="515.65 0.47 501.81 0.47 501.81 7.47 508.65 7.47 508.65 68.14 481.24 68.14 481.24 75.14 541.86 75.14 541.86 68.14 515.65 68.14 515.65 0.47"/><path class="cls-1" d="M87,21.82a26.56,26.56,0,1,0,26.56,26.56A26.58,26.58,0,0,0,87,21.82Zm0,46.12a19.56,19.56,0,1,1,19.56-19.56A19.58,19.58,0,0,1,87,67.94Z"/><path class="cls-1" d="M268.91,21.82a26.56,26.56,0,1,0,26.56,26.56A26.58,26.58,0,0,0,268.91,21.82Zm0,46.12a19.56,19.56,0,1,1,19.56-19.56A19.58,19.58,0,0,1,268.91,67.94Z"/><path class="cls-2" d="M572.19,21.82a26.56,26.56,0,1,0,26.56,26.56A26.59,26.59,0,0,0,572.19,21.82Zm0,46.12a19.56,19.56,0,1,1,19.56-19.56A19.59,19.59,0,0,1,572.19,67.94Z"/><path class="cls-3" d="M687.64,36.41C687.64,7.8,702.38,7.08,703,7.06l0-7c-.91,0-22.32.41-22.32,36.35,0,38.3,21.41,38.74,22.32,38.74l0-7C702.38,68.13,687.64,67.32,687.64,36.41Z"/><path class="cls-3" d="M1165.64,0V7c.15,0,15.31.34,15.31,29.35,0,30.92-14.74,31.73-15.31,31.74v7h0c.63,0,6.25-.15,11.8-5.35,7-6.53,10.51-17.77,10.51-33.39C1188,.41,1166.55,0,1165.64,0Z"/><rect class="cls-3" x="447.42" y="62.72" width="7" height="12.92"/><rect class="cls-3" x="1235.69" y="21.81" width="7" height="12.92"/><path class="cls-2" d="M649.4,31.13a26.56,26.56,0,1,0,0,34.66V74c0,1.59-.71,15.51-18.92,15.51s-18.9-12.92-18.92-14.37h-7A21.79,21.79,0,0,0,607.89,86c3,4.83,9.4,10.58,22.59,10.58,25.62,0,25.92-22.26,25.92-22.49V28.61h6.84v-7H649.4ZM629.3,68a19.56,19.56,0,1,1,19.56-19.56A19.58,19.58,0,0,1,629.3,68Z"/><rect class="cls-4" x="746.16" y="0.04" width="7" height="31.01"/><rect class="cls-4" x="758.76" y="0.04" width="7" height="31.01"/><rect class="cls-4" x="1109.92" y="0.04" width="7" height="31.01"/><rect class="cls-4" x="1122.51" y="0.04" width="7" height="31.01"/><polygon class="cls-4" points="1080.62 0.26 1068.79 0.26 1068.79 7.26 1073.62 7.26 1073.62 75.66 1080.62 75.66 1080.62 38.58 1087.62 38.58 1087.62 31.58 1080.62 31.58 1080.62 0.26"/><path class="cls-4" d="M1029.35,7.26h4.83V64.79c0,4.4,0,6.82,1.73,8.73,1.87,2.07,4.45,2.07,8.35,2.07h20.21v-7h-20.21c-1.07,0-2.25,0-3-.06-.08-.89-.08-2.38-.08-3.74V7.26h23.29v-7h-35.12Z"/><path class="cls-4" d="M821.52,7.26h4.83V31.58H820C819,15.19,813.54.26,804.13.26c-10.55,0-16.08,18.81-16.08,37.4s5.53,37.4,16.08,37.4c10.39,0,15.9-18.2,16.08-36.48h6.14V75.65h7V.26H821.52Zm-17.39,60.8c-3.08,0-9.08-10.73-9.08-30.4s6-30.4,9.08-30.4,9.09,10.73,9.09,30.4S807.22,68.06,804.13,68.06Z"/><polygon class="cls-4" points="889.91 7.26 894.74 7.26 894.74 31.58 884.19 31.58 884.19 38.58 894.74 38.58 894.74 75.66 901.74 75.66 901.74 0.26 889.91 0.26 889.91 7.26"/><rect class="cls-4" x="836.43" y="0.25" width="7" height="75.4"/><polygon class="cls-4" points="950.54 7.26 955.36 7.26 955.36 44.01 962.36 44.01 962.36 0.26 950.54 0.26 950.54 7.26"/><path class="cls-4" d="M955.36,53.63h-32V47.44H911.56v7h4.83V64.72c0,4.39,0,6.81,1.73,8.73s4.44,2.06,8.34,2.06h35.9V46.36h-7Zm-31.9,14.83c-.07-.89-.07-2.38-.07-3.74V60.63h32v7.88h-28.9C925.39,68.51,924.22,68.51,923.46,68.46Z"/><path class="cls-4" d="M928.37,44.64c9.81,0,17.79-10,17.79-22.19S938.18.26,928.37.26s-17.78,10-17.78,22.19S918.57,44.64,928.37,44.64Zm0-37.38c5.85,0,10.79,7,10.79,15.19s-4.94,15.19-10.79,15.19-10.78-7-10.78-15.19S922.53,7.26,928.37,7.26Z"/><polygon class="cls-4" points="1011.16 7.26 1015.99 7.26 1015.99 75.66 1022.99 75.66 1022.99 0.26 1011.16 0.26 1011.16 7.26"/><path class="cls-4" d="M857.45,68.46c-.07-.87-.07-2.32-.07-3.74V28.53h28.16V.26H845.68v7h32.86V21.53h-33v7h4.83V64.72c0,4.39,0,6.81,1.73,8.73s4.44,2.06,8.34,2.06h25.23v-7H860.45C859.38,68.51,858.21,68.51,857.45,68.46Z"/><path class="cls-4" d="M979,68.24c-.07-.89-.07-2.38-.07-3.74V.68H967.11v7h4.83V64.5c0,4.39,0,6.81,1.73,8.73s4.44,2.06,8.35,2.06h22.21v-7H982C980.94,68.29,979.77,68.29,979,68.24Z"/><path class="cls-3" d="M1233.65,78.91v-7c2.25,0,4.46-7.9,4.94-16.84h-5.9v-7h13v3.5a79.84,79.84,0,0,1-1.12,12.54C1242.81,73.93,1239.14,78.91,1233.65,78.91Z"/></g></g></svg>