<svg xmlns="http://www.w3.org/2000/svg" viewBox="0 0 1861.21 328.97"><defs><style>.cls-1{fill:#fff;}.cls-2{fill:#ff8103;}.cls-3{fill:#ff88e0;}.cls-4{fill:#ffffff;}.cls-5{fill:#ff00b1;}</style></defs><g id="Layer_2" data-name="Layer 2"><g id="Layer_1-2" data-name="Layer 1"><path class="cls-1" d="M350.14,31.31a26.56,26.56,0,1,0,0,34.58v9.3h7V29H364V22H350.14ZM330,68.16A19.56,19.56,0,1,1,349.56,48.6,19.58,19.58,0,0,1,330,68.16Z"/><path class="cls-2" d="M572.67,75.49a26.49,26.49,0,0,0,20.13-9.27v9.29h7V29.37h13.68V75.84h7V49.56c0-11.1,7.73-20.12,17.24-20.12S655,38.46,655,49.56h7c0-15-10.88-27.12-24.25-27.12a23,23,0,0,0-17.24,8.08V22.37H592.8v9.27a26.55,26.55,0,1,0-20.13,43.85Zm0-46.12A19.56,19.56,0,1,1,553.1,48.93,19.58,19.58,0,0,1,572.67,29.37Z"/><path class="cls-1" d="M249.93,75h7V48.73c0-12.3,4.79-20.14,8.09-20.14s8.09,7.84,8.09,20.14V75h7V48.73c0-12.3,4.79-20.14,8.09-20.14s8.09,7.84,8.09,20.14V75h7V48.73c0-15.47-6.48-27.14-15.09-27.14-4.76,0-8.87,3.57-11.59,9.38-2.72-5.81-6.83-9.38-11.59-9.38a10.92,10.92,0,0,0-8.09,4v-4H243.09v7h6.84Z"/><rect class="cls-1" x="384.4" y="7.98" width="12.92" height="7"/><polygon class="cls-1" points="424.67 68.09 398.24 68.09 398.24 21.79 384.4 21.79 384.4 28.79 391.24 28.79 391.24 68.09 364.04 68.09 364.04 75.09 424.67 75.09 424.67 68.09"/><path class="cls-1" d="M431.51,75.06h7V48.78c0-11.1,7.73-20.12,17.24-20.12S473,37.68,473,48.78V75h7V48.78c0-15-10.88-27.12-24.25-27.12a23,23,0,0,0-17.24,8.08V21.6H424.67v7h6.84Z"/><path class="cls-2" d="M761.25,43.49c-13.47,0-17.49-2.62-18.59-3.75a1.75,1.75,0,0,1-.53-.85l.07-.23v-.5c0-5,9.66-9.07,17.65-9.07,10.18,0,20.45,2.81,20.45,9.08h7c0-9.92-10.52-16.08-27.45-16.08a35.43,35.43,0,0,0-15.62,3.7c-5.69,2.95-8.88,7.21-9,12a7.68,7.68,0,0,0,1.61,5.86c3.46,4.59,11.45,6.82,24.43,6.82,12,0,16.3,3,17.83,4.73a4.74,4.74,0,0,1,1.29,3.44l-.07.25v.45c0,6.27-10.27,9.08-20.45,9.08-16.42,0-17.34-6.93-17.68-9.53l-.4-3h-13.4v7h7.5c2.51,8.35,10.56,12.58,24,12.58,16.78,0,27.26-6,27.45-15.8a11.63,11.63,0,0,0-2.68-8.71C780.59,46,772.73,43.49,761.25,43.49Z"/><path class="cls-3" d="M1546.26,22.52A23,23,0,0,0,1529,30.6V22.46h-13.84v7H1522V75.93h7V49.64c0-11.09,7.74-20.12,17.25-20.12a16,16,0,0,1,12,5.73,21.69,21.69,0,0,1,5.21,14.39V75.86h7V49.64a28.7,28.7,0,0,0-7-19A22.86,22.86,0,0,0,1546.26,22.52Z"/><path class="cls-3" d="M1425.44,23a23,23,0,0,0-17.24,8.07V22.91h-13.84v7h6.84V76.38h7V50.09c0-11.09,7.73-20.11,17.24-20.11s17.24,9,17.24,20.11h7C1449.68,35.14,1438.81,23,1425.44,23Z"/><polygon class="cls-3" points="1489.23 22.65 1475.39 22.65 1475.39 29.65 1482.23 29.65 1482.23 68.95 1455.03 68.95 1455.03 75.95 1515.66 75.95 1515.66 68.95 1489.23 68.95 1489.23 22.65"/><path class="cls-3" d="M1622.63,31.94a26.56,26.56,0,1,0,0,34.66v8.25c0,1.59-.7,15.51-18.92,15.51s-18.9-12.92-18.92-14.37h-7a21.74,21.74,0,0,0,3.34,10.79c3,4.83,9.4,10.58,22.58,10.58,25.63,0,25.92-22.26,25.92-22.49V29.42h6.84v-7h-13.84Zm-20.1,36.89a19.56,19.56,0,1,1,19.56-19.56A19.58,19.58,0,0,1,1602.53,68.83Z"/><path class="cls-2" d="M714.1,31.74a26.56,26.56,0,1,0,0,34.66v8.26c0,1.58-.7,15.5-18.92,15.5s-18.9-12.92-18.92-14.37h-7a21.84,21.84,0,0,0,3.33,10.8c3,4.82,9.41,10.57,22.59,10.57,25.62,0,25.92-22.26,25.92-22.48V29.22h6.84v-7H714.1ZM694,68.63a19.56,19.56,0,1,1,19.56-19.56A19.58,19.58,0,0,1,694,68.63Z"/><path class="cls-3" d="M1366.22,69.31c-18.22,0-18.9-13.92-18.92-15.51V30.07h28.52v-7H1347.3V1.36h-13.84v7h6.84V53.82c0,.22.29,22.49,25.92,22.49,13.18,0,19.56-5.76,22.58-10.58a21.77,21.77,0,0,0,3.34-10.8l-7,0C1385.12,56.38,1384.42,69.31,1366.22,69.31Z"/><rect class="cls-3" x="1475.39" y="8.84" width="12.92" height="7"/><path class="cls-3" d="M1323.83,29.14c-8-6.31-17.53-6.33-26.78-6.34l-3.54,0c-2.68,0-4.57-.67-5.63-1.9a6.2,6.2,0,0,1-1.14-4.32l0-.55c0-2.77,0-7.92,17.65-7.92,14.14,0,20.45,2.09,20.45,14.51h7c0-21.51-17.18-21.51-27.45-21.51-6.71,0-24.46,0-24.65,14.68a13,13,0,0,0,2.71,9.59c2.42,2.87,6.09,4.36,10.92,4.42l3.62,0c8.42,0,16.38,0,22.44,4.83,5.7,4.51,5.61,8.51,5.46,15.76,0,1.17,0,2.39,0,3.67,0,7.74-2.48,14.91-20.45,14.91-5.91,0-10.44-1.53-13.46-4.57A16.14,16.14,0,0,1,1286.71,54V38.92H1272.4v7h7.31v8a23.16,23.16,0,0,0,6.23,15.33c4.38,4.45,10.61,6.71,18.5,6.71,18.47,0,27.45-7.17,27.45-21.91,0-1.23,0-2.4,0-3.52C1332.1,43,1332.25,35.82,1323.83,29.14Z"/><path class="cls-1" d="M525.06,75.24l.05-7c-.62,0-15.36-.83-15.36-31.75,0-28.61,14.73-29.33,15.36-29.35l-.05-7c-.91,0-22.31.42-22.31,36.35C502.75,74.8,524.15,75.24,525.06,75.24Z"/><path class="cls-1" d="M1714.53.73v7c.16,0,15.32.34,15.32,29.35,0,30.92-14.74,31.73-15.31,31.74v7h0c.63,0,6.25-.15,11.8-5.35,7-6.53,10.52-17.77,10.52-33.39C1736.85,1.14,1715.45.73,1714.53.73Z"/><path class="cls-1" d="M1845.81,34l.07-.35v-.37c0-19.59,6.45-25.21,9.89-25.46h5.44v-7h-5.51c-.49,0-4.63.13-8.71,4.2-5.28,5.26-8,14.51-8.11,27.5-.67.87-3.2,2.5-9.4,2.5v7c6.2,0,8.73,1.62,9.4,2.5.11,13,2.83,22.23,8.11,27.5,4.08,4.07,8.22,4.19,8.7,4.19h5.52v-7h-5.44c-3.44-.24-9.89-5.87-9.89-25.46v-.36l-.07-.36a8.35,8.35,0,0,0-3.15-4.51A8.33,8.33,0,0,0,1845.81,34Z"/><path class="cls-1" d="M39.79,285.27c-.11-13-2.83-22.23-8.11-27.5-4.08-4.07-8.22-4.19-8.7-4.19H17.46v7H22.9c3.44.24,9.89,5.87,9.89,25.46v.36l.08.36A8.24,8.24,0,0,0,36,291.27a8.22,8.22,0,0,0-3.14,4.52l-.08.36v.36c0,19.59-6.45,25.21-9.89,25.46H17.46v7H23c.49,0,4.63-.13,8.71-4.2,5.28-5.26,8-14.51,8.11-27.5.67-.87,3.2-2.5,9.4-2.5v-7C43,287.77,40.46,286.15,39.79,285.27Z"/><path class="cls-1" d="M692,163.14c0-28.6,14.73-29.33,15.36-29.34l-.05-7c-.91,0-22.31.41-22.31,36.34,0,38.31,21.4,38.75,22.31,38.75l.05-7C706.7,194.87,692,194.06,692,163.14Z"/><path class="cls-1" d="M1411.23,127.07l0,7c.62,0,15.35.74,15.35,29.34,0,30.93-14.73,31.73-15.31,31.75v7h0c.63,0,6.25-.15,11.8-5.35,7-6.53,10.51-17.77,10.51-33.4C1433.54,127.48,1412.14,127.07,1411.23,127.07Z"/><path class="cls-2" d="M456.05,148.59a23,23,0,0,0-17.24,8.08v-8.14H425v7h6.84V202h7V175.71c0-11.09,7.73-20.12,17.24-20.12s17.25,9,17.25,20.12v26.22h7V175.71C480.3,160.76,469.42,148.59,456.05,148.59Z"/><path class="cls-2" d="M334.8,148.85a23,23,0,0,0-17.25,8.07v-8.14H303.72v7h6.83v46.47h7V176c0-11.09,7.74-20.11,17.25-20.11S352,164.87,352,176h7C359,161,348.17,148.85,334.8,148.85Z"/><polygon class="cls-2" points="398.59 148.97 384.75 148.97 384.75 155.97 391.59 155.97 391.59 195.28 364.39 195.28 364.39 202.28 425.02 202.28 425.02 195.28 398.59 195.28 398.59 148.97"/><polygon class="cls-2" points="580.63 127.35 566.79 127.35 566.79 134.35 573.63 134.35 573.63 195.02 546.22 195.02 546.22 202.02 606.85 202.02 606.85 195.02 580.63 195.02 580.63 127.35"/><rect class="cls-2" x="384.75" y="135.16" width="12.92" height="7"/><path class="cls-2" d="M518.77,194.92c-18.21,0-18.9-13.92-18.92-15.5V155.69h28.53v-7H499.85V127H486v7h6.84v45.46c0,.22.3,22.48,25.92,22.48,13.19,0,19.56-5.75,22.59-10.57a21.91,21.91,0,0,0,3.34-10.8l-7,0C537.67,182,537,194.92,518.77,194.92Z"/><path class="cls-2" d="M638,148.59a23,23,0,0,0-17.25,8.08v-8.14H606.92v7h6.84V202h7V175.71c0-11.09,7.74-20.12,17.25-20.12s17.24,9,17.24,20.12v26.22h7V175.71C662.25,160.76,651.38,148.59,638,148.59Z"/><path class="cls-2" d="M277,149a26.49,26.49,0,0,0-20,9.15v-9.32H243.09v7h6.84v68h7V192.91a26.55,26.55,0,1,0,20-44Zm0,46.12a19.56,19.56,0,1,1,19.56-19.56A19.59,19.59,0,0,1,277,195.07Z"/><rect class="cls-1" x="1481.28" y="148.94" width="7" height="12.92"/><path class="cls-1" d="M1478.28,182.26h5.91c-.49,8.93-2.7,16.83-4.94,16.83v7c5.48,0,9.15-5,10.91-14.8a79.84,79.84,0,0,0,1.12-12.53v-3.5h-13Z"/><rect class="cls-4" x="750.47" y="126.91" width="7" height="31.01"/><rect class="cls-4" x="763.07" y="126.91" width="7" height="31.01"/><rect class="cls-4" x="1355.51" y="127.18" width="7" height="31.01"/><rect class="cls-4" x="1368.11" y="127.18" width="7" height="31.01"/><polygon class="cls-1" points="1254.38 65.06 1233.64 39.06 1254.38 12.23 1254.38 0.78 1224.74 39.13 1254.38 76.28 1254.38 65.06"/><polygon class="cls-1" points="1656.86 12.09 1677.59 38.92 1656.86 64.92 1656.86 76.14 1686.49 38.99 1656.86 0.64 1656.86 12.09"/><path class="cls-5" d="M33,0a28.08,28.08,0,0,0-16.1,5.39c-5.52,4.07-8.56,9.75-8.56,16v.3H0v7H8.37v46h7v-46h35v-7h-35v-.3C15.37,12.12,25.81,7,33,7c9.88,0,20.45,3.78,20.45,14.38h7C60.48,8.39,49.7,0,33,0Z"/><path class="cls-5" d="M152.55,21.47a23,23,0,0,0-17.25,8.08V21.4H107.87V47.52h-.14c0,11.09-7.74,20.11-17.25,20.11s-17.24-9-17.24-20.11V21.3h-7V47.52c0,14.95,10.88,27.11,24.24,27.11a23,23,0,0,0,17.39-8.24v8.32h7V28.4H128.3V74.87h7V48.58c0-11.09,7.74-20.11,17.25-20.11s17.24,9,17.24,20.11V74.8h7V48.58C176.79,33.63,165.92,21.47,152.55,21.47Z"/><rect class="cls-1" x="815.48" y="22.4" width="7" height="12.92"/><rect class="cls-1" x="815.48" y="48.87" width="7" height="12.92"/><path class="cls-2" d="M1025.82,49.45c0-15-10.88-27.12-24.25-27.12a23,23,0,0,0-17.24,8.08V22.27H970.49v7h6.84V75.74h7V49.45c0-11.09,7.73-20.12,17.24-20.12s17.25,9,17.25,20.12Z"/><path class="cls-2" d="M1199.42,49h-.14a20,20,0,1,1-40,0V22.73h-6.75v0h-13.84V32a26.56,26.56,0,1,0,0,34.58v9.3h7V29.71h6.59V49a26.94,26.94,0,0,0,47.1,18V75.6c0,1.59-.7,15.51-18.92,15.51s-18.9-12.93-18.92-14.38h-7a21.77,21.77,0,0,0,3.34,10.8c3,4.82,9.4,10.58,22.58,10.58,23.45,0,25.69-18.63,25.9-22h0V29.83h6.84v-7h-13.84Zm-80.83,19.88a19.56,19.56,0,1,1,19.56-19.56A19.58,19.58,0,0,1,1118.59,68.83Z"/><path class="cls-2" d="M1038.05,75.74h7V49.45c0-11.09,7.74-20.12,17.25-20.12s17.24,9,17.24,20.12h7c0-15-10.87-27.12-24.24-27.12a23,23,0,0,0-17.25,8.08V22.27h-13.83v7h6.83Z"/><path class="cls-2" d="M917.36,75.74,923.64,58h33.05L963,75.74h7.42l-26.5-75H928.51v7H934l-24.06,68ZM954.22,51h-28.1l14-39.75Z"/><path class="cls-4" d="M1301.54,127.07a27.72,27.72,0,0,0-16.14,5.55c-5.49,4.18-8.52,10-8.52,16.37h7c0-9.61,10.44-14.92,17.66-14.92,9.09,0,18.76,3.32,20.25,12.42-8,2.66-23.73,9.1-23.73,18.27v19.16h7V164.76c0-2.82,8.8-8.62,21.43-12.42l2.49-.75V149C1329,135.67,1318.21,127.07,1301.54,127.07Z"/><rect class="cls-4" x="1298.1" y="189.35" width="7" height="12.92"/><rect class="cls-4" x="1094.91" y="163.21" width="52.34" height="7"/><path class="cls-4" d="M1117.58,138.23c0,1.2-.66,11.77-19.45,11.77v7c9.49,0,16.66-2.39,21.32-7.12a17.05,17.05,0,0,0,1.66-1.93,19.06,19.06,0,0,0,1.61,1.86c4.65,4.72,11.82,7.12,21.32,7.12v-7c-18.8,0-19.45-10.57-19.46-11.78V127.26h-11.82v7h4.82Z"/><polygon class="cls-4" points="886.68 133.88 891.51 133.88 891.51 158.21 880.96 158.21 880.96 165.21 891.51 165.21 891.51 202.28 898.51 202.28 898.51 126.89 886.68 126.89 886.68 133.88"/><rect class="cls-4" x="901.59" y="126.88" width="7" height="75.4"/><polygon class="cls-4" points="1051.16 164.96 1058.16 164.96 1058.16 127.26 1031.67 127.26 1031.67 134.26 1051.16 134.26 1051.16 164.96"/><polygon class="cls-4" points="1078.39 164.96 1078.39 127.26 1066.56 127.26 1066.56 134.26 1071.39 134.26 1071.39 144.36 1059.85 144.36 1059.85 151.36 1071.39 151.36 1071.39 164.96 1078.39 164.96"/><rect class="cls-4" x="1081.47" y="127.26" width="7" height="37.7"/><polygon class="cls-4" points="842.42 126.89 830.6 126.89 830.6 133.88 835.42 133.88 835.42 170.87 842.42 170.87 842.42 152.13 849.43 152.13 849.43 145.13 842.42 145.13 842.42 126.89"/><polygon class="cls-4" points="963.9 126.89 952.07 126.89 952.07 133.88 956.9 133.88 956.9 202.28 963.9 202.28 963.9 165.21 970.9 165.21 970.9 158.21 963.9 158.21 963.9 126.89"/><path class="cls-4" d="M948.74,147.22v-7H913.61v7h6.14c-3.91,5.58-6.36,14-6.36,23.67,0,17.2,7.82,30.67,17.79,30.67S949,188.09,949,170.89c0-9.63-2.45-18.09-6.35-23.67ZM942,170.89c0,14-5.68,23.67-10.78,23.67s-10.79-9.72-10.79-23.67,5.69-23.67,10.79-23.67S942,156.94,942,170.89Z"/><rect class="cls-4" x="913.61" y="126.88" width="35.13" height="7"/><polygon class="cls-4" points="1265.64 127.26 1253.82 127.26 1253.82 134.26 1258.64 134.26 1258.64 202.66 1265.64 202.66 1265.64 165.59 1272.65 165.59 1272.65 158.59 1265.64 158.59 1265.64 127.26"/><polygon class="cls-4" points="1214.37 134.26 1227.38 134.26 1227.38 201.82 1234.38 201.82 1234.38 134.26 1242.28 134.26 1242.28 202.66 1249.28 202.66 1249.28 127.26 1214.37 127.26 1214.37 134.26"/><polygon class="cls-4" points="1015.7 133.88 1020.52 133.88 1020.52 202.28 1027.52 202.28 1027.52 126.89 1015.7 126.89 1015.7 133.88"/><polygon class="cls-4" points="1196.19 134.26 1201.02 134.26 1201.02 202.66 1208.02 202.66 1208.02 127.26 1196.19 127.26 1196.19 134.26"/><path class="cls-4" d="M1164,195.25c-.07-.87-.07-2.33-.07-3.74V127.69h-11.83v7H1157v56.82c0,4.39,0,6.81,1.73,8.73s4.44,2.06,8.34,2.06h22.21v-7H1167C1166,195.3,1164.8,195.3,1164,195.25Z"/><polygon class="cls-4" points="797.41 182.1 835.42 182.1 835.42 202.28 842.42 202.28 842.42 175.1 797.41 175.1 797.41 182.1"/><path class="cls-4" d="M808.85,154.41c3,5.49,8.74,11.38,19.86,11.38v-7c-6.76,0-11.38-2.8-14.15-8.56a25.7,25.7,0,0,1-2.3-9.49V126.88H800.43v7h4.83v7c0,.09-.09,8.69-5.24,13.88-2.71,2.74-6.49,4.12-11.22,4.12v7c6.67,0,12.11-2.08,16.19-6.19A22.26,22.26,0,0,0,808.85,154.41Z"/><path class="cls-4" d="M994.7,152.39v-25.5H982.88v7h4.82v18.75c0,8.12-1.69,31-9.9,39.2a8.93,8.93,0,0,1-6.55,2.9v7a15.84,15.84,0,0,0,11.51-5c4.08-4.09,6.76-10.4,8.53-17,2.94,10.65,8.67,21.7,19.87,21.7v-7C997.86,194.51,994.75,163.32,994.7,152.39Z"/><path class="cls-4" d="M871,152.54V133.88h12.61v-7H851.41v7H864V152.8c0,8.7-1.57,32.94-9.06,40.45a5.86,5.86,0,0,1-4.28,2v7a12.7,12.7,0,0,0,9.23-4c3.63-3.63,6.07-9.49,7.71-15.82,2.82,10.47,7.83,19.63,16.75,19.63v-7C874.38,195,871.06,166.4,871,152.54Z"/><path class="cls-4" d="M1138.71,181.53h-32v-6.19h-11.83v7h4.83v10.28c0,4.39,0,6.81,1.73,8.73s4.44,2.06,8.35,2.06h35.89V174.25h-7Zm-31.9,14.83c-.07-.89-.07-2.39-.07-3.74v-4.09h32v7.88h-28.89C1108.74,196.41,1107.57,196.41,1106.81,196.36Z"/><path class="cls-4" d="M1080.17,188.88a25,25,0,0,1-1.91-8.75V167h-11.83v7h4.83v6.11c0,5.18-1.67,16.53-6.52,16.53a3.55,3.55,0,0,1-2.68-1.16c-3-3-4-10.92-4-15.23V167h-11.82v7H1051v6.26c0,.29-.08,8.46-4.73,13.12a11.67,11.67,0,0,1-8.72,3.26v7a18.54,18.54,0,0,0,13.72-5.36,19.5,19.5,0,0,0,2.45-3,16.51,16.51,0,0,0,3.33,5.18,10.58,10.58,0,0,0,7.65,3.23c3.5,0,8-1.6,10.84-8.57a18.45,18.45,0,0,0,16.13,8.47v-7C1086.19,196.55,1082.42,194,1080.17,188.88Z"/></g></g></svg>