<svg xmlns="http://www.w3.org/2000/svg" viewBox="0 0 1116.69 237.17"><defs><style>.cls-1{fill:#1A2033;filter: drop-shadow(0px 0px 5px rgba(0, 0, 0, 1));}.cls-2{fill:#fff;}</style></defs><g id="Layer_2" data-name="Layer 2"><g id="Layer_1-2" data-name="Layer 1"><rect class="cls-1" x="615.68" width="60.63" height="96.53"/><rect class="cls-1" x="527.98" width="60.63" height="96.53"/><rect class="cls-1" x="968.06" width="60.63" height="96.53"/><rect class="cls-1" width="60.63" height="96.53"/><rect class="cls-1" x="352.02" width="60.63" height="96.53"/><rect class="cls-1" x="88.01" width="60.63" height="96.53"/><rect class="cls-1" x="176.01" width="60.63" height="96.53"/><rect class="cls-1" x="264.02" width="60.63" height="96.53"/><rect class="cls-1" x="440.03" width="60.63" height="96.53"/><rect class="cls-1" x="1056.06" width="60.63" height="96.53"/><rect class="cls-1" x="703.99" width="60.63" height="96.53"/><rect class="cls-1" x="792" width="60.63" height="96.53"/><rect class="cls-1" x="879.93" width="60.63" height="96.53"/><rect class="cls-1" x="615.72" y="140.2" width="60.63" height="96.53"/><rect class="cls-1" x="527.98" y="140.2" width="60.63" height="96.53"/><rect class="cls-1" x="968.06" y="140.2" width="60.63" height="96.53"/><rect class="cls-1" y="140.2" width="60.63" height="96.53"/><rect class="cls-1" x="352.02" y="140.2" width="60.63" height="96.53"/><rect class="cls-1" x="88.01" y="140.2" width="60.63" height="96.53"/><rect class="cls-1" x="176.01" y="140.2" width="60.63" height="96.53"/><rect class="cls-1" x="264.02" y="140.2" width="60.63" height="96.53"/><rect class="cls-1" x="440.03" y="140.2" width="60.63" height="96.53"/><rect class="cls-1" x="1056.06" y="140.2" width="60.63" height="96.53"/><rect class="cls-1" x="703.99" y="140.2" width="60.63" height="96.53"/><rect class="cls-1" x="792" y="140.2" width="60.63" height="96.53"/><rect class="cls-1" x="879.93" y="140.2" width="60.63" height="96.53"/><path class="cls-2" d="M662.82,188h-.14c0,11.09-7.73,20.12-17.24,20.12s-17.25-9-17.25-20.12V161.79h-7V188c0,15,10.88,27.12,24.25,27.12a23,23,0,0,0,17.38-8.25v8.32h7V168.89h6.84v-7H662.82Z"/><path class="cls-2" d="M577.82,200.83c-3,4.84-8.64,7.3-16.66,7.3-18.22,0-18.9-13.92-18.92-15.51V168.89h28.53v-7H542.24v-21.7H528.4v7h6.84v45.45c0,.22.3,22.49,25.92,22.49,13.18,0,19.56-5.75,22.59-10.58a21.82,21.82,0,0,0,3.33-10.8h-7A15.14,15.14,0,0,1,577.82,200.83Z"/><path class="cls-2" d="M1014.84,188h-.14a20,20,0,1,1-40,0V161.79h-7V188a26.93,26.93,0,0,0,47.1,18v8.61c0,1.59-.7,15.51-18.92,15.51S977,217.25,977,215.8h-7a21.74,21.74,0,0,0,3.34,10.79c3,4.83,9.4,10.58,22.58,10.58,23.45,0,25.69-18.63,25.9-22h0V168.89h6.84v-7h-13.84Z"/><path class="cls-2" d="M31.08,161.8a23,23,0,0,0-17.24,8.08v-8.15H0v7H6.84V215.2h7V188.91c0-11.09,7.73-20.11,17.24-20.11s17.25,9,17.25,20.11v26.23h7V188.91C55.33,174,44.45,161.8,31.08,161.8Z"/><path class="cls-2" d="M383.1,161.8a23,23,0,0,0-17.24,8.08v-8.15H352v7h6.84V215.2h7V188.91c0-11.09,7.73-20.11,17.24-20.11s17.25,9,17.25,20.11h7C407.35,174,396.47,161.8,383.1,161.8Z"/><path class="cls-2" d="M118.26,161.9a26.56,26.56,0,1,0,26.56,26.56A26.58,26.58,0,0,0,118.26,161.9Zm0,46.12a19.56,19.56,0,1,1,19.56-19.56A19.58,19.58,0,0,1,118.26,208Z"/><path class="cls-2" d="M209.89,161.9a26.47,26.47,0,0,0-20,9.16v-9.33H176v7h6.84v68h7V205.86a26.55,26.55,0,1,0,20-44Zm0,46.12a19.56,19.56,0,1,1,19.56-19.56A19.58,19.58,0,0,1,209.89,208Z"/><path class="cls-2" d="M310.8,171.05a26.56,26.56,0,1,0,0,34.82v30.85h7v-68h6.84v-7H310.8Zm-20,37a19.56,19.56,0,1,1,19.56-19.56A19.58,19.58,0,0,1,290.77,208Z"/><path class="cls-2" d="M473.38,183.3c-13.47,0-17.48-2.62-18.58-3.75a1.67,1.67,0,0,1-.53-.85l.06-.23V178c0-5,9.66-9.07,17.66-9.07,10.17,0,20.44,2.81,20.44,9.08h7c0-9.92-10.51-16.08-27.44-16.08a35.44,35.44,0,0,0-15.63,3.7c-5.68,3-8.87,7.21-9,12a7.7,7.7,0,0,0,1.62,5.86c3.46,4.59,11.44,6.82,24.42,6.82,12,0,16.3,3,17.83,4.73a4.74,4.74,0,0,1,1.29,3.44l-.07.25v.45c0,6.27-10.27,9.08-20.44,9.08-16.43,0-17.34-6.93-17.69-9.53l-.4-3.05H440.5v7H448c2.51,8.35,10.56,12.58,24,12.58,16.77,0,27.25-6.05,27.44-15.8a11.63,11.63,0,0,0-2.68-8.71C492.72,185.81,484.86,183.3,473.38,183.3Z"/><polygon class="cls-2" points="1072.47 208.07 1116.62 161.89 1058.39 161.89 1058.39 168.89 1100.25 168.89 1056.1 215.07 1116.69 215.07 1116.69 208.07 1072.47 208.07"/><polygon class="cls-2" points="731.83 207.65 711.74 161.79 704.09 161.79 727.5 215.2 728.5 215.2 735.14 215.2 736.15 215.2 756.57 168.9 764.62 168.9 764.62 161.9 752 161.9 731.83 207.65"/><polygon class="cls-2" points="829.7 203.95 819.41 179.48 807.94 204.13 799.17 161.65 792.03 161.65 803.08 215.2 810.51 215.2 819.09 196.77 826.84 215.2 834.23 215.2 845.2 168.89 852.61 168.89 852.61 161.89 839.66 161.88 829.7 203.95"/><polygon class="cls-2" points="908.56 183.85 889.21 161.65 879.93 161.65 903.78 189.03 879.64 215.2 889.17 215.2 908.41 194.34 926.59 215.2 935.87 215.2 913.18 189.16 931.87 168.89 940.68 168.89 940.68 161.89 928.81 161.89 908.56 183.85"/><path class="cls-2" d="M649.34,21.73a26.82,26.82,0,0,0-19.89,8.82V.36H615.61v7h6.84V46.83c-.05.67-.09,1.33-.09,2h.09V75.19h7v-28a20,20,0,0,1,39.87,1.63V75.06h7V48.84A27.07,27.07,0,0,0,649.34,21.73Z"/><path class="cls-2" d="M574.82,31a26.56,26.56,0,1,0,0,34.67v8.25c0,1.59-.71,15.51-18.92,15.51S537,76.51,537,75.06h-7a21.88,21.88,0,0,0,3.34,10.8c3,4.82,9.4,10.58,22.59,10.58,25.62,0,25.92-22.27,25.92-22.49V28.49h6.84v-7H574.82ZM554.72,67.9a19.56,19.56,0,1,1,19.56-19.56A19.58,19.58,0,0,1,554.72,67.9Z"/><polygon class="cls-2" points="1002.39 0.35 988.55 0.35 988.55 7.36 995.39 7.36 995.39 68.03 967.98 68.03 967.98 75.03 1028.61 75.03 1028.61 68.03 1002.39 68.03 1002.39 0.35"/><path class="cls-2" d="M46.79,31.25a26.56,26.56,0,1,0,0,34.58v9.29h7V29h6.84V22H46.79ZM26.65,68.1A19.56,19.56,0,1,1,46.21,48.54,19.59,19.59,0,0,1,26.65,68.1Z"/><path class="cls-2" d="M408.15,42.92l-2-4.86C401.8,27.91,393,21.84,382.62,21.84a26.56,26.56,0,0,0,0,53.12c11.5,0,21.12-7.5,24.51-19.11l-6.72-2C397.88,62.57,391.06,68,382.62,68a19.57,19.57,0,0,1-18.79-25ZM382.62,28.84a17.45,17.45,0,0,1,14.25,7.09l-29.33,0A19.51,19.51,0,0,1,382.62,28.84Z"/><path class="cls-2" d="M121.65,22a26.52,26.52,0,0,0-19.81,8.89V.29H88v7h6.83V75.12h7V66.2A26.55,26.55,0,1,0,121.65,22Zm0,46.12a19.56,19.56,0,1,1,19.56-19.56A19.59,19.59,0,0,1,121.65,68.1Z"/><path class="cls-2" d="M206.42,68a19.56,19.56,0,1,1,0-39.12c7.61,0,13.81,4.36,17,12l6.44-2.73c-4.29-10.15-13.07-16.22-23.47-16.22a26.56,26.56,0,1,0,0,53.12c11.5,0,21.12-7.5,24.5-19.11l-6.72-2C221.67,62.57,214.86,68,206.42,68Z"/><path class="cls-2" d="M310.8,31.13a26.56,26.56,0,1,0,0,34.82v9.18h7V7.29h6.84v-7H310.8Zm-20,37a19.56,19.56,0,1,1,19.56-19.56A19.58,19.58,0,0,1,290.77,68.1Z"/><path class="cls-2" d="M473,.29a28.15,28.15,0,0,0-16.1,5.39c-5.52,4.08-8.56,9.76-8.56,16V22H440v7h8.37V75h7V29h35V22h-35v-.3c0-9.26,10.44-14.39,17.66-14.39,9.88,0,20.44,3.78,20.44,14.39h7C500.43,8.69,489.66.29,473,.29Z"/><path class="cls-2" d="M1101.54,21.8c-4.76,0-8.87,3.57-11.59,9.38-2.72-5.81-6.83-9.38-11.59-9.38a10.92,10.92,0,0,0-8.09,4v-4h-13.84v7h6.84V75.19h7V48.94c0-12.29,4.79-20.14,8.09-20.14s8.09,7.85,8.09,20.14V75.19h7V48.94c0-12.29,4.79-20.14,8.09-20.14s8.09,7.85,8.09,20.14V75.19h7V48.94C1116.63,33.47,1110.15,21.8,1101.54,21.8Z"/><polygon class="cls-2" points="738.24 21.73 724.4 21.73 724.4 28.73 731.24 28.73 731.24 68.03 704.04 68.03 704.04 75.03 764.67 75.03 764.67 68.03 738.24 68.03 738.24 21.73"/><rect class="cls-2" x="724.4" y="7.91" width="12.92" height="7"/><path class="cls-2" d="M838.83,73.93c0,1.59-.7,15.51-18.92,15.51S801,76.51,801,75.06h-7a21.77,21.77,0,0,0,3.34,10.8c3,4.82,9.4,10.58,22.58,10.58,25.63,0,25.92-22.27,25.92-22.49V28.49h6.84v-7H838.83Z"/><rect class="cls-2" x="838.73" y="7.91" width="13.94" height="7"/><path class="cls-2" d="M893.75.36H879.92v7h6.83V75.19h7v-35H894c9.65,0,32.24-.11,38.29,5.91a3.69,3.69,0,0,1,1.23,2.76V75.06h7V48.84a10.72,10.72,0,0,0-3.29-7.72c-4-3.94-11.08-5.95-19.42-7l22.91-5.36V21.61l-46.93,11Z"/></g></g></svg>