<svg xmlns="http://www.w3.org/2000/svg" viewBox="0 0 726.17 756.9"><defs><style>.cls-1{fill:#00ff8b;}.cls-2,.cls-4{fill:none;stroke:#a5a5a5;stroke-miterlimit:10;}.cls-3{fill:#fff;}.cls-4{stroke-width:0.5px;}</style></defs><g id="Layer_2" data-name="Layer 2"><g id="_π_ÃæÓ_1" data-name="∑π¿ÃæÓ 1"><path class="cls-1" d="M451.85,163.63c-19.11,0-36.42,8.77-48.9,22.91V163.89H363.72v19.85H383.1V315.06H403V240.52c0-31.45,21.94-57,48.9-57s48.9,25.59,48.9,57H520.6C520.6,198.12,489.76,163.63,451.85,163.63Z"/><path class="cls-1" d="M324.48,163.89V238c0,31.45-21.94,57-48.91,57s-48.89-25.59-48.89-57V163.6H206.83V238c0,42.4,30.84,76.89,68.74,76.89,19.12,0,36.43-8.77,48.91-22.91v23.12h19.84V183.74h19.4V163.89Z"/><path class="cls-1" d="M667.47,163.89V238c0,31.45-21.94,57-48.9,57s-48.9-25.59-48.9-57V163.6H549.82V238c0,42.4,30.84,76.89,68.75,76.89,19.12,0,36.43-8.77,48.9-22.91v23.12h19.85V183.74h19.39V163.89Z"/><path class="cls-1" d="M109.8,102.53H20.51v19.85H39.9V314.75H59.75v-.07H109.8c38.84,0,69.26-46.6,69.26-106.08S148.64,102.53,109.8,102.53Zm0,192.3h-50V122.38H109.8c26.78,0,49.41,39.49,49.41,86.22S136.58,294.83,109.8,294.83Z"/><g id="cross-lines"><line class="cls-2" x1="20.32" y1="347.22" x2="20.32" y2="404.97"/><line class="cls-2" x1="41.02" y1="376.1" y2="376.1"/><line class="cls-2" x1="212.3" y1="376.1" x2="171.29" y2="376.1"/><line class="cls-2" x1="383.59" y1="376.1" x2="342.58" y2="376.1"/><line class="cls-2" x1="554.88" y1="376.1" x2="513.87" y2="376.1"/><line class="cls-2" x1="726.17" y1="376.1" x2="685.15" y2="376.1"/><line class="cls-2" x1="41.02" y1="102.38" y2="102.38"/><line class="cls-2" x1="212.3" y1="102.38" x2="171.29" y2="102.38"/><line class="cls-2" x1="383.59" y1="102.38" x2="342.58" y2="102.38"/><line class="cls-2" x1="554.88" y1="102.38" x2="513.87" y2="102.38"/><line class="cls-2" x1="726.17" y1="102.38" x2="685.15" y2="102.38"/><line class="cls-2" x1="192.24" y1="347.22" x2="192.24" y2="404.97"/><line class="cls-2" x1="363.7" y1="347.22" x2="363.7" y2="404.97"/><line class="cls-2" x1="534.74" y1="347.22" x2="534.74" y2="404.97"/><line class="cls-2" x1="706.71" y1="347.22" x2="706.71" y2="404.97"/><line class="cls-2" x1="20.32" y1="620.75" x2="20.32" y2="678.49"/><line class="cls-2" x1="41.02" y1="649.62" y2="649.62"/><line class="cls-2" x1="212.3" y1="649.62" x2="171.29" y2="649.62"/><line class="cls-2" x1="383.59" y1="649.62" x2="342.58" y2="649.62"/><line class="cls-2" x1="554.88" y1="649.62" x2="513.87" y2="649.62"/><line class="cls-2" x1="726.17" y1="649.62" x2="685.15" y2="649.62"/><line class="cls-2" x1="192.24" y1="620.75" x2="192.24" y2="678.49"/><line class="cls-2" x1="363.7" y1="620.75" x2="363.7" y2="678.49"/><line class="cls-2" x1="534.74" y1="620.75" x2="534.74" y2="678.49"/><line class="cls-2" x1="706.71" y1="620.75" x2="706.71" y2="678.49"/><line class="cls-2" x1="20.32" y1="73.51" x2="20.32" y2="131.25"/><line class="cls-2" x1="192.24" y1="73.51" x2="192.24" y2="131.25"/><line class="cls-2" x1="363.7" y1="73.51" x2="363.7" y2="131.25"/><line class="cls-2" x1="534.74" y1="73.51" x2="534.74" y2="131.25"/><line class="cls-2" x1="706.71" y1="73.51" x2="706.71" y2="131.25"/></g><path class="cls-3" d="M451.78,437.3c-19.1,0-36.4,8.77-48.86,22.9V437.12H363.71V457h19.37V588.63h19.84V514.14c0-31.43,21.92-57,48.86-57s48.86,25.57,48.86,57v74.3h19.84v-74.3C520.48,471.77,489.66,437.3,451.78,437.3Z"/><path class="cls-3" d="M277.84,588.12a75.26,75.26,0,1,1,75.27-75.26A75.34,75.34,0,0,1,277.84,588.12Zm0-130.69a55.43,55.43,0,1,0,55.43,55.43A55.49,55.49,0,0,0,277.84,457.43Z"/><path class="cls-3" d="M620.64,588.12a75.26,75.26,0,1,1,75.27-75.26A75.34,75.34,0,0,1,620.64,588.12Zm0-130.69a55.43,55.43,0,1,0,55.43,55.43A55.49,55.49,0,0,0,620.64,457.43Z"/><polygon class="cls-3" points="168.88 376.1 115.59 436.73 59.53 376.23 59.53 376.17 59.48 376.17 59.42 376.1 34.1 376.1 34.03 376.17 20.32 376.17 20.32 396 39.7 396 39.7 588.98 59.53 588.98 59.53 405.41 115.98 466.33 172.17 402.4 172.17 588.98 192 588.98 192 376.1 168.88 376.1"/><line class="cls-4" x1="20.32" x2="20.32" y2="756.9"/><line class="cls-4" x1="192.25" x2="192.25" y2="756.9"/><line class="cls-4" x1="363.71" x2="363.71" y2="756.9"/><line class="cls-4" x1="534.73" x2="534.73" y2="756.9"/><line class="cls-4" x1="706.71" x2="706.71" y2="756.9"/></g></g></svg>