<svg xmlns="http://www.w3.org/2000/svg" viewBox="0 0 1116.79 511.85"><defs><style>.cls-1{fill:#1A2033;filter: drop-shadow(0px 0px 5px rgba(0, 0, 0, 1));}.cls-2{fill:#fff;}</style></defs><g id="Layer_2" data-name="Layer 2"><g id="Layer_1-2" data-name="Layer 1"><rect class="cls-1" x="440.69" y="276.75" width="60.63" height="96.53"/><rect class="cls-1" x="616.54" y="276.47" width="60.63" height="96.53"/><rect class="cls-1" x="528.62" y="276.47" width="60.63" height="96.53"/><rect class="cls-1" x="704.46" y="276.34" width="60.63" height="96.53"/><rect class="cls-1" x="264.84" y="276.83" width="60.63" height="96.53"/><rect class="cls-1" x="176.92" y="276.75" width="60.63" height="96.53"/><rect class="cls-1" x="1.07" y="276.75" width="60.63" height="96.53"/><rect class="cls-1" x="89" y="276.75" width="60.63" height="96.53"/><rect class="cls-1" x="352.77" y="276.83" width="60.63" height="96.53"/><rect class="cls-1" x="792.39" y="276.34" width="60.63" height="96.53"/><rect class="cls-1" x="880.31" y="276.47" width="60.63" height="96.53"/><rect class="cls-1" x="968.24" y="276.34" width="60.63" height="96.53"/><rect class="cls-1" x="1056.16" y="276.75" width="60.63" height="96.53"/><rect class="cls-2" x="467.51" y="338.83" width="7" height="12.92"/><rect class="cls-2" x="643.41" y="298.15" width="7" height="12.92"/><rect class="cls-2" x="643.41" y="324.61" width="7" height="12.92"/><path class="cls-2" d="M551.08,345.58H557c-.49,8.82-2.73,16.84-4.93,16.84v7c5.48,0,9.15-5,10.91-14.81a79.84,79.84,0,0,0,1.12-12.53v-3.5h-13Z"/><rect class="cls-2" x="731.28" y="298.02" width="7" height="12.92"/><path class="cls-2" d="M728.28,331.34h5.9c-.48,8.93-2.7,16.84-4.94,16.84v7c5.48,0,9.16-5,10.92-14.81a81.24,81.24,0,0,0,1.12-12.53v-3.5h-13Z"/><rect class="cls-2" x="269.79" y="299.76" width="50.88" height="7"/><rect class="cls-2" x="269.79" y="328.15" width="50.88" height="7"/><polygon class="cls-2" points="210.81 291.78 203.81 291.78 203.81 313.72 181.86 313.72 181.86 320.72 203.81 320.72 203.81 342.66 210.81 342.66 210.81 320.72 232.75 320.72 232.75 313.72 210.81 313.72 210.81 291.78"/><rect class="cls-1" x="264" y="415.33" width="60.63" height="96.53"/><polygon class="cls-2" points="42.19 351.97 42.19 340.74 21.45 314.75 42.19 287.92 42.19 276.47 12.55 314.81 42.19 351.97"/><polygon class="cls-2" points="109.38 287.92 130.12 314.75 109.38 340.74 109.38 351.97 139.01 314.81 109.38 276.47 109.38 287.92"/><rect class="cls-2" x="380.74" y="318.12" width="7" height="33.71"/><rect class="cls-2" x="380.74" y="276.67" width="7" height="33.71"/><path class="cls-2" d="M818.61,283.34v-7c-5.48,0-9.15,5-10.91,14.8a79.84,79.84,0,0,0-1.12,12.54v3.5h13v-7h-5.9C814.17,291.36,816.41,283.34,818.61,283.34Z"/><path class="cls-2" d="M834.32,283.34v-7c-5.48,0-9.15,5-10.91,14.8a79.84,79.84,0,0,0-1.12,12.54v3.5h13v-7h-5.9C829.88,291.36,832.12,283.34,834.32,283.34Z"/><path class="cls-2" d="M913.71,283.46h5.9c-.48,8.94-2.69,16.84-4.94,16.84v7c5.49,0,9.16-5,10.92-14.8A79.93,79.93,0,0,0,926.71,280v-3.5h-13Z"/><path class="cls-2" d="M898,283.46h5.9c-.48,8.94-2.69,16.84-4.94,16.84v7c5.49,0,9.16-5,10.92-14.8A79.93,79.93,0,0,0,911,280v-3.5H898Z"/><path class="cls-2" d="M1004,283.24v-7c-5.48,0-9.16,5-10.91,14.8a80.6,80.6,0,0,0-1.13,12.54v3.5h13v-7H999C999.51,291.26,1001.76,283.24,1004,283.24Z"/><path class="cls-2" d="M1080.06,276.74v7h5.9c-.49,8.82-2.73,16.84-4.94,16.84v7c5.49,0,9.16-5,10.92-14.8a79.93,79.93,0,0,0,1.12-12.54v-3.5Z"/><rect class="cls-1" x="0.1" y="415.05" width="60.63" height="96.53"/><rect class="cls-1" x="88.23" y="415.05" width="60.63" height="96.53"/><rect class="cls-2" x="22.39" y="414.89" width="7" height="31.01"/><rect class="cls-2" x="34.99" y="414.89" width="7" height="31.01"/><rect class="cls-2" x="115.04" y="414.89" width="7" height="31.01"/><rect class="cls-1" x="176.36" y="415.05" width="60.63" height="96.53"/><polygon class="cls-2" points="218.4 445.9 202.86 415.05 195.03 415.05 210.56 445.9 218.4 445.9"/><rect class="cls-1" x="88.11" y="0.2" width="60.63" height="96.53"/><rect class="cls-1" x="88.19" y="138.33" width="60.63" height="96.53"/><path class="cls-2" d="M90.39,75.16h56.35v-7H106.9L140,34a23.37,23.37,0,0,0,5.83-10.34l.08-.38v-.38c0-.22-.3-22.48-25.92-22.48-13.19,0-19.56,5.75-22.59,10.57A21.91,21.91,0,0,0,94,21.74l7,0c0-1.47.73-14.39,18.93-14.39,17.21,0,18.77,12.43,18.91,15.12A17.21,17.21,0,0,1,135,29Z"/><path class="cls-2" d="M123.17,170.38V153.53c8.53.59,17.18,3.55,17.18,10.45h7c0-9.95-9.38-16.62-24.18-17.46v-8.19h-7v8.34c-9.62,1.23-20.66,7-20.92,17a9,9,0,0,0,1.92,6.67c3.11,4,9.49,6.3,19,6.89V198.1c-11.24-.94-13.4-6.19-13.94-10.83l-.37-3.09H88.42v7h7.42c2.18,8.44,9,13.1,20.33,13.92v7.76h7v-7.71c14.67-.84,24-7.4,24.18-17.21a13.35,13.35,0,0,0-3.14-10C140.26,173.19,133.18,170.65,123.17,170.38Zm-20.29-4.17a2.39,2.39,0,0,1-.7-1.43l.07-.13V164c0-3.47,2.93-5.91,5.4-7.33a25.2,25.2,0,0,1,8.52-2.91v16.44C106.94,169.55,103.83,167.28,102.88,166.21Zm37.53,20.84-.06.32v.31c0,6.91-8.65,9.87-17.18,10.45V177.38c9.53.29,13.72,2.8,15.57,4.92A6.49,6.49,0,0,1,140.41,187.05Z"/><rect class="cls-1" x="616.15" y="0.2" width="60.63" height="96.53"/><rect class="cls-1" x="615.87" y="138.33" width="60.63" height="96.53"/><path class="cls-2" d="M664.78,26.29a14.32,14.32,0,0,0-8.25-26h-20a14.32,14.32,0,0,0-8.25,26A26.54,26.54,0,0,0,642.8,75h7.41a26.54,26.54,0,0,0,14.57-48.73Zm-28.3-4.37a7.34,7.34,0,1,1,0-14.67h20a7.34,7.34,0,1,1,0,14.67h-20ZM650.21,68H642.8a19.55,19.55,0,1,1,0-39.1h7.41a19.55,19.55,0,0,1,0,39.1Z"/><path class="cls-2" d="M655.64,145.14l0-7c-.91,0-22.31.41-22.31,36.34,0,38.31,21.4,38.75,22.31,38.75v-7c-.15,0-15.31-.36-15.31-31.75C640.28,145.87,655,145.15,655.64,145.14Z"/><rect class="cls-1" x="704.15" y="0.2" width="60.63" height="96.53"/><rect class="cls-1" x="703.98" y="138.33" width="60.63" height="96.53"/><path class="cls-2" d="M746.74.25H725.13a14.34,14.34,0,1,0,0,28.67h21.61a14.2,14.2,0,0,0,7.34-2V52.51c0,1.59-.71,15.51-18.92,15.51s-18.9-12.92-18.92-14.37h-7a21.79,21.79,0,0,0,3.33,10.79C715.6,69.27,722,75,735.16,75c25.62,0,25.92-22.26,25.92-22.49V14.58A14.35,14.35,0,0,0,746.74.25Zm0,21.67H725.13a7.34,7.34,0,1,1,0-14.67h21.61a7.34,7.34,0,1,1,0,14.67Z"/><path class="cls-2" d="M721.37,138.14l0,7c.63,0,15.36.73,15.36,29.34,0,30.92-14.74,31.73-15.32,31.75v7h0c.63,0,6.25-.15,11.8-5.35,7-6.53,10.52-17.77,10.52-33.4C743.69,138.55,722.29,138.14,721.37,138.14Z"/><rect class="cls-1" x="792.14" y="0.2" width="60.63" height="96.53"/><rect class="cls-1" x="791.86" y="138.33" width="60.63" height="96.53"/><path class="cls-2" d="M822.45.84C805.94.84,792.51,17.51,792.51,38s13.43,37.15,29.94,37.15S852.4,58.48,852.4,38,839,.84,822.45.84Zm0,67.3c-12.65,0-22.94-13.52-22.94-30.15S809.8,7.84,822.45,7.84,845.4,21.37,845.4,38,835.1,68.14,822.45,68.14Z"/><rect class="cls-2" x="818.95" y="31.23" width="7" height="12.92"/><path class="cls-2" d="M829.07,138.14c-.49,0-4.63.12-8.71,4.19-5.28,5.27-8,14.52-8.11,27.5-.67.88-3.2,2.5-9.4,2.5v7c6.2,0,8.73,1.63,9.4,2.5.1,13,2.83,22.24,8.11,27.5,4.08,4.07,8.22,4.2,8.7,4.2h5.52v-7h-5.44c-3.44-.25-9.89-5.87-9.89-25.46v-.37l-.08-.35a8.28,8.28,0,0,0-3.14-4.52,8.31,8.31,0,0,0,3.14-4.51l.08-.36v-.36c0-19.59,6.45-25.22,9.89-25.46h5.44v-7h-5.51Z"/><rect class="cls-1" x="880.13" y="0.2" width="60.63" height="96.53"/><rect class="cls-1" x="879.97" y="138.33" width="60.63" height="96.53"/><path class="cls-2" d="M909,0a27.6,27.6,0,0,0-16.13,5.56c-5.5,4.17-8.53,10-8.53,16.36h7C891.36,12.31,901.8,7,909,7c9.1,0,18.77,3.32,20.25,12.42-7.95,2.66-23.73,9.1-23.73,18.28V56.85h7V37.7c0-2.83,8.8-8.63,21.43-12.43l2.5-.75v-2.6C936.47,8.6,925.69,0,909,0Z"/><rect class="cls-2" x="905.59" y="62.28" width="7" height="12.92"/><path class="cls-2" d="M919.69,169.83c-.1-13-2.83-22.23-8.1-27.5-4.1-4.09-8.29-4.2-8.72-4.19h-5.51v7h5.52a6.89,6.89,0,0,1,3.76,2.15c2.76,2.75,6.05,9,6.05,23.31V171l.08.36a8.31,8.31,0,0,0,3.14,4.51,8.28,8.28,0,0,0-3.14,4.52l-.08.35v.37c0,19.59-6.45,25.21-9.89,25.46h-5.44v7h5.51c.49,0,4.64-.13,8.71-4.2,5.28-5.26,8-14.51,8.11-27.5.67-.87,3.2-2.5,9.4-2.5v-7C922.89,172.33,920.36,170.71,919.69,169.83Z"/><rect class="cls-1" x="968.13" y="0.2" width="60.63" height="96.53"/><rect class="cls-1" x="967.81" y="138.33" width="60.63" height="96.53"/><rect class="cls-2" x="994.71" y="62.28" width="7" height="12.92"/><rect class="cls-2" x="994.71" y="0.2" width="7" height="56.66"/><polygon class="cls-2" points="991.83 213.31 1005.66 213.31 1005.66 206.31 998.83 206.31 998.83 145.14 1005.66 145.14 1005.66 138.14 991.83 138.14 991.83 213.31"/><rect class="cls-1" x="1056.12" y="0.2" width="60.63" height="96.53"/><rect class="cls-1" x="1055.92" y="138.33" width="60.63" height="96.53"/><path class="cls-2" d="M1108.17,59.21V21.85h6.32v-8.1l-.07-.35c-.16-.76-1.84-7.55-12.71-11-7.57-2.38-20-3-30.14,3.16-6.72,4.07-12.93,11.13-12.93,35.1,0,25.29,17.26,30.86,22.93,32.69,4.16,1.35,10.81,1.54,14.31,1.54,1.08,0,1.86,0,2.17,0h10.12v-7H1097.9c-2.69.08-10.47,0-14.18-1.17-5.87-1.89-18.08-5.84-18.08-26,0-21.52,4.93-26.31,9.56-29.11,7.61-4.61,17.74-4.56,24.41-2.47,5.87,1.84,7.5,4.68,7.88,5.55v.19h-6.32v2.7a19.52,19.52,0,0,0-10.32-2.88c-9.54,0-17.31,6.51-17.31,14.52V45c0,8,7.77,14.52,17.31,14.52a19.43,19.43,0,0,0,10.32-2.89v2.63Zm-7-14.26c0,4.08-4.72,7.52-10.32,7.52S1080.54,49,1080.54,45V29.19c0-4.08,4.72-7.52,10.31-7.52s10.32,3.44,10.32,7.52Z"/><polygon class="cls-2" points="1077.07 145.14 1083.9 145.14 1083.9 206.31 1077.07 206.31 1077.07 213.31 1090.9 213.31 1090.9 138.14 1077.07 138.14 1077.07 145.14"/><rect class="cls-1" x="352.17" y="0.2" width="60.63" height="96.53"/><rect class="cls-1" x="352.13" y="138.33" width="60.63" height="96.53"/><path class="cls-2" d="M382.66,21.9H371.83V7.1h40.31V.1H364.83V28.9h17.83c12.7,0,23,8.77,23,19.56S395.36,68,382.66,68s-23-8.77-23-19.56h-7c0,14.64,13.48,26.56,30,26.56s30-11.92,30-26.56S399.22,21.9,382.66,21.9Z"/><path class="cls-2" d="M403,182.36h6.7v-7H396.61l-.23,3.25a54.52,54.52,0,0,1-2.09,10.51l-12.92-20,12.5-17.93.17-.26a7.5,7.5,0,0,0,0-7.35c-2-3.52-6.83-5.22-14.65-5.22-4.77,0-19.29,0-19.66,8.35-.05,1.22-.15,3.46,13.16,22.31l-17.78,25.49-.09.89A16,16,0,0,0,358.94,207c3.75,4.2,9.7,6.32,17.67,6.32,8.38,0,14.37-4.21,18.53-9.94l6.44,10h8.33L399.05,196.5A54.16,54.16,0,0,0,403,182.36Zm-36-35.25c1.16-.67,4.66-1.75,12.39-1.75,7.41,0,8.58,1.71,8.59,1.73s0,.22,0,.35L377.17,162.9C372.72,156.49,368.31,149.75,367,147.11Zm9.6,59.19c-5.84,0-10-1.32-12.39-3.91a8.83,8.83,0,0,1-2.24-5.47L377,175.32l14,21.62C388,202.08,383.52,206.3,376.61,206.3Z"/><rect class="cls-1" y="0.2" width="60.63" height="96.53"/><rect class="cls-1" x="0.2" y="138.33" width="60.63" height="96.53"/><polygon class="cls-2" points="33.81 0.2 24.98 0.2 0.01 21.87 10.69 21.87 26.81 7.87 26.81 68.16 0.22 68.16 0.22 75.16 60.4 75.16 60.4 68.16 33.81 68.16 33.81 0.2"/><path class="cls-2" d="M55.36,138.33H48.14l-5.55,21.93h-16l5.55-21.93H24.92l-5.55,21.93H6.7v7H17.59l-5.41,21.39H1.07v7h9.34L5.93,213.33h7.22l4.48-17.68h16l-4.48,17.68h7.22l4.48-17.68H52v-7H42.62L48,167.26h9.54v-7H49.81Zm-20,50.32h-16l5.42-21.39h16Z"/><rect class="cls-1" x="176.11" y="0.2" width="60.63" height="96.53"/><rect class="cls-1" x="176.19" y="138.33" width="60.63" height="96.53"/><path class="cls-2" d="M207.12,68h-.4a19.57,19.57,0,0,1-19.55-19.55h-7A26.58,26.58,0,0,0,206.72,75h.4a26.54,26.54,0,0,0,14.57-48.73,14.32,14.32,0,0,0-8.24-26H198.74c-.66,0-6.37.07-10.5,4.17a13.74,13.74,0,0,0-3.86,10.16h7c0-1.7.52-7.28,7.33-7.33h14.74a7.34,7.34,0,0,1,0,14.67H193.39v7h13.73a19.55,19.55,0,0,1,0,39.1Z"/><path class="cls-2" d="M207.71,156.56V152.8a14.52,14.52,0,0,0-29,0v3.76a14.52,14.52,0,0,0,29,0Zm-22,0V152.8a7.52,7.52,0,0,1,15,0v3.76a7.52,7.52,0,0,1-15,0Z"/><path class="cls-2" d="M220,180.49A14.54,14.54,0,0,0,205.45,195v3.77a14.52,14.52,0,0,0,29,0V195A14.54,14.54,0,0,0,220,180.49Zm7.52,18.29a7.52,7.52,0,0,1-15,0V195a7.52,7.52,0,0,1,15,0Z"/><polygon class="cls-2" points="222.44 138.33 183 213.33 190.91 213.33 230.35 138.33 222.44 138.33"/><rect class="cls-1" x="528.16" y="0.2" width="60.63" height="96.53"/><rect class="cls-1" x="528" y="138.33" width="60.63" height="96.53"/><polygon class="cls-2" points="532.48 21.87 539.48 21.87 539.48 7.23 575.96 7.23 555.19 75.2 562.51 75.2 585.42 0.23 532.48 0.23 532.48 21.87"/><polygon class="cls-2" points="534.64 213.33 542.55 213.33 581.98 138.33 574.08 138.33 534.64 213.33"/><rect class="cls-1" x="440.17" y="0.2" width="60.63" height="96.53"/><rect class="cls-1" x="439.94" y="138.33" width="60.63" height="96.53"/><path class="cls-2" d="M472.24,21.9a26.5,26.5,0,0,0-19.56,8.61V22.87c0-1.58.7-15.5,18.92-15.5s18.9,12.92,18.92,14.37h7a21.84,21.84,0,0,0-3.33-10.8C491.16,6.12,484.78.37,471.6.37c-25.62,0-25.92,22.26-25.92,22.48V48.46A26.56,26.56,0,1,0,472.24,21.9Zm0,46.12A19.56,19.56,0,1,1,491.8,48.46,19.58,19.58,0,0,1,472.24,68Z"/><polygon class="cls-2" points="484.08 157.63 478.02 154.13 469.83 168.32 461.63 154.13 455.57 157.63 463.34 171.08 447.8 171.08 447.8 178.08 464.19 178.08 455.57 193.02 461.63 196.52 469.83 182.32 478.02 196.52 484.08 193.02 475.46 178.08 492.7 178.08 492.7 171.08 476.32 171.08 484.08 157.63"/><rect class="cls-1" x="264.18" y="0.2" width="60.63" height="96.53"/><rect class="cls-1" x="264.14" y="138.33" width="60.63" height="96.53"/><path class="cls-2" d="M313.35.2H302.76L264.18,22.1v6.82h42.17V75.2h7V28.92h11.46v-7H313.35Zm-7,21.72H278.67L306.35,6.21Z"/><polygon class="cls-2" points="271.81 160.01 281.94 160.01 294.44 148.08 306.75 160.01 316.81 160.01 294.47 138.36 271.81 160.01"/><rect class="cls-1" x="352.77" y="415.05" width="60.63" height="96.53"/><rect class="cls-2" x="357.71" y="483.03" width="50.88" height="7"/><rect class="cls-2" x="275.33" y="452.3" width="37.97" height="7"/></g></g></svg>